<svg width="49" height="49" viewBox="0 0 49 49" fill="none" xmlns="http://www.w3.org/2000/svg">
<rect x="0.5" y="0.5" width="48" height="48" rx="24" stroke="#4F4F4F"/>
<path d="M18 24.5C17.7239 24.5 17.5 24.7239 17.5 25C17.5 25.2761 17.7239 25.5 18 25.5L18 24.5ZM31.3536 25.3536C31.5488 25.1583 31.5488 24.8417 31.3536 24.6464L28.1716 21.4645C27.9763 21.2692 27.6597 21.2692 27.4645 21.4645C27.2692 21.6597 27.2692 21.9763 27.4645 22.1716L30.2929 25L27.4645 27.8284C27.2692 28.0237 27.2692 28.3403 27.4645 28.5355C27.6597 28.7308 27.9763 28.7308 28.1716 28.5355L31.3536 25.3536ZM18 25C18 25.5 18 25.5 18.0001 25.5C18.0001 25.5 18.0002 25.5 18.0003 25.5C18.0004 25.5 18.0007 25.5 18.001 25.5C18.0017 25.5 18.0027 25.5 18.0041 25.5C18.0068 25.5 18.0108 25.5 18.0162 25.5C18.027 25.5 18.0431 25.5 18.0645 25.5C18.1072 25.5 18.1707 25.5 18.2543 25.5C18.4213 25.5 18.6683 25.5 18.9878 25.5C19.6269 25.5 20.5563 25.5 21.7175 25.5C24.04 25.5 27.29 25.5 31 25.5L31 24.5C27.29 24.5 24.04 24.5 21.7175 24.5C20.5563 24.5 19.6269 24.5 18.9878 24.5C18.6683 24.5 18.4213 24.5 18.2543 24.5C18.1707 24.5 18.1072 24.5 18.0645 24.5C18.0431 24.5 18.027 24.5 18.0162 24.5C18.0108 24.5 18.0068 24.5 18.0041 24.5C18.0027 24.5 18.0017 24.5 18.001 24.5C18.0007 24.5 18.0004 24.5 18.0003 24.5C18.0002 24.5 18.0001 24.5 18.0001 24.5C18 24.5 18 24.5 18 25Z" fill="#4F4F4F"/>
</svg>
