<svg width="49" height="49" viewBox="0 0 49 49" fill="none" xmlns="http://www.w3.org/2000/svg">
<rect x="0.5" y="0.5" width="48" height="48" rx="24" stroke="#4F4F4F"/>
<path d="M31 24.5C31.2761 24.5 31.5 24.2761 31.5 24C31.5 23.7239 31.2761 23.5 31 23.5L31 24.5ZM17.6464 23.6464C17.4512 23.8417 17.4512 24.1583 17.6464 24.3536L20.8284 27.5355C21.0237 27.7308 21.3403 27.7308 21.5355 27.5355C21.7308 27.3403 21.7308 27.0237 21.5355 26.8284L18.7071 24L21.5355 21.1716C21.7308 20.9763 21.7308 20.6597 21.5355 20.4645C21.3403 20.2692 21.0237 20.2692 20.8284 20.4645L17.6464 23.6464ZM31 24C31 23.5 31 23.5 30.9999 23.5C30.9999 23.5 30.9998 23.5 30.9997 23.5C30.9996 23.5 30.9993 23.5 30.999 23.5C30.9983 23.5 30.9973 23.5 30.9959 23.5C30.9932 23.5 30.9892 23.5 30.9838 23.5C30.973 23.5 30.9569 23.5 30.9355 23.5C30.8928 23.5 30.8293 23.5 30.7457 23.5C30.5787 23.5 30.3317 23.5 30.0122 23.5C29.3731 23.5 28.4437 23.5 27.2825 23.5C24.96 23.5 21.71 23.5 18 23.5L18 24.5C21.71 24.5 24.96 24.5 27.2825 24.5C28.4437 24.5 29.3731 24.5 30.0122 24.5C30.3317 24.5 30.5787 24.5 30.7457 24.5C30.8293 24.5 30.8928 24.5 30.9355 24.5C30.9569 24.5 30.973 24.5 30.9838 24.5C30.9892 24.5 30.9932 24.5 30.9959 24.5C30.9973 24.5 30.9983 24.5 30.999 24.5C30.9993 24.5 30.9996 24.5 30.9997 24.5C30.9998 24.5 30.9999 24.5 30.9999 24.5C31 24.5 31 24.5 31 24Z" fill="#4F4F4F"/>
</svg>
