<svg width="40" height="40" viewBox="0 0 40 40" fill="none" xmlns="http://www.w3.org/2000/svg">
<g opacity="0.9" clip-path="url(#clip0_4857_465)">
<path d="M34.1422 5.85757C30.3646 2.08007 25.3422 -0.000244141 20 -0.000244141C14.6578 -0.000244141 9.63539 2.08007 5.85781 5.85757C2.08023 9.63507 0 14.6576 0 19.9998C0 25.3419 2.08031 30.3644 5.85781 34.1419C9.63531 37.9195 14.6578 39.9998 20 39.9998C25.3422 39.9998 30.3646 37.9194 34.1422 34.1419C37.9198 30.3644 40 25.3419 40 19.9998C40 14.6576 37.9197 9.63515 34.1422 5.85757ZM36.5491 28.8327L33.289 26.9505C34.2897 25.045 34.8922 22.8995 34.9859 20.6248H38.7385C38.644 23.5326 37.8911 26.3262 36.5491 28.8327ZM19.375 34.9858V38.7383C16.4671 38.6437 13.6735 37.8909 11.167 36.549L13.0493 33.2888C14.9547 34.2894 17.1002 34.892 19.375 34.9858ZM20.625 34.9858C22.8998 34.892 25.0453 34.2894 26.9507 33.2888L28.833 36.549C26.3265 37.8909 23.5329 38.6437 20.625 38.7383V34.9858ZM20 33.7498C12.4182 33.7498 6.25 27.5816 6.25 19.9998C6.25 12.418 12.4182 6.24976 20 6.24976C27.5818 6.24976 33.75 12.418 33.75 19.9998C33.75 27.5816 27.5818 33.7498 20 33.7498ZM1.26141 20.6248H5.01398C5.10773 22.8996 5.71031 25.0451 6.71094 26.9505L3.45078 28.8327C2.10891 26.3262 1.35602 23.5326 1.26141 20.6248ZM3.45086 11.1668L6.71102 13.0491C5.71031 14.9544 5.10773 17.0999 5.01398 19.3748H1.26141C1.35602 16.4669 2.10891 13.6733 3.45086 11.1668ZM20.625 5.01374V1.26116C23.5329 1.35577 26.3265 2.10858 28.833 3.45054L26.9507 6.71069C25.0453 5.71007 22.8998 5.10749 20.625 5.01374ZM19.375 5.01374C17.1002 5.10749 14.9547 5.71007 13.0493 6.71069L11.167 3.45054C13.6735 2.10866 16.4671 1.35577 19.375 1.26116V5.01374ZM34.986 19.3748C34.8923 17.0999 34.2897 14.9544 33.2891 13.0491L36.5492 11.1668C37.8912 13.6733 38.644 16.4669 38.7387 19.3748H34.986ZM35.9216 10.0858L32.6627 11.9673C31.4777 10.1058 29.8939 8.5221 28.0325 7.3371L29.914 4.07819C31.1122 4.82749 32.2342 5.71749 33.2582 6.74147C34.2823 7.76546 35.1723 8.88757 35.9216 10.0858ZM6.74172 6.74147C7.7657 5.71749 8.88781 4.82741 10.0859 4.07819L11.9674 7.3371C10.1059 8.5221 8.52219 10.1059 7.33727 11.9673L4.07836 10.0858C4.82773 8.88757 5.71773 7.76546 6.74172 6.74147ZM4.07844 29.9137L7.33734 28.0323C8.52234 29.8937 10.1061 31.4774 11.9675 32.6624L10.086 35.9213C8.88781 35.172 7.76578 34.282 6.7418 33.258C5.71773 32.2341 4.82773 31.1119 4.07844 29.9137ZM33.2583 33.258C32.2343 34.282 31.1122 35.1721 29.9141 35.9213L28.0326 32.6624C29.8941 31.4774 31.4777 29.8937 32.6627 28.0323L35.9216 29.9137C35.1723 31.1119 34.2823 32.2341 33.2583 33.258Z" fill="#C94D00"/>
<path d="M28.2891 12.3936C28.4123 12.5279 28.5807 12.5959 28.7496 12.5959C28.9006 12.5959 29.0521 12.5415 29.1721 12.4313C29.4264 12.1979 29.4433 11.8025 29.2098 11.5483C28.9687 11.2857 28.7134 11.0304 28.4509 10.7894C28.1967 10.5561 27.8013 10.5729 27.5679 10.8273C27.3345 11.0816 27.3514 11.4769 27.6057 11.7103C27.842 11.9272 28.072 12.1571 28.2891 12.3936Z" fill="#C94D00"/>
<path d="M8.75 19.9998C8.75 13.7965 13.7967 8.74976 20 8.74976C21.8593 8.74976 23.7013 9.21265 25.3271 10.0883C25.631 10.2519 26.0101 10.1384 26.1738 9.83444C26.3374 9.53054 26.2238 9.15147 25.9198 8.9878C24.1126 8.01429 22.0655 7.49976 20 7.49976C13.1075 7.49976 7.5 13.1073 7.5 19.9998C7.5 22.8704 8.49734 25.6742 10.3084 27.8948C10.432 28.0462 10.6117 28.1248 10.7931 28.1248C10.932 28.1248 11.0717 28.0787 11.1877 27.9841C11.4552 27.7659 11.4952 27.3722 11.2771 27.1047C9.64742 25.1066 8.75 22.5833 8.75 19.9998Z" fill="#C94D00"/>
<path d="M31.0107 14.0775C30.8469 13.7736 30.4678 13.6601 30.1639 13.8238C29.8601 13.9876 29.7465 14.3667 29.9103 14.6706C30.7867 16.2967 31.25 18.1395 31.25 19.9997C31.25 26.203 26.2032 31.2497 20 31.2497C17.4163 31.2497 14.8929 30.3522 12.8948 28.7224C12.6274 28.5043 12.2336 28.5443 12.0154 28.8118C11.7973 29.0793 11.8372 29.473 12.1048 29.6912C14.3253 31.5023 17.1292 32.4997 20 32.4997C26.8925 32.4997 32.5 26.8922 32.5 19.9997C32.5 17.9332 31.985 15.8853 31.0107 14.0775Z" fill="#C94D00"/>
<path d="M20 14.9998C21.1357 14.9998 22.1871 15.5412 22.446 16.2601C22.4819 16.3591 22.5 16.4607 22.5 16.5623C22.5 17.5962 23.3411 18.4373 24.375 18.4373C25.4089 18.4373 26.25 17.5962 26.25 16.5623C26.25 16.0268 26.1571 15.4972 25.9737 14.9881C25.3587 13.281 23.8302 11.9992 21.8358 11.4923C21.6587 10.6412 20.9028 9.99976 20 9.99976C19.099 9.99976 18.3445 10.6386 18.1653 11.4871C17.0035 11.7914 15.9553 12.3851 15.1763 13.1867C14.2566 14.1334 13.75 15.3322 13.75 16.5623C13.75 19.4916 16.5538 21.8748 20 21.8748C21.1801 21.8748 22.5 22.543 22.5 23.4373C22.5 24.3316 21.1801 24.9998 20 24.9998C18.8199 24.9998 17.5 24.3316 17.5 23.4373C17.5 22.4033 16.6589 21.5623 15.625 21.5623C14.5911 21.5623 13.75 22.4033 13.75 23.4373C13.75 24.6673 14.2566 25.8661 15.1763 26.8128C15.9553 27.6145 17.0035 28.2081 18.1653 28.5124C18.3445 29.3609 19.099 29.9998 20 29.9998C20.901 29.9998 21.6555 29.3609 21.8347 28.5124C22.9965 28.2081 24.0447 27.6144 24.8237 26.8128C25.7434 25.8661 26.25 24.6673 26.25 23.4373C26.25 20.508 23.4462 18.1248 20 18.1248C18.8199 18.1248 17.5 17.4566 17.5 16.5623C17.5 15.668 18.8199 14.9998 20 14.9998ZM20 19.3748C22.757 19.3748 25 21.1972 25 23.4373C25 25.3017 23.3738 26.9641 21.1333 27.3901C20.8384 27.4462 20.625 27.7039 20.625 28.0041V28.1248C20.625 28.4694 20.3446 28.7498 20 28.7498C19.6554 28.7498 19.375 28.4694 19.375 28.1248V28.0041C19.375 27.7039 19.1616 27.4461 18.8667 27.3901C16.6262 26.9641 15 25.3017 15 23.4373C15 23.0926 15.2804 22.8123 15.625 22.8123C15.9696 22.8123 16.25 23.0926 16.25 23.4373C16.25 24.9881 17.9323 26.2498 20 26.2498C22.0677 26.2498 23.75 24.9881 23.75 23.4373C23.75 21.8864 22.0677 20.6248 20 20.6248C17.243 20.6248 15 18.8023 15 16.5623C15 14.6978 16.6262 13.0354 18.8667 12.6094C19.1616 12.5534 19.375 12.2956 19.375 11.9955V11.8748C19.375 11.5301 19.6554 11.2498 20 11.2498C20.3446 11.2498 20.625 11.5301 20.625 11.8748V12.003C20.625 12.3041 20.8395 12.5623 21.1354 12.6174C22.8914 12.9449 24.2947 14.0156 24.7977 15.4117C24.932 15.7844 25 16.1716 25 16.5623C25 16.9069 24.7196 17.1873 24.375 17.1873C24.0304 17.1873 23.75 16.9069 23.75 16.5623C23.75 16.3152 23.7067 16.0705 23.6218 15.8356C23.1794 14.6075 21.6901 13.7498 20 13.7498C17.9323 13.7498 16.25 15.0114 16.25 16.5623C16.25 18.1131 17.9323 19.3748 20 19.3748Z" fill="#C94D00"/>
</g>
<defs>
<clipPath id="clip0_4857_465">
<rect width="40" height="40" fill="white" transform="translate(0 -0.000244141)"/>
</clipPath>
</defs>
</svg>
