<svg width="60" height="60" viewBox="0 0 60 60" fill="none" xmlns="http://www.w3.org/2000/svg">
<g clip-path="url(#clip0_4806_1330)">
<path d="M55.8605 3.72404H49.3435V2.79303C49.3435 1.25035 48.0931 0 46.5505 0C45.0078 0 43.7574 1.25035 43.7574 2.79303V3.72404H15.8272V2.79303C15.8272 1.25035 14.5768 0 13.0341 0C11.4914 0 10.2411 1.25035 10.2411 2.79303V3.72404H3.72404C1.66558 3.72404 0 5.38961 0 7.44807V55.8605C0 57.919 1.66558 59.5846 3.72404 59.5846H55.8605C57.919 59.5846 59.5846 57.919 59.5846 55.8605V7.44807C59.5846 5.38961 57.919 3.72404 55.8605 3.72404ZM45.6194 2.79303C45.6194 2.27818 46.0356 1.86202 46.5505 1.86202C47.0653 1.86202 47.4815 2.27818 47.4815 2.79303V5.58605V9.31009C47.4815 9.82494 47.0653 10.2411 46.5505 10.2411C46.0356 10.2411 45.6194 9.82494 45.6194 9.31009V5.58605V2.79303ZM12.1031 2.79303C12.1031 2.27818 12.5193 1.86202 13.0341 1.86202C13.549 1.86202 13.9651 2.27818 13.9651 2.79303V5.58605V9.31009C13.9651 9.82494 13.549 10.2411 13.0341 10.2411C12.5193 10.2411 12.1031 9.82494 12.1031 9.31009V5.58605V2.79303ZM57.7226 55.8605C57.7226 56.8884 56.8884 57.7226 55.8605 57.7226H3.72404C2.6962 57.7226 1.86202 56.8884 1.86202 55.8605V15.8272H57.7226V55.8605ZM57.7226 13.9651H1.86202V7.44807C1.86202 6.42024 2.6962 5.58605 3.72404 5.58605H10.2411V9.31009C10.2411 10.8528 11.4914 12.1031 13.0341 12.1031C14.5768 12.1031 15.8272 10.8528 15.8272 9.31009V5.58605H43.7574V9.31009C43.7574 10.8528 45.0078 12.1031 46.5505 12.1031C48.0931 12.1031 49.3435 10.8528 49.3435 9.31009V5.58605H55.8605C56.8884 5.58605 57.7226 6.42024 57.7226 7.44807V13.9651Z" fill="#C94D00"/>
<path d="M6.93195 21.1418C7.47688 21.1418 7.91862 20.7001 7.91862 20.1551C7.91862 19.6102 7.47688 19.1685 6.93195 19.1685C6.38703 19.1685 5.94528 19.6102 5.94528 20.1551C5.94528 20.7001 6.38703 21.1418 6.93195 21.1418Z" fill="#C94D00"/>
<path d="M10.8789 25.0883C11.4238 25.0883 11.8655 24.6466 11.8655 24.1017C11.8655 23.5567 11.4238 23.115 10.8789 23.115C10.3339 23.115 9.8922 23.5567 9.8922 24.1017C9.8922 24.6466 10.3339 25.0883 10.8789 25.0883Z" fill="#C94D00"/>
<path d="M52.9778 50.7426C53.5228 50.7426 53.9645 50.3009 53.9645 49.756C53.9645 49.211 53.5228 48.7693 52.9778 48.7693C52.4329 48.7693 51.9912 49.211 51.9912 49.756C51.9912 50.3009 52.4329 50.7426 52.9778 50.7426Z" fill="#C94D00"/>
<path d="M21.4729 35.9193L27.6187 42.0464L39.9104 29.7922" stroke="#C94D00" stroke-width="4" stroke-linecap="round" stroke-linejoin="round"/>
</g>
<defs>
<clipPath id="clip0_4806_1330">
<rect width="60" height="60" fill="white"/>
</clipPath>
</defs>
</svg>
