<svg width="20" height="21" viewBox="0 0 20 21" fill="none" xmlns="http://www.w3.org/2000/svg">
<g clip-path="url(#clip0_4762_3902)">
<path d="M3.41385 17.4416H5.27587C5.44749 17.4416 5.58621 17.3029 5.58621 17.1313V15.5796C5.58621 15.408 5.44749 15.2693 5.27587 15.2693H3.41385C3.24224 15.2693 3.10352 15.408 3.10352 15.5796V17.1313C3.10352 17.3029 3.24224 17.4416 3.41385 17.4416ZM3.72419 15.89H4.96553V16.821H3.72419V15.89Z" fill="#C94D00"/>
<path d="M7.13748 17.4416H8.9995C9.17112 17.4416 9.30984 17.3029 9.30984 17.1313V15.5796C9.30984 15.408 9.17112 15.2693 8.9995 15.2693H7.13748C6.96587 15.2693 6.82715 15.408 6.82715 15.5796V17.1313C6.82715 17.3029 6.96587 17.4416 7.13748 17.4416ZM7.44782 15.89H8.68917V16.821H7.44782V15.89Z" fill="#C94D00"/>
<path d="M10.8621 17.4416H12.7241C12.8957 17.4416 13.0344 17.3029 13.0344 17.1313V15.5796C13.0344 15.408 12.8957 15.2693 12.7241 15.2693H10.8621C10.6905 15.2693 10.5518 15.408 10.5518 15.5796V17.1313C10.5518 17.3029 10.6905 17.4416 10.8621 17.4416ZM11.1724 15.89H12.4138V16.821H11.1724V15.89Z" fill="#C94D00"/>
<path d="M3.41385 14.0278H5.27587C5.44749 14.0278 5.58621 13.8891 5.58621 13.7175V12.1658C5.58621 11.9942 5.44749 11.8555 5.27587 11.8555H3.41385C3.24224 11.8555 3.10352 11.9942 3.10352 12.1658V13.7175C3.10352 13.8891 3.24224 14.0278 3.41385 14.0278ZM3.72419 12.4761H4.96553V13.4072H3.72419V12.4761Z" fill="#C94D00"/>
<path d="M7.13748 14.0278H8.9995C9.17112 14.0278 9.30984 13.8891 9.30984 13.7175V12.1658C9.30984 11.9942 9.17112 11.8555 8.9995 11.8555H7.13748C6.96587 11.8555 6.82715 11.9942 6.82715 12.1658V13.7175C6.82715 13.8891 6.96587 14.0278 7.13748 14.0278ZM7.44782 12.4761H8.68917V13.4072H7.44782V12.4761Z" fill="#C94D00"/>
<path d="M10.8621 14.0278H12.7241C12.8957 14.0278 13.0344 13.8891 13.0344 13.7175V12.1658C13.0344 11.9942 12.8957 11.8555 12.7241 11.8555H10.8621C10.6905 11.8555 10.5518 11.9942 10.5518 12.1658V13.7175C10.5518 13.8891 10.6905 14.0278 10.8621 14.0278ZM11.1724 12.4761H12.4138V13.4072H11.1724V12.4761Z" fill="#C94D00"/>
<path d="M14.5857 14.0278H16.4477C16.6194 14.0278 16.7581 13.8891 16.7581 13.7175V12.1658C16.7581 11.9942 16.6194 11.8555 16.4477 11.8555H14.5857C14.4141 11.8555 14.2754 11.9942 14.2754 12.1658V13.7175C14.2754 13.8891 14.4141 14.0278 14.5857 14.0278ZM14.8961 12.4761H16.1374V13.4072H14.8961V12.4761Z" fill="#C94D00"/>
<path d="M3.41385 10.614H5.27587C5.44749 10.614 5.58621 10.4753 5.58621 10.3037V8.75199C5.58621 8.58037 5.44749 8.44165 5.27587 8.44165H3.41385C3.24224 8.44165 3.10352 8.58037 3.10352 8.75199V10.3037C3.10352 10.4753 3.24224 10.614 3.41385 10.614ZM3.72419 9.06232H4.96553V9.99333H3.72419V9.06232Z" fill="#C94D00"/>
<path d="M7.13748 10.614H8.9995C9.17112 10.614 9.30984 10.4753 9.30984 10.3037V8.75199C9.30984 8.58037 9.17112 8.44165 8.9995 8.44165H7.13748C6.96587 8.44165 6.82715 8.58037 6.82715 8.75199V10.3037C6.82715 10.4753 6.96587 10.614 7.13748 10.614ZM7.44782 9.06232H8.68917V9.99333H7.44782V9.06232Z" fill="#C94D00"/>
<path d="M10.8621 10.614H12.7241C12.8957 10.614 13.0344 10.4753 13.0344 10.3037V8.75199C13.0344 8.58037 12.8957 8.44165 12.7241 8.44165H10.8621C10.6905 8.44165 10.5518 8.58037 10.5518 8.75199V10.3037C10.5518 10.4753 10.6905 10.614 10.8621 10.614ZM11.1724 9.06232H12.4138V9.99333H11.1724V9.06232Z" fill="#C94D00"/>
<path d="M14.5857 10.614H16.4477C16.6194 10.614 16.7581 10.4753 16.7581 10.3037V8.75199C16.7581 8.58037 16.6194 8.44165 16.4477 8.44165H14.5857C14.4141 8.44165 14.2754 8.58037 14.2754 8.75199V10.3037C14.2754 10.4753 14.4141 10.614 14.5857 10.614ZM14.8961 9.06232H16.1374V9.99333H14.8961V9.06232Z" fill="#C94D00"/>
<path d="M18.6202 1.9247H16.4478V1.61436C16.4478 1.10013 16.031 0.68335 15.5168 0.68335C15.0026 0.68335 14.5858 1.10013 14.5858 1.61436V1.9247H5.27572V1.61436C5.27572 1.10013 4.85894 0.68335 4.34471 0.68335C3.83048 0.68335 3.4137 1.10013 3.4137 1.61436V1.9247H1.24135C0.555192 1.9247 0 2.47989 0 3.16604V19.3035C0 19.9897 0.555192 20.5449 1.24135 20.5449H18.6202C19.3063 20.5449 19.8615 19.9897 19.8615 19.3035V3.16604C19.8615 2.47989 19.3063 1.9247 18.6202 1.9247ZM15.2065 1.61436C15.2065 1.44274 15.3452 1.30402 15.5168 1.30402C15.6884 1.30402 15.8272 1.44274 15.8272 1.61436V2.54537V3.78671C15.8272 3.95833 15.6884 4.09705 15.5168 4.09705C15.3452 4.09705 15.2065 3.95833 15.2065 3.78671V2.54537V1.61436ZM4.03437 1.61436C4.03437 1.44274 4.17309 1.30402 4.34471 1.30402C4.51633 1.30402 4.65505 1.44274 4.65505 1.61436V2.54537V3.78671C4.65505 3.95833 4.51633 4.09705 4.34471 4.09705C4.17309 4.09705 4.03437 3.95833 4.03437 3.78671V2.54537V1.61436ZM19.2409 19.3035C19.2409 19.6461 18.9628 19.9242 18.6202 19.9242H1.24135C0.898734 19.9242 0.620673 19.6461 0.620673 19.3035V5.95907H19.2409V19.3035ZM19.2409 5.3384H0.620673V3.16604C0.620673 2.82343 0.898734 2.54537 1.24135 2.54537H3.4137V3.78671C3.4137 4.30094 3.83048 4.71772 4.34471 4.71772C4.85894 4.71772 5.27572 4.30094 5.27572 3.78671V2.54537H14.5858V3.78671C14.5858 4.30094 15.0026 4.71772 15.5168 4.71772C16.031 4.71772 16.4478 4.30094 16.4478 3.78671V2.54537H18.6202C18.9628 2.54537 19.2409 2.82343 19.2409 3.16604V5.3384Z" fill="#C94D00"/>
<path d="M2.31034 7.73054C2.49198 7.73054 2.63923 7.58329 2.63923 7.40164C2.63923 7.22 2.49198 7.07275 2.31034 7.07275C2.12869 7.07275 1.98145 7.22 1.98145 7.40164C1.98145 7.58329 2.12869 7.73054 2.31034 7.73054Z" fill="#C94D00"/>
<path d="M3.62674 9.04621C3.80838 9.04621 3.95563 8.89896 3.95563 8.71732C3.95563 8.53568 3.80838 8.38843 3.62674 8.38843C3.4451 8.38843 3.29785 8.53568 3.29785 8.71732C3.29785 8.89896 3.4451 9.04621 3.62674 9.04621Z" fill="#C94D00"/>
<path d="M17.659 17.5975C17.8406 17.5975 17.9879 17.4502 17.9879 17.2686C17.9879 17.0869 17.8406 16.9397 17.659 16.9397C17.4773 16.9397 17.3301 17.0869 17.3301 17.2686C17.3301 17.4502 17.4773 17.5975 17.659 17.5975Z" fill="#C94D00"/>
</g>
<defs>
<clipPath id="clip0_4762_3902">
<rect width="20" height="20" fill="white" transform="translate(0 0.68335)"/>
</clipPath>
</defs>
</svg>
