<svg width="60" height="60" viewBox="0 0 60 60" fill="none" xmlns="http://www.w3.org/2000/svg"><g clip-path="url(#clip0_4670_1359)" fill="#C94D00"><path d="M55.213 10.213H43.559a2.886 2.886 0 00-1.75-1.75V.957A.957.957 0 0040.85 0h-21.7a.957.957 0 00-.957.957v7.506a2.886 2.886 0 00-1.75 1.75H4.786A4.793 4.793 0 000 15v40.213A4.793 4.793 0 004.787 60h50.426A4.793 4.793 0 0060 55.213V15a4.793 4.793 0 00-4.787-4.787zM20.106 1.915h19.788V3.83H20.106V1.915zm0 3.83h19.788v4.468H20.106V5.745zM4.787 58.085a2.876 2.876 0 01-2.872-2.872v-6.657c5.044.457 9.072 4.485 9.529 9.529H4.787zm53.298-2.872a2.876 2.876 0 01-2.872 2.872h-6.657c.457-5.044 4.485-9.072 9.529-9.529v6.657zm0-28.724a2.876 2.876 0 01-2.872 2.873H34.787v-4.787a.957.957 0 00-.957-.958h-7.66a.957.957 0 00-.957.958v11.489A4.792 4.792 0 0030 40.851a4.792 4.792 0 004.787-4.787v-4.787h20.426a4.763 4.763 0 002.872-.96v16.315c-6.101.467-10.986 5.352-11.453 11.453H13.368C12.9 51.984 8.016 47.1 1.915 46.632V30.317c.8.602 1.795.96 2.872.96H22.34a.957.957 0 100-1.915H4.787a2.876 2.876 0 01-2.872-2.873V15a2.876 2.876 0 012.872-2.872h50.426A2.876 2.876 0 0158.085 15v11.49zm-30.957 6.702v-7.66h5.744v7.66h-5.744zm5.744 1.915v.958A2.876 2.876 0 0130 38.936a2.876 2.876 0 01-2.872-2.872v-.958h5.744z"/><path d="M5.745 16.915a.957.957 0 100-1.915.957.957 0 000 1.915zm3.83 3.83a.957.957 0 100-1.915.957.957 0 000 1.915zm40.851 24.893a.957.957 0 100-1.915.957.957 0 000 1.915z"/></g><defs><clipPath id="clip0_4670_1359"><path fill="#fff" d="M0 0h60v60H0z"/></clipPath></defs></svg>