<svg width="40" height="40" viewBox="0 0 40 40" fill="none" xmlns="http://www.w3.org/2000/svg">
<g clip-path="url(#clip0_4857_7892)">
<path d="M22.9435 18.3521C23.2567 18.1789 23.3703 17.7847 23.1971 17.4715C23.024 17.1583 22.6298 17.0449 22.3165 17.2179L21.3925 17.7288C21.0793 17.9019 20.9657 18.2961 21.1389 18.6093C21.2571 18.8232 21.4783 18.9439 21.7066 18.9439C21.8126 18.9439 21.9202 18.9179 22.0195 18.8629L22.9435 18.3521Z" fill="#C94D00"/>
<path d="M35.54 7.76349L22.5818 0.600016C21.134 -0.200371 18.8659 -0.20029 17.4182 0.600016L4.45993 7.76349C3.00041 8.57028 1.85718 10.5086 1.85718 12.1763V27.8232C1.85718 29.4909 3.00041 31.4292 4.45993 32.236L17.4182 39.3995C18.1421 39.7997 19.0708 39.9998 19.9999 39.9998C20.9288 39.9998 21.8579 39.7996 22.5817 39.3995L35.5399 32.236C36.9995 31.4292 38.1427 29.4908 38.1427 27.8232V12.1763C38.1428 10.5086 36.9995 8.57028 35.54 7.76349ZM36.8469 27.8232C36.8469 29.021 35.9613 30.5224 34.913 31.1019L21.9548 38.2654C21.5871 38.4686 21.1307 38.5997 20.648 38.6619V21.2957C20.648 20.9379 20.3578 20.6478 20 20.6478C19.6422 20.6478 19.3521 20.9379 19.3521 21.2957V38.6619C18.8694 38.5997 18.4129 38.4686 18.0452 38.2654L5.08699 31.1019C4.03876 30.5224 3.15317 29.021 3.15317 27.8232V12.1763C3.15317 11.7509 3.26527 11.2873 3.45633 10.8402L17.9689 18.863C18.0683 18.9179 18.1758 18.944 18.2818 18.944C18.51 18.944 18.7312 18.8232 18.8495 18.6094C19.0227 18.2962 18.9091 17.902 18.5959 17.7288L4.12729 9.73044C4.41207 9.38176 4.7405 9.08921 5.08691 8.89765L18.0451 1.73418C18.5749 1.44131 19.2874 1.29487 19.9999 1.29487C20.7124 1.29487 21.425 1.44131 21.9547 1.73418L34.913 8.89765C35.2579 9.08832 35.585 9.37933 35.869 9.72599L24.4993 16.0113C24.1861 16.1845 24.0725 16.5787 24.2457 16.8919C24.3638 17.1057 24.5851 17.2265 24.8134 17.2265C24.9194 17.2265 25.0269 17.2004 25.1262 17.1455L36.5414 10.835C36.7338 11.2838 36.8468 11.7493 36.8468 12.1763V27.8232H36.8469Z" fill="#C94D00"/>
<path d="M35.0031 16.7741C34.6531 16.6999 34.309 16.9235 34.2348 17.2736C34.0106 18.3313 33.3652 19.3522 32.6653 19.7563C32.5115 19.8451 32.2231 19.9767 32.0216 19.8604C31.8483 19.7604 31.6632 19.4359 31.6632 18.825C31.6632 17.601 32.4189 16.1307 33.3134 15.6142C33.4638 15.5273 33.7462 15.3976 33.9471 15.5046C34.2629 15.6729 34.6554 15.5533 34.8236 15.2374C34.9919 14.9216 34.8723 14.5291 34.5565 14.3609C33.9983 14.0635 33.3268 14.1101 32.6653 14.492C31.3766 15.236 30.3672 17.1394 30.3672 18.8251C30.3672 19.8271 30.734 20.6135 31.3735 20.9828C31.6295 21.1306 31.9101 21.2041 32.2039 21.2041C32.5612 21.2041 32.938 21.0953 33.3132 20.8787C34.3233 20.2955 35.2031 18.9548 35.5026 17.5425C35.5768 17.1922 35.3531 16.8483 35.0031 16.7741Z" fill="#C94D00"/>
<path d="M26.5796 31.1225C26.2295 31.0483 25.8856 31.2719 25.8114 31.622C25.5871 32.6797 24.9418 33.7006 24.2419 34.1047C24.088 34.1936 23.7998 34.3253 23.5982 34.2089C23.4248 34.1088 23.2398 33.7843 23.2398 33.1735C23.2398 31.9495 23.9954 30.4792 24.8899 29.9627C25.0404 29.8758 25.3228 29.746 25.5237 29.8531C25.8395 30.0213 26.2321 29.9017 26.4002 29.5859C26.5686 29.2701 26.4489 28.8776 26.133 28.7093C25.575 28.412 24.9034 28.4587 24.242 28.8405C22.9533 29.5845 21.9438 31.4879 21.9438 33.1736C21.9438 34.1756 22.3107 34.962 22.9502 35.3313C23.2061 35.4791 23.4868 35.5526 23.7806 35.5526C24.1379 35.5526 24.5147 35.4438 24.8899 35.2271C25.8999 34.644 26.7798 33.3033 27.0792 31.8909C27.1533 31.5407 26.9297 31.1967 26.5796 31.1225Z" fill="#C94D00"/>
<path d="M30.7916 23.9482C30.4413 23.8739 30.0975 24.0977 30.0233 24.4477C29.7991 25.5054 29.1537 26.5264 28.4538 26.9304C28.2999 27.0192 28.0116 27.151 27.8101 27.0345C27.6367 26.9345 27.4517 26.61 27.4517 25.9992C27.4517 24.7752 28.2074 23.3048 29.1019 22.7884C29.2523 22.7015 29.5347 22.5717 29.7356 22.6787C30.0514 22.847 30.4439 22.7273 30.6122 22.4115C30.7805 22.0957 30.6608 21.7032 30.345 21.535C29.7869 21.2378 29.1153 21.2843 28.4539 21.6661C27.1652 22.4102 26.1558 24.3135 26.1558 25.9993C26.1558 27.0013 26.5226 27.7877 27.1621 28.157C27.4181 28.3048 27.6987 28.3783 27.9925 28.3783C28.3498 28.3783 28.7266 28.2695 29.1018 28.0528C30.1119 27.4696 30.9916 26.1289 31.2911 24.7166C31.3652 24.3664 31.1416 24.0225 30.7916 23.9482Z" fill="#C94D00"/>
<path d="M13.0437 24.548C12.693 24.6188 12.4659 24.9604 12.5366 25.3113C12.5847 25.5493 12.609 25.7807 12.609 25.9993C12.609 26.6101 12.4238 26.9346 12.2506 27.0346C12.0489 27.1511 11.7606 27.0194 11.6067 26.9305C10.7123 26.414 9.95656 24.9437 9.95656 23.7197C9.95656 23.1088 10.1417 22.7844 10.315 22.6842C10.5166 22.5679 10.8048 22.6995 10.9586 22.7883C11.0835 22.8605 11.2098 22.9548 11.3339 23.0686C11.5975 23.3105 12.0075 23.293 12.2494 23.0292C12.4914 22.7656 12.4737 22.3557 12.21 22.1137C12.0163 21.936 11.8134 21.7854 11.6067 21.6661C10.9231 21.2714 10.2342 21.2344 9.667 21.562C9.02747 21.9312 8.66064 22.7177 8.66064 23.7197C8.66064 25.4054 9.67008 27.3088 10.9588 28.0527C11.3339 28.2694 11.7107 28.3782 12.0681 28.3782C12.3618 28.3782 12.6426 28.3046 12.8984 28.1569C13.538 27.7876 13.9048 27.0012 13.9048 25.9992C13.9048 25.6949 13.8718 25.3772 13.807 25.055C13.7363 24.7044 13.395 24.4775 13.0437 24.548Z" fill="#C94D00"/>
<path d="M23.8878 14.1682C23.8878 13.8104 23.5976 13.5203 23.2398 13.5203C22.8902 13.5203 22.6052 13.7973 22.5923 14.1438C22.479 14.3446 21.582 14.8162 20 14.8162C18.4791 14.8162 17.5913 14.3803 17.4244 14.1682C17.5914 13.9562 18.4791 13.5203 20 13.5203C20.4131 13.5203 20.8115 13.5533 21.1842 13.6184C21.5368 13.68 21.8725 13.4441 21.9339 13.0917C21.9956 12.7392 21.7597 12.4034 21.4072 12.3419C20.9611 12.2639 20.4877 12.2244 20 12.2244C19.0542 12.2244 18.1551 12.3757 17.4686 12.6502C16.2885 13.1223 16.1123 13.8039 16.1123 14.1682C16.1123 14.5325 16.2885 15.2142 17.4686 15.6862C18.1552 15.9609 19.0543 16.1121 20 16.1121C20.9458 16.1121 21.8449 15.9608 22.5315 15.6862C23.7115 15.2142 23.8878 14.5325 23.8878 14.1682Z" fill="#C94D00"/>
<path d="M17.4686 11.1505C18.1552 11.4251 19.0543 11.5763 20 11.5763C20.9458 11.5763 21.8449 11.425 22.5315 11.1505C23.7115 10.6784 23.8878 9.99678 23.8878 9.63247C23.8878 9.27463 23.5976 8.98451 23.2398 8.98451C22.8902 8.98451 22.6052 9.26151 22.5923 9.608C22.479 9.80879 21.582 10.2804 20 10.2804C18.4791 10.2804 17.5913 9.84451 17.4244 9.63247C17.5914 9.42042 18.4791 8.98451 20 8.98451C20.4131 8.98451 20.8115 9.01756 21.1842 9.08259C21.5368 9.14431 21.8725 8.90837 21.9339 8.55589C21.9956 8.2034 21.7597 7.86768 21.4072 7.80612C20.9611 7.72812 20.4877 7.6886 20 7.6886C19.0542 7.6886 18.1551 7.8399 17.4686 8.11447C16.2885 8.5865 16.1123 9.26815 16.1123 9.63247C16.1123 9.99678 16.2885 10.6785 17.4686 11.1505Z" fill="#C94D00"/>
<path d="M25.8919 11.1505C26.5786 11.4251 27.4776 11.5763 28.4234 11.5763C29.3692 11.5763 30.2683 11.425 30.9549 11.1505C32.1349 10.6784 32.3111 9.99678 32.3111 9.63247C32.3111 9.27463 32.021 8.98451 31.6632 8.98451C31.3135 8.98451 31.0286 9.26151 31.0156 9.608C30.9024 9.80879 30.0054 10.2804 28.4234 10.2804C26.9025 10.2804 26.0147 9.84451 25.8478 9.63247C26.0148 9.42042 26.9025 8.98451 28.4234 8.98451C28.8365 8.98451 29.2349 9.01756 29.6075 9.08259C29.9602 9.14431 30.2957 8.90837 30.3573 8.55589C30.4189 8.2034 30.1831 7.86768 29.8306 7.80612C29.3845 7.72812 28.911 7.6886 28.4234 7.6886C27.4775 7.6886 26.5785 7.8399 25.8919 8.11447C24.7119 8.5865 24.5356 9.26815 24.5356 9.63247C24.5356 9.99678 24.7119 10.6785 25.8919 11.1505Z" fill="#C94D00"/>
<path d="M14.8165 8.98451C14.4668 8.98451 14.1819 9.26151 14.1689 9.608C14.0557 9.80879 13.1587 10.2804 11.5767 10.2804C10.0558 10.2804 9.168 9.84451 9.00107 9.63247C9.16809 9.42042 10.0558 8.98451 11.5767 8.98451C11.9898 8.98451 12.3882 9.01756 12.7608 9.08259C13.1132 9.14431 13.449 8.90837 13.5106 8.55589C13.5722 8.2034 13.3364 7.86768 12.9839 7.80612C12.5378 7.72812 12.0644 7.6886 11.5767 7.6886C10.6308 7.6886 9.73181 7.8399 9.04522 8.11447C7.86521 8.5865 7.68896 9.26815 7.68896 9.63247C7.68896 9.99678 7.86513 10.6784 9.04522 11.1505C9.73189 11.4251 10.6309 11.5763 11.5767 11.5763C12.5225 11.5763 13.4216 11.425 14.1082 11.1505C15.2882 10.6784 15.4644 9.99678 15.4644 9.63247C15.4644 9.27455 15.1743 8.98451 14.8165 8.98451Z" fill="#C94D00"/>
<path d="M17.4686 6.6147C18.1552 6.88935 19.0543 7.04057 20 7.04057C20.9458 7.04057 21.8449 6.88927 22.5315 6.6147C23.7115 6.14266 23.8878 5.46101 23.8878 5.0967C23.8878 4.73887 23.5976 4.44874 23.2398 4.44874C22.8902 4.44874 22.6052 4.72574 22.5923 5.07224C22.479 5.27302 21.582 5.74465 20 5.74465C18.4791 5.74465 17.5913 5.30874 17.4244 5.0967C17.5914 4.88466 18.4791 4.44874 20 4.44874C20.4131 4.44874 20.8115 4.48179 21.1842 4.54683C21.5368 4.60855 21.8725 4.37261 21.9339 4.02012C21.9956 3.66763 21.7597 3.33191 21.4072 3.27035C20.9611 3.19236 20.4877 3.15283 20 3.15283C19.0542 3.15283 18.1551 3.30413 17.4686 3.5787C16.2885 4.05074 16.1123 4.73239 16.1123 5.0967C16.1123 5.46101 16.2885 6.14274 17.4686 6.6147Z" fill="#C94D00"/>
</g>
<defs>
<clipPath id="clip0_4857_7892">
<rect width="40" height="40" fill="white" transform="translate(0 -0.000244141)"/>
</clipPath>
</defs>
</svg>
