<svg width="60" height="60" viewBox="0 0 60 60" fill="none" xmlns="http://www.w3.org/2000/svg">
<g clip-path="url(#clip0_4681_7203)">
<path d="M61.0475 38.0683L52.9429 20.0649L44.1577 24.009L44.7455 25.3237C42.874 25.9269 40.8169 26.0661 38.7289 25.7258C37.3678 25.5093 35.9913 25.5093 34.6457 25.7258C33.5784 25.8959 32.5112 26.2207 31.5059 26.6693C31.0419 26.8703 30.5933 27.1178 30.1448 27.3962L26.2317 29.3141C25.6285 29.2058 25.0253 29.1285 24.4221 29.0976C22.2877 29.0048 20.277 28.448 18.5447 27.4735L19.3799 26.329L11.5382 20.6836L0 36.7072L7.81074 42.3371L8.64595 41.1926C10.1308 42.5227 11.2908 44.255 12.0486 46.2502C12.1105 46.4204 12.1724 46.5751 12.2497 46.7452L11.2598 48.1063C10.27 49.4828 10.5793 51.4162 11.9558 52.406C12.3889 52.7154 12.8993 52.9164 13.4097 52.9628C13.4097 53.1175 13.4252 53.2722 13.4407 53.4268C13.5799 54.2311 14.0129 54.9426 14.678 55.4375C15.2039 55.8242 15.838 56.0253 16.4722 56.0253C16.565 56.0253 16.6423 56.0253 16.7351 56.0098C16.9052 56.6903 17.3074 57.3245 17.926 57.773C18.4674 58.1597 19.1015 58.3608 19.7202 58.3608C20.045 58.3608 20.3698 58.3144 20.6791 58.2061C20.8957 58.6856 21.2359 59.1032 21.669 59.4125C22.1949 59.7992 22.829 60.0002 23.4632 60.0002C23.6333 60.0002 23.8034 59.9848 23.9581 59.9538C24.7778 59.8146 25.4893 59.3816 25.9688 58.7165L26.5874 57.8504L29.5416 59.5517C30.0675 59.861 30.6552 60.0002 31.212 60.0002C32.1246 60.0002 33.0062 59.629 33.6248 58.9176C33.9651 58.5154 34.2126 58.0514 34.3363 57.541C34.9395 57.7421 35.5737 57.7885 36.2233 57.6802C37.275 57.5101 38.1876 56.9378 38.8062 56.0717C39.2084 55.4994 39.4713 54.8343 39.5332 54.1538C39.5641 53.8445 39.5641 53.5351 39.5177 53.2412C40.6004 53.1794 41.6367 52.6999 42.3481 51.8338C42.9513 51.1068 43.2607 50.2252 43.2607 49.2972C43.4772 49.3127 43.7092 49.2972 43.9412 49.2508C44.7919 49.1116 45.5343 48.6476 46.0292 47.9516C46.4468 47.3639 46.7098 46.6833 46.7871 45.9564C46.7871 45.9254 46.7871 45.879 46.8026 45.8481C47.0191 45.5697 47.2202 45.2758 47.4058 44.982C48.5348 43.1878 50.0042 41.7494 51.6901 40.7441L52.2623 41.9969L61.0475 38.0683ZM58.1861 36.9702L53.3605 39.1355L47.0346 25.0762L51.8602 22.9108L58.1861 36.9702ZM12.0332 23.7151L16.333 26.8085L7.67154 38.8107L7.3158 39.3057L3.01603 36.2123L12.0332 23.7151ZM13.0231 49.3745L14.3687 47.5031L14.446 47.3948C14.5852 47.1937 14.8017 47.07 15.0337 47.0236C15.0801 47.0236 15.1265 47.0081 15.1575 47.0081C15.1729 47.0081 15.1729 47.0081 15.1884 47.0081C15.2348 47.0081 15.2657 47.0081 15.3121 47.0236C15.3276 47.0236 15.3276 47.0236 15.3431 47.0236C15.374 47.0236 15.4049 47.0391 15.4513 47.0545C15.4513 47.0545 15.4668 47.0545 15.4823 47.0545C15.5132 47.07 15.5596 47.0855 15.5905 47.1009C15.606 47.1009 15.606 47.1164 15.6215 47.1164C15.6524 47.1319 15.6988 47.1628 15.7297 47.1783C15.8225 47.2556 15.9153 47.3329 15.9772 47.4412C16.0545 47.5804 16.1009 47.7351 16.1164 47.8897C16.1164 47.9361 16.1164 47.9671 16.1164 48.0135C16.1164 48.0599 16.1009 48.1063 16.0855 48.1372C16.07 48.2145 16.0391 48.2764 16.0081 48.3383C15.9927 48.3692 15.9617 48.4001 15.9463 48.4465L14.5233 50.4263C14.3841 50.6274 14.1676 50.7511 13.9356 50.7975C13.6881 50.8439 13.4561 50.782 13.2551 50.6428C12.822 50.349 12.7292 49.7767 13.0231 49.3745ZM15.9617 53.6898C15.7607 53.5506 15.6369 53.334 15.5905 53.102C15.5441 52.8546 15.606 52.6226 15.7452 52.4215L18.9314 47.998C19.0706 47.7969 19.2871 47.6732 19.5191 47.6268C19.5655 47.6268 19.6119 47.6113 19.6583 47.6113C19.6738 47.6113 19.6738 47.6113 19.6892 47.6113C19.7356 47.6113 19.7666 47.6113 19.813 47.6268C19.8285 47.6268 19.8285 47.6268 19.8285 47.6268C19.8594 47.6268 19.9058 47.6423 19.9367 47.6577H19.9522C19.9986 47.6732 20.0295 47.6887 20.0605 47.7041C20.0759 47.7041 20.0759 47.7196 20.0914 47.7196C20.1223 47.7351 20.1687 47.766 20.1997 47.7815C20.4626 47.9671 20.6018 48.2919 20.5709 48.6167C20.5709 48.6631 20.5554 48.694 20.5554 48.7404C20.5554 48.7559 20.5399 48.7713 20.5399 48.7868C20.5399 48.8023 20.5245 48.8332 20.5245 48.8487C20.5245 48.8641 20.509 48.8796 20.509 48.8951C20.4935 48.9105 20.4935 48.9415 20.4781 48.9569C20.4626 48.9724 20.4471 48.9879 20.4471 49.0188C20.4317 49.0343 20.4317 49.0497 20.4162 49.0652L17.23 53.4887C17.0908 53.6898 16.8743 53.8135 16.6423 53.8599C16.3948 53.8909 16.1473 53.829 15.9617 53.6898ZM19.1943 56.0253C18.7922 55.7314 18.6994 55.1591 18.9932 54.757L22.1794 50.3335C22.2103 50.2871 22.2413 50.2562 22.2877 50.2098C22.3031 50.1943 22.3031 50.1943 22.3186 50.1788C22.3495 50.1479 22.3959 50.117 22.4423 50.086C22.4578 50.086 22.4578 50.0705 22.4733 50.0705C22.5197 50.0551 22.5506 50.0241 22.597 50.0087C22.6125 50.0087 22.6125 50.0087 22.6125 49.9932C22.6589 49.9777 22.7053 49.9623 22.7671 49.9468C22.7826 49.9468 22.7981 49.9468 22.8135 49.9313C22.829 49.9313 22.829 49.9313 22.8445 49.9313C22.8754 49.9313 22.9063 49.9313 22.9218 49.9313H22.9373C22.9837 49.9313 23.0301 49.9313 23.0765 49.9468C23.1229 49.9468 23.1693 49.9623 23.2002 49.9778C23.2002 49.9778 23.2002 49.9778 23.2157 49.9778C23.2621 49.9932 23.293 50.0087 23.3394 50.0242C23.3394 50.0242 23.3549 50.0242 23.3549 50.0396C23.3858 50.0551 23.4322 50.086 23.4632 50.1015C23.6333 50.2252 23.7416 50.3954 23.8034 50.581C23.8344 50.6892 23.8498 50.813 23.8344 50.9367C23.8189 51.0914 23.757 51.246 23.6642 51.3852L20.4781 55.8087C20.1687 56.2263 19.6119 56.3191 19.1943 56.0253ZM23.6178 57.804C23.3704 57.8504 23.1383 57.7885 22.9373 57.6493C22.7362 57.5101 22.6125 57.2936 22.5661 57.0615C22.5197 56.8141 22.5815 56.5821 22.7207 56.381L24.1437 54.4013C24.1746 54.3703 24.1901 54.3394 24.221 54.3085C24.2365 54.293 24.252 54.2775 24.2674 54.2621C24.2984 54.2311 24.3293 54.2157 24.3602 54.1847C24.3757 54.1693 24.3912 54.1538 24.4066 54.1538C24.4376 54.1383 24.484 54.1229 24.5149 54.1074C24.5304 54.0919 24.5458 54.0919 24.5613 54.0765C24.6232 54.061 24.6696 54.0455 24.7314 54.0301C24.7778 54.0301 24.8242 54.0146 24.8552 54.0146C24.8706 54.0146 24.8706 54.0146 24.8861 54.0146C24.9325 54.0146 24.9634 54.0146 25.0098 54.0301C25.0253 54.0301 25.0253 54.0301 25.0408 54.0301C25.0717 54.0301 25.1026 54.0455 25.149 54.061H25.1645C25.1954 54.0765 25.2418 54.0919 25.2728 54.1074C25.2882 54.1074 25.2882 54.1229 25.3037 54.1229C25.3346 54.1383 25.381 54.1693 25.412 54.1847C25.6749 54.3703 25.8141 54.6951 25.7832 55.0199C25.7677 55.1746 25.7058 55.3293 25.613 55.4685L24.221 57.4482C24.0664 57.6338 23.8653 57.773 23.6178 57.804ZM44.6372 45.7553C44.6063 46.0956 44.4825 46.4204 44.2815 46.6988C44.1113 46.9308 43.8793 47.07 43.6009 47.1164C43.3225 47.1628 43.0441 47.1009 42.8276 46.9308L41.6212 46.0646L39.2548 44.3633C38.7753 44.0076 38.0948 44.1313 37.739 44.6108C37.3833 45.0902 37.507 45.7708 37.9865 46.1265L40.3529 47.8279C40.7705 48.1217 41.018 48.5703 41.0953 49.0652C41.1572 49.5601 41.018 50.0551 40.6932 50.4572C40.1054 51.1842 38.9609 51.2924 38.1566 50.7202L37.9246 50.55L37.9092 50.5346L34.9859 48.4311C34.5065 48.0753 33.8259 48.1991 33.4702 48.6785C33.1144 49.158 33.2382 49.8385 33.7176 50.1943L36.6409 52.2978C37.1513 52.669 37.4297 53.3031 37.3678 53.9527C37.3369 54.2775 37.2286 54.5714 37.043 54.8189C36.7646 55.2055 36.347 55.4685 35.8675 55.5458C35.3881 55.6231 34.9086 55.5149 34.5219 55.221L33.099 54.2002C33.099 54.2002 33.0835 54.2002 33.0835 54.1847L30.3149 52.1895C29.8355 51.8338 29.1549 51.9575 28.7992 52.437C28.4435 52.9164 28.5672 53.597 29.0467 53.9527L31.8152 55.9479C32.0472 56.1181 32.2019 56.381 32.2328 56.6749C32.2638 56.9687 32.171 57.2626 31.9854 57.4946C31.6606 57.8658 31.0728 57.9432 30.6088 57.6648L27.7784 56.0253C27.7939 55.9943 27.8093 55.9479 27.8093 55.917C27.8248 55.8861 27.8248 55.8551 27.8403 55.8397C27.8557 55.8087 27.8557 55.7623 27.8712 55.7314C27.8712 55.7005 27.8867 55.685 27.8867 55.6541C27.9021 55.6077 27.9021 55.5613 27.9176 55.5303C27.9176 55.4994 27.9331 55.4839 27.9331 55.453C27.9485 55.3911 27.9485 55.3138 27.964 55.2519C28.0723 54.1538 27.5928 53.0866 26.6957 52.437C26.6184 52.3751 26.541 52.3287 26.4637 52.2823C26.4328 52.2668 26.4173 52.2514 26.3864 52.2359C26.3245 52.205 26.2781 52.174 26.2162 52.1431C26.1853 52.1276 26.1544 52.1122 26.1234 52.0967C26.077 52.0812 26.0152 52.0503 25.9533 52.0348C25.9224 52.0194 25.8914 52.0039 25.845 52.0039C25.8296 52.0039 25.7986 51.9884 25.7832 51.9884V51.973C25.7986 51.942 25.8141 51.8956 25.8296 51.8492C25.845 51.8183 25.845 51.8028 25.8605 51.7719C25.876 51.7255 25.8914 51.6946 25.8914 51.6482C25.8914 51.6172 25.9069 51.6018 25.9069 51.5708C25.9224 51.5244 25.9224 51.478 25.9378 51.4316C25.9378 51.4162 25.9533 51.3852 25.9533 51.3698C25.9688 51.3079 25.9688 51.2306 25.9842 51.1687C26.0925 50.1479 25.6749 49.1425 24.8861 48.4929C24.8397 48.4465 24.7778 48.4001 24.7314 48.3692C24.6541 48.3073 24.5613 48.2609 24.484 48.2145C24.453 48.1991 24.4376 48.1836 24.4066 48.1681C24.3448 48.1372 24.2829 48.1063 24.221 48.0753C24.1901 48.0599 24.1592 48.0444 24.1437 48.0444C24.0818 48.0135 24.02 47.998 23.9426 47.9671C23.9117 47.9516 23.8962 47.9516 23.8653 47.9361C23.788 47.9207 23.7261 47.8897 23.6488 47.8743C23.6333 47.8743 23.6024 47.8588 23.5869 47.8588C23.5096 47.8433 23.4322 47.8279 23.3549 47.8124C23.3394 47.8124 23.324 47.8124 23.3085 47.8124C23.2311 47.7969 23.1383 47.7969 23.061 47.7969C23.0455 47.7969 23.0301 47.7969 23.0301 47.7969C22.9373 47.7969 22.8445 47.7969 22.7671 47.7969H22.7517C22.7362 47.7969 22.7207 47.7969 22.7053 47.7969C22.7053 47.7815 22.6898 47.766 22.6898 47.7505C22.6743 47.6887 22.6589 47.6268 22.6434 47.5649C22.6434 47.534 22.6279 47.5185 22.6125 47.4876C22.597 47.4257 22.5661 47.3639 22.5351 47.302C22.5351 47.2865 22.5197 47.2711 22.5197 47.2711C22.4887 47.1937 22.4578 47.1319 22.4114 47.0545C22.3959 47.0391 22.3959 47.0236 22.3805 46.9927C22.3495 46.9463 22.3186 46.8844 22.2877 46.838C22.2722 46.8225 22.2567 46.7916 22.2413 46.7761C22.1949 46.7143 22.1639 46.6524 22.1175 46.606L22.1021 46.5905C22.0557 46.5286 21.9938 46.4668 21.9474 46.4049C21.9319 46.3895 21.9165 46.374 21.901 46.3585C21.8546 46.3121 21.8082 46.2657 21.7618 46.2348C21.7463 46.2193 21.7309 46.2039 21.6999 46.1884C21.6381 46.142 21.5762 46.0801 21.4989 46.0337C20.8338 45.5542 20.0141 45.3532 19.2098 45.4924C19.117 45.5078 19.0242 45.5233 18.9468 45.5542C18.9314 45.5542 18.9004 45.5697 18.885 45.5697C18.8076 45.5852 18.7303 45.6161 18.653 45.647C18.6375 45.647 18.6375 45.647 18.622 45.6625C18.5447 45.6934 18.4519 45.7244 18.3746 45.7708C18.3591 45.7862 18.3282 45.7862 18.3127 45.8017C18.2508 45.8326 18.1735 45.879 18.1116 45.91C18.0962 45.91 18.0807 45.9254 18.0807 45.9254C18.0034 45.9718 17.926 46.0182 17.8642 46.0801C17.8487 46.0956 17.8332 46.111 17.8178 46.1265C17.7868 46.142 17.7714 46.1729 17.7404 46.1884C17.694 46.1265 17.6476 46.0646 17.6012 46.0028C17.5858 45.9873 17.5703 45.9718 17.5548 45.9564C17.5239 45.91 17.4775 45.8636 17.4466 45.8326C17.4311 45.8172 17.4156 45.8017 17.3847 45.7708C17.3383 45.7244 17.3074 45.6934 17.261 45.6625C17.2455 45.647 17.23 45.6316 17.1991 45.6161C17.1372 45.5697 17.0754 45.5233 17.0135 45.4769C16.3484 44.9974 15.5287 44.7964 14.7244 44.9356C14.6316 44.951 14.5388 44.9665 14.4615 44.9974C14.446 44.9974 14.4151 45.0129 14.3996 45.0129C14.3068 45.0438 14.2295 45.0593 14.1367 45.0902H14.1212C14.0593 45.1057 14.0129 45.1366 13.9511 45.1521C13.0385 42.9094 11.662 40.9606 9.92969 39.4603L17.2764 29.2677C18.7303 30.1338 20.3543 30.737 22.0866 31.0464L21.1586 40.1873C21.0194 41.5638 22.0247 42.7857 23.3858 42.9249C24.6696 43.0486 25.9069 42.6774 26.8968 41.8731C27.8867 41.0689 28.5053 39.9089 28.6445 38.6406L28.892 36.2432C30.1448 36.1968 31.3667 35.8256 32.4494 35.1915L43.9103 44.0385C43.9876 44.1004 44.034 44.1468 44.0649 44.1777L44.0804 44.1932C44.0959 44.2086 44.1268 44.2396 44.1423 44.255L44.1732 44.286C44.1887 44.3014 44.1887 44.3169 44.2041 44.3169L44.2351 44.3478C44.2505 44.3633 44.266 44.3788 44.2815 44.3942L44.3743 44.5334C44.4207 44.5953 44.4516 44.6572 44.4671 44.7036L44.4825 44.7345C44.498 44.7654 44.498 44.7809 44.5135 44.8118C44.5289 44.8428 44.5444 44.8737 44.5444 44.9046C44.5599 44.9356 44.5599 44.9665 44.5753 44.9974L44.6063 45.0902C44.6217 45.1676 44.6372 45.2449 44.6527 45.3068V45.3377C44.6527 45.3686 44.6527 45.3996 44.6681 45.4305V45.446V45.5233C44.6527 45.5852 44.6527 45.678 44.6372 45.7553ZM46.0447 43.1414L46.0292 43.1105C46.0138 43.095 46.0138 43.095 45.9983 43.0796C45.9674 43.0332 45.9364 43.0022 45.9055 42.9713C45.9055 42.9713 45.9055 42.9713 45.89 42.9558C45.8746 42.9403 45.8591 42.9249 45.8436 42.894C45.8282 42.8785 45.8282 42.8785 45.8127 42.863C45.7972 42.8321 45.7663 42.8166 45.7508 42.7857L45.7354 42.7702C45.7044 42.7393 45.689 42.7238 45.658 42.6929C45.6271 42.662 45.6116 42.631 45.5807 42.6155C45.4724 42.5073 45.3642 42.4145 45.2095 42.2907L32.4648 32.4539L31.7998 32.9488C30.7016 33.7685 29.356 34.1552 27.9795 34.016L26.8968 33.9077L26.4482 38.3776C26.3709 39.0737 26.0306 39.7078 25.4893 40.1563C24.948 40.6049 24.252 40.8059 23.5559 40.7286C23.3703 40.7131 23.2466 40.543 23.2621 40.3729L24.0354 32.7787L29.5725 30.0565L31.1038 29.2986L31.1966 29.2522C31.5987 29.0048 31.9854 28.8037 32.372 28.6336C33.2072 28.2623 34.0888 27.9839 34.9705 27.8447C36.0841 27.6591 37.2286 27.6591 38.3577 27.8447C40.8633 28.2624 43.3535 28.0613 45.6116 27.3034L50.7621 38.7643C48.9525 39.8161 47.3284 41.3009 46.0447 43.1414Z" fill="#C94D00"/>
<path d="M54.5511 37.6813C54.613 37.6813 54.6594 37.6968 54.7212 37.6968C55.0924 37.6968 55.4482 37.573 55.7266 37.341C56.0514 37.0626 56.2679 36.6914 56.3143 36.2584C56.4071 35.3768 55.7575 34.588 54.8759 34.4952C53.9943 34.4024 53.2055 35.052 53.1127 35.9336C53.0354 36.8152 53.685 37.604 54.5511 37.6813ZM54.1954 36.0418C54.2263 35.7789 54.4428 35.5778 54.7058 35.5778C54.7212 35.5778 54.7367 35.5778 54.7522 35.5778C54.8914 35.5933 55.0151 35.6552 55.1079 35.7634C55.2007 35.8717 55.2316 36.0109 55.2162 36.1501C55.2007 36.2893 55.1388 36.413 55.0306 36.5058C54.9223 36.5986 54.7831 36.6296 54.6439 36.6141C54.381 36.5832 54.1799 36.3202 54.1954 36.0418Z" fill="#C94D00"/>
<path d="M8.02757 35.9801C8.12037 35.0984 7.47076 34.3096 6.58915 34.2168C5.70755 34.124 4.91874 34.7736 4.82594 35.6553C4.77954 36.0883 4.90327 36.5059 5.18167 36.8307C5.46008 37.1555 5.83128 37.3721 6.26435 37.4185C6.32622 37.4185 6.37262 37.4339 6.43449 37.4339C7.25423 37.4185 7.95023 36.8153 8.02757 35.9801ZM6.03235 36.1502C5.93955 36.0419 5.90861 35.9027 5.92408 35.7635C5.95501 35.5006 6.17155 35.2995 6.43449 35.2995C6.44995 35.2995 6.46542 35.2995 6.48089 35.2995C6.75929 35.3304 6.97582 35.5779 6.94489 35.8718C6.91396 36.1502 6.66649 36.3667 6.37262 36.3358C6.24888 36.3203 6.12515 36.2585 6.03235 36.1502Z" fill="#C94D00"/>
<path d="M28.8148 18.843C33.7178 18.843 37.7082 14.8525 37.7082 9.94957C37.7082 5.04659 33.7178 1.05615 28.8148 1.05615C23.9118 1.05615 19.9214 5.04659 19.9214 9.94957C19.9214 14.8525 23.9118 18.843 28.8148 18.843ZM28.8148 3.23697C32.5268 3.23697 35.5429 6.253 35.5429 9.96503C35.5429 13.6771 32.5268 16.6931 28.8148 16.6931C25.1028 16.6931 22.0867 13.6771 22.0867 9.96503C22.0867 6.253 25.1028 3.23697 28.8148 3.23697Z" fill="#C94D00"/>
<path d="M27.1598 12.3625C27.3145 12.5326 27.5155 12.6718 27.7475 12.7801C27.9795 12.8884 28.2579 12.9657 28.5673 12.9966V13.3988C28.5673 13.5225 28.5828 13.6153 28.6292 13.6772C28.6756 13.7391 28.7374 13.77 28.8302 13.77C28.9385 13.77 29.0004 13.739 29.0313 13.6617C29.0622 13.5844 29.0777 13.4761 29.0777 13.3214V13.0121C29.4644 12.9812 29.7892 12.8729 30.0676 12.7028C30.346 12.5326 30.5625 12.3161 30.7017 12.0532C30.8409 11.7902 30.9182 11.4964 30.9182 11.187C30.9182 10.9396 30.8718 10.723 30.779 10.5065C30.6862 10.3054 30.5625 10.1198 30.3924 9.98062C30.2377 9.84141 30.0521 9.73315 29.8665 9.65581C29.6654 9.57848 29.4025 9.50115 29.0622 9.40834V7.73793C29.4025 7.8462 29.619 8.0782 29.6964 8.403C29.7737 8.6814 29.9438 8.83607 30.2068 8.83607C30.346 8.83607 30.4697 8.78967 30.5625 8.6814C30.6553 8.57314 30.7172 8.46487 30.7172 8.32567C30.7172 8.20193 30.6862 8.0782 30.6244 7.92353C30.5625 7.78433 30.4697 7.62966 30.346 7.50593C30.1913 7.32032 30.0057 7.19659 29.8046 7.10379C29.6036 7.01099 29.3561 6.94912 29.0622 6.93366V6.50058C29.0622 6.28405 28.9694 6.17578 28.7993 6.17578C28.6292 6.17578 28.5518 6.28405 28.5518 6.51605V6.94912C27.995 6.99552 27.5774 7.16566 27.2681 7.45953C26.9587 7.7534 26.8505 8.10913 26.8505 8.57314C26.8505 8.92887 26.9278 9.22274 27.0825 9.43928C27.2371 9.67128 27.4227 9.84141 27.6702 9.96515C27.9177 10.0889 28.2115 10.1972 28.5673 10.3054V12.1769C28.3817 12.1305 28.2425 12.0532 28.1342 11.9604C28.0259 11.8676 27.9486 11.7593 27.8867 11.6356C27.8249 11.5118 27.763 11.3572 27.7011 11.1252C27.6702 11.0169 27.6083 10.9396 27.531 10.8932C27.4537 10.8313 27.3454 10.8158 27.2217 10.8158C27.067 10.8158 26.9433 10.8622 26.8505 10.9705C26.7577 11.0788 26.6958 11.187 26.6958 11.3262C26.6958 11.4964 26.7267 11.682 26.8041 11.8676C26.8814 12.0222 27.0051 12.1924 27.1598 12.3625ZM29.0777 10.4446C29.3561 10.5374 29.5726 10.6457 29.7118 10.7694C29.851 10.8932 29.9284 11.0788 29.9284 11.3108C29.9284 11.5273 29.851 11.7129 29.7118 11.883C29.5572 12.0532 29.3561 12.1614 29.0777 12.2078V10.4446ZM28.0259 8.95981C27.9022 8.85154 27.8558 8.69687 27.8558 8.48034C27.8558 8.2638 27.9177 8.09366 28.0414 7.9854C28.1651 7.87713 28.3508 7.78433 28.5673 7.72246V9.26914C28.3353 9.16088 28.1497 9.06807 28.0259 8.95981Z" fill="#C94D00"/>
</g>
<defs>
<clipPath id="clip0_4681_7203">
<rect width="60" height="60" fill="white"/>
</clipPath>
</defs>
</svg>
