<svg width="60" height="60" viewBox="0 0 60 60" fill="none" xmlns="http://www.w3.org/2000/svg"><path d="M56.054 5.01H13.967a3.95 3.95 0 00-3.946 3.946v12.088H3.946A3.95 3.95 0 000 24.99v26.054a3.95 3.95 0 003.946 3.946h42.087a3.95 3.95 0 003.946-3.946V38.956h6.075A3.95 3.95 0 0060 35.01V8.957a3.95 3.95 0 00-3.946-3.945zM48.1 51.044a2.07 2.07 0 01-2.067 2.067H3.946a2.07 2.07 0 01-2.067-2.067V24.99a2.07 2.07 0 012.067-2.067h42.087A2.07 2.07 0 0148.1 24.99v26.054zM58.121 35.01a2.07 2.07 0 01-2.067 2.066H49.98V24.99a3.95 3.95 0 00-3.946-3.946H11.9V16.91h46.22v18.1zm0-19.98H11.9v-4.133h46.22v4.133zm0-6.012H11.9v-.063a2.07 2.07 0 012.067-2.067h42.087a2.07 2.07 0 012.067 2.067v.063z" fill="#C94D00"/><path d="M12.965 39.081H6.952a.94.94 0 000 1.88h6.013a.94.94 0 100-1.88zm14.029 4.009H24.99a.94.94 0 000 1.879h2.004a.94.94 0 000-1.88zm6.012 0h-2.004a.94.94 0 000 1.879h2.004a.94.94 0 000-1.88zm-10.021-4.009h-6.012a.94.94 0 000 1.88h6.012a.94.94 0 000-1.88zm10.021 0h-6.012a.94.94 0 000 1.88h6.012a.94.94 0 000-1.88zm-19.039 8.017H6.952a.94.94 0 000 1.88h7.015a.94.94 0 000-1.88zm9.019 0h-5.01a.94.94 0 000 1.88h5.01a.94.94 0 000-1.88zm20.041-8.017h-6.012a.94.94 0 000 1.88h6.012a.94.94 0 000-1.88zM12.965 29.06H8.956a2.947 2.947 0 00-2.943 2.944v2.004a2.947 2.947 0 002.943 2.944h4.009a2.947 2.947 0 002.943-2.944v-2.004a2.947 2.947 0 00-2.943-2.943zm1.064 4.948c0 .587-.477 1.065-1.064 1.065H8.956a1.066 1.066 0 01-1.064-1.065v-2.004c0-.587.477-1.064 1.064-1.064h4.009c.587 0 1.065.477 1.065 1.064v2.004zm25.991-7.954c-.913 0-1.769.25-2.505.684a4.916 4.916 0 00-2.505-.684 4.953 4.953 0 00-4.947 4.948 4.954 4.954 0 004.947 4.948c.914 0 1.77-.25 2.506-.684a4.916 4.916 0 002.505.684 4.953 4.953 0 004.947-4.948 4.953 4.953 0 00-4.947-4.948zm-4.005 7.847a3.072 3.072 0 01-4.073-2.9 3.072 3.072 0 014.073-2.898 4.92 4.92 0 00-.942 2.9c0 1.082.35 2.083.942 2.898zm1.5-1.13a3.05 3.05 0 01-.563-1.769c0-.659.21-1.269.564-1.77.354.501.563 1.111.563 1.77s-.209 1.269-.563 1.77zm2.506 1.3c-.352 0-.69-.06-1.005-.17a4.92 4.92 0 00.942-2.899 4.92 4.92 0 00-.942-2.9 3.072 3.072 0 014.073 2.9 3.072 3.072 0 01-3.068 3.069z" fill="#C94D00"/></svg>