<svg width="60" height="60" viewBox="0 0 60 60" fill="none" xmlns="http://www.w3.org/2000/svg"><path d="M7.93 46.822a.936.936 0 01-.76-.388C-.937 35.201.3 19.926 10.112 10.112c10.969-10.965 28.81-10.965 39.778 0a.938.938 0 01-1.325 1.325c-10.238-10.231-26.892-10.231-37.127 0-9.158 9.163-10.313 23.418-2.75 33.9a.938.938 0 01-.758 1.486zM30 58.112c-7.203 0-14.405-2.741-19.888-8.224a.938.938 0 011.326-1.325c10.235 10.231 26.891 10.231 37.127 0 9.137-9.143 10.305-23.384 2.775-33.861a.938.938 0 011.523-1.095c8.067 11.225 6.817 26.484-2.975 36.281C44.406 55.371 37.204 58.11 30 58.112z" fill="#C94D00"/><path d="M10.774 54.776a.938.938 0 01-.938-.937v-4.613c0-.517.42-.937.938-.937h4.614a.938.938 0 010 1.875h-3.677v3.675c0 .517-.42.937-.937.937zm38.452-43.065h-4.614a.938.938 0 010-1.875h3.677V6.161a.938.938 0 011.875 0v4.613c0 .517-.42.937-.938.937zM30 50.625C18.628 50.625 9.375 41.372 9.375 30S18.628 9.375 30 9.375 50.625 18.628 50.625 30 41.372 50.625 30 50.625zm0-39.375c-10.339 0-18.75 8.411-18.75 18.75S19.661 48.75 30 48.75 48.75 40.339 48.75 30 40.339 11.25 30 11.25z" fill="#C94D00"/><path d="M30 50.625C18.628 50.625 9.375 41.372 9.375 30S18.628 9.375 30 9.375 50.625 18.628 50.625 30 41.372 50.625 30 50.625zm0-39.375c-10.339 0-18.75 8.411-18.75 18.75S19.661 48.75 30 48.75 48.75 40.339 48.75 30 40.339 11.25 30 11.25z" fill="#C94D00"/><path d="M44.336 44.4a.924.924 0 01-.264-.04 50.118 50.118 0 00-28.148 0 .935.935 0 01-1.162-.635.935.935 0 01.635-1.163 51.985 51.985 0 0129.201 0 .935.935 0 01.636 1.163.93.93 0 01-.898.675zM30 19.541a51.9 51.9 0 01-10.187-1.012.94.94 0 01-.735-1.105.946.946 0 011.104-.735 50.064 50.064 0 0023.89-1.052.933.933 0 011.162.636.935.935 0 01-.636 1.163A51.66 51.66 0 0130 19.54z" fill="#C94D00"/><path d="M30.945 50.578a.936.936 0 01-.529-1.712C36.705 44.574 40.46 37.523 40.46 30s-3.754-14.572-10.043-18.866a.94.94 0 01-.245-1.303.943.943 0 011.303-.246c6.8 4.642 10.86 12.274 10.86 20.415s-4.06 15.773-10.86 20.415a.949.949 0 01-.53.163z" fill="#C94D00"/><path d="M29.055 50.578a.933.933 0 01-.529-.163c-6.8-4.642-10.86-12.274-10.86-20.415a24.593 24.593 0 015.959-16.031.938.938 0 011.421 1.222 22.713 22.713 0 00-5.505 14.807c0 7.523 3.754 14.573 10.043 18.866a.94.94 0 01-.53 1.714z" fill="#C94D00"/><path d="M30 49.588a.938.938 0 01-.938-.937V11.349a.938.938 0 011.875 0v37.303c0 .518-.42.936-.937.936z" fill="#C94D00"/><path d="M48.65 30.938H14.163a.938.938 0 010-1.875h34.49a.938.938 0 11-.001 1.875z" fill="#C94D00"/></svg>