<svg width="40" height="40" viewBox="0 0 40 40" fill="none" xmlns="http://www.w3.org/2000/svg">
<g clip-path="url(#clip0_4857_521)">
<path d="M38.9412 3.16469C38.3555 2.7568 37.6056 2.35313 37.0797 2.08625C36.3627 1.7225 34.3668 0.778441 33.75 0.778441C32.3973 0.778441 31.1745 0.907191 29.992 1.03164C27.6151 1.28196 25.1573 1.54071 21.3715 0.790394C17.0395 -0.0682778 12.6837 0.967191 9.7925 1.98703C9.32055 2.15352 8.79164 2.01938 8.37773 1.62813C7.79797 1.08016 7.04234 0.778441 6.25 0.778441H3.125C1.40188 0.778441 0 2.18032 0 3.90344V17.0284C0 18.7516 1.40188 20.1534 3.125 20.1534H6.25C7.97312 20.1534 9.375 18.7516 9.375 17.0284C9.375 16.1295 10.0053 15.3414 10.8413 15.1953C12.327 14.9358 13.7111 15.389 14.7216 15.72L14.8058 15.7476C15.7194 16.0463 16.8926 16.1038 18.0087 16.0576C15.5509 18.0574 13.7331 21.2184 12.5883 25.4941C11.4528 29.7349 11.2344 34.1145 11.2511 37.0416C11.2589 38.413 12.3799 39.5286 13.75 39.5286H25.0416C26.387 39.5286 27.482 38.473 27.5346 37.1254C27.7909 30.5612 29.4571 24.2466 32.487 18.3574C34.9245 13.6194 37.6046 10.4247 38.9853 8.94211C39.6397 8.2393 40 7.32383 40 6.36422V4.52844C40 4.08938 39.6834 3.68157 38.9412 3.16469ZM38.75 6.36422C38.75 7.00664 38.5088 7.61953 38.0705 8.09C36.6459 9.61985 33.8817 12.9137 31.3755 17.7853C28.2616 23.838 26.5491 30.3284 26.2856 37.0764C26.2593 37.7504 25.7129 38.2784 25.0417 38.2784H13.75C13.0652 38.2784 12.5049 37.7203 12.5011 37.0343C12.4848 34.1838 12.6962 29.9238 13.7958 25.8172C15.1795 20.6495 17.5652 17.2527 20.8867 15.7209C21.1703 15.5902 21.3141 15.2699 21.2231 14.9712C21.1897 14.8613 21.0527 14.5339 20.6132 14.5339C20.563 14.5339 20.5088 14.5382 20.4504 14.5475C19.3828 14.7187 16.7335 15.0625 15.1942 14.5593L15.1107 14.532C14.039 14.1809 12.4194 13.6502 10.626 13.9639C9.1768 14.2173 8.125 15.506 8.125 17.0284C8.125 18.0623 7.28391 18.9034 6.25 18.9034H3.125C2.09109 18.9034 1.25 18.0623 1.25 17.0284V3.90344C1.25 2.86961 2.09109 2.02844 3.125 2.02844H6.25C6.72172 2.02844 7.17242 2.20891 7.51914 2.53657C8.26898 3.24532 9.29953 3.48649 10.2084 3.16586C12.9523 2.19789 17.074 1.21289 21.1285 2.01649C25.0998 2.8036 27.6534 2.53477 30.123 2.27477C31.3206 2.14868 32.4521 2.02953 33.7316 2.02844C33.9622 2.06407 35.0162 2.45274 36.3668 3.12696C37.9889 3.93657 38.6053 4.44852 38.75 4.62555V6.36422Z" fill="#C94D00"/>
<path d="M28.7492 4.91919C28.7671 4.91919 28.785 4.91841 28.8032 4.91685C29.2483 4.8788 29.6728 4.8356 30.0653 4.79458C30.4086 4.7588 30.6578 4.45138 30.6219 4.10802C30.5861 3.76474 30.279 3.51497 29.9354 3.55138C29.5489 3.59177 29.1314 3.63419 28.6965 3.67145C28.3526 3.70083 28.0976 4.00356 28.1271 4.34747C28.155 4.67325 28.4281 4.91919 28.7492 4.91919Z" fill="#C94D00"/>
<path d="M8.66002 5.75506C8.89884 5.78975 9.14228 5.80733 9.38353 5.80733C9.94861 5.80733 10.506 5.71178 11.04 5.52342C12.7241 4.92936 15.2989 4.22131 18.0025 4.22131C18.9258 4.22131 19.8141 4.30452 20.6425 4.46874C22.5738 4.85155 24.3815 5.03764 26.169 5.03764C26.5142 5.03764 26.794 4.7578 26.794 4.41264C26.794 4.06749 26.5142 3.78764 26.169 3.78764C24.464 3.78764 22.7358 3.60936 20.8855 3.24264C19.9772 3.06264 19.0072 2.97131 18.0024 2.97131C15.122 2.97131 12.4003 3.71811 10.6242 4.34459C10.0524 4.54631 9.43791 4.60499 8.83963 4.51803C8.49791 4.46834 8.18088 4.70514 8.13134 5.04678C8.08166 5.38834 8.31838 5.70545 8.66002 5.75506Z" fill="#C94D00"/>
<path d="M37.2043 5.00699C36.2188 4.39597 34.4422 3.56418 33.6791 3.31183C33.613 3.29004 33.5438 3.27926 33.474 3.28035C33.1477 3.28496 32.8167 3.29754 32.4625 3.31886C32.1179 3.33957 31.8553 3.63566 31.8761 3.98019C31.8968 4.32472 32.1932 4.5873 32.5375 4.5666C32.8332 4.54879 33.111 4.53746 33.3833 4.53207C34.0366 4.76582 35.3736 5.39222 36.2499 5.89386V6.36426C36.2499 6.37285 36.2471 6.37965 36.2409 6.38629C35.0347 7.68152 32.6584 10.4678 30.2951 14.5756C27.3902 19.625 25.4241 25.0405 24.4514 30.6718C24.3926 31.012 24.6207 31.3353 24.9608 31.3941C24.9968 31.4003 25.0326 31.4033 25.0679 31.4033C25.3664 31.4033 25.6306 31.1887 25.6831 30.8846C26.6307 25.3982 28.547 20.1207 31.3785 15.1989C33.6799 11.1988 35.9859 8.49425 37.1556 7.23816C37.3776 6.9998 37.4999 6.68941 37.4999 6.36418V5.53824C37.5 5.32191 37.3882 5.12097 37.2043 5.00699Z" fill="#C94D00"/>
<path d="M24.7773 32.6577C24.4339 32.6172 24.1237 32.8623 24.0833 33.2051C23.9828 34.0553 23.9044 34.9184 23.8493 35.7784H15.0104C15.0615 33.2578 15.323 29.7786 16.2107 26.4637C17.3931 22.0477 19.3186 19.197 21.9336 17.9911C23.2562 17.3812 23.9895 15.9059 23.6772 14.4833C23.365 13.0606 22.0813 12.028 20.6248 12.028C20.3726 12.028 20.1891 12.0574 20.0542 12.079C18.8107 12.2784 17.8922 12.3202 17.3405 12.3202C16.4365 12.3202 16.0413 12.2059 15.9713 12.183L15.8885 12.1559C14.9312 11.8423 13.4845 11.3685 11.7461 11.3685C11.2208 11.3685 10.6992 11.4131 10.1956 11.5012C7.75117 11.9284 5.92539 13.9415 5.65859 16.4033H3.75V4.52757L6.23203 4.52429C6.57719 4.52382 6.85664 4.24367 6.85617 3.89843C6.8557 3.55351 6.57602 3.27429 6.23117 3.27429C6.23086 3.27429 6.23055 3.27429 6.23031 3.27429L3.12414 3.27843C2.7793 3.2789 2.5 3.55859 2.5 3.90343V17.0284C2.5 17.3736 2.77984 17.6534 3.125 17.6534H6.25C6.59516 17.6534 6.875 17.3736 6.875 17.0284C6.875 14.8973 8.36203 13.0907 10.4109 12.7327C10.8435 12.657 11.2928 12.6187 11.7461 12.6187C13.2849 12.6187 14.6176 13.0552 15.4998 13.3442L15.5827 13.3713C15.8101 13.4457 16.3409 13.5704 17.3405 13.5704C17.9376 13.5704 18.9273 13.5258 20.2526 13.3134C20.3655 13.2953 20.472 13.2782 20.6248 13.2782C21.4987 13.2782 22.2689 13.8978 22.4563 14.7514C22.6436 15.6051 22.2037 16.4902 21.4102 16.8562C18.4418 18.225 16.2863 21.3487 15.0032 26.1406C14.005 29.8685 13.7716 33.7766 13.7516 36.3987C13.7503 36.5653 13.8155 36.7255 13.933 36.8437C14.0503 36.962 14.21 37.0285 14.3766 37.0285H24.4391C24.7718 37.0285 25.0462 36.768 25.0633 36.4358C25.1163 35.4081 25.2043 34.3705 25.3246 33.3519C25.3652 33.009 25.1201 32.6982 24.7773 32.6577Z" fill="#C94D00"/>
</g>
<defs>
<clipPath id="clip0_4857_521">
<rect width="40" height="40" fill="white" transform="translate(0 -0.000244141)"/>
</clipPath>
</defs>
</svg>
