<svg width="60" height="60" viewBox="0 0 60 60" fill="none" xmlns="http://www.w3.org/2000/svg"><g clip-path="url(#clip0_4670_982)" fill="#C94D00"><path d="M51.558 51.984a3.935 3.935 0 00-3.93-3.93h-9.82a.957.957 0 100 1.915h9.82c1.111 0 2.016.904 2.016 2.015 0 .224-.04.443-.11.65a3.906 3.906 0 00-1.906-.495h-13.41a3.937 3.937 0 00-.596-4.794L22.367 36.089c-1.625-1.625-4.698-2.897-6.995-2.897H1.588a.957.957 0 100 1.914h13.784c1.79 0 4.374 1.07 5.64 2.337l11.256 11.256a2.018 2.018 0 010 2.85 2.018 2.018 0 01-2.85 0L20.27 42.4a.957.957 0 10-1.354 1.354l9.148 9.148a3.915 3.915 0 002.709 1.147c.023.002.046.004.07.004h16.785c1.111 0 2.015.904 2.015 2.016a2.018 2.018 0 01-2.014 2.015l-18.744-.016c-.508 0-1.372-.226-1.825-.475L8.008 45.83a.976.976 0 00-.034-.02c-.738-.415-1.932-.727-2.778-.727H1.588a.957.957 0 000 1.915h3.608c.509 0 1.372.224 1.824.473l19.053 11.765.033.02c.738.415 1.932.728 2.778.728L47.628 60a3.935 3.935 0 003.93-3.93c0-.748-.21-1.447-.573-2.042a3.912 3.912 0 00.573-2.044z"/><path d="M41.675 0C31.918 0 23.98 7.938 23.98 17.695c0 6.23 3.304 12.023 8.647 15.208l1.707 4.785v3.664c0 2.207 1.662 4.334 1.733 4.423.181.23.458.364.75.364h9.715c.293 0 .57-.134.75-.364.072-.09 1.733-2.217 1.733-4.423v-3.664l1.708-4.785a17.743 17.743 0 008.647-15.208C59.37 7.938 51.432 0 41.675 0zm4.364 44.224h-8.73c-.303-.458-.7-1.17-.912-1.915h10.554c-.213.742-.61 1.456-.912 1.915zm1.061-3.83H36.25V38.48H47.1v1.914zm2.365-8.974a.957.957 0 00-.428.51l-1.654 4.635H35.967l-1.654-4.635a.958.958 0 00-.429-.51 15.824 15.824 0 01-7.99-13.725c0-8.701 7.08-15.78 15.78-15.78 8.702 0 15.78 7.079 15.78 15.78a15.824 15.824 0 01-7.989 13.725z"/><path d="M47.995 18.884a10.435 10.435 0 00-6.32-2.107c-2.298 0-4.482.73-6.318 2.11a.958.958 0 00-.327 1.087l3.134 8.777v4.941a.957.957 0 101.915 0v-4.149h3.191v4.15a.957.957 0 101.915 0v-4.94l3.136-8.781a.957.957 0 00-.326-1.088zm-4.725 8.744h-3.19v-.319c0-.88.716-1.596 1.596-1.596.88 0 1.595.716 1.595 1.596v.32zm1.169-2.48a3.505 3.505 0 00-5.528 0l-1.83-5.127a8.525 8.525 0 014.594-1.329c1.648 0 3.224.457 4.596 1.327l-1.832 5.13z"/></g><defs><clipPath id="clip0_4670_982"><path fill="#fff" d="M0 0h60v60H0z"/></clipPath></defs></svg>