<svg width="40" height="40" viewBox="0 0 40 40" fill="none" xmlns="http://www.w3.org/2000/svg">
<rect x="8" y="8" width="24" height="24" rx="3" fill="#C94D00"/>
<path fill-rule="evenodd" clip-rule="evenodd" d="M28 28H24.8V22.4008C24.8 20.8648 24.1224 20.0078 22.9072 20.0078C21.5848 20.0078 20.8 20.9008 20.8 22.4008V28H17.6V17.6H20.8V18.7695C20.8 18.7695 21.804 17.0078 24.0664 17.0078C26.3296 17.0078 28 18.3889 28 21.2465V28ZM13.9536 15.9367C12.8744 15.9367 12 15.0552 12 13.968C12 12.8816 12.8744 12 13.9536 12C15.032 12 15.9064 12.8816 15.9064 13.968C15.9072 15.0552 15.032 15.9367 13.9536 15.9367ZM12 28H16V17.6H12V28Z" fill="black"/>
</svg>
