<svg width="40" height="40" viewBox="0 0 40 40" fill="none" xmlns="http://www.w3.org/2000/svg">
<g clip-path="url(#clip0_4603_5292)">
<path d="M20 8C16.74 8 16.333 8.015 15.053 8.072C13.775 8.132 12.905 8.333 12.14 8.63C11.351 8.936 10.681 9.347 10.014 10.014C9.347 10.681 8.935 11.35 8.63 12.14C8.333 12.905 8.131 13.775 8.072 15.053C8.012 16.333 8 16.74 8 20C8 23.26 8.015 23.667 8.072 24.947C8.132 26.224 8.333 27.095 8.63 27.86C8.936 28.648 9.347 29.319 10.014 29.986C10.681 30.652 11.35 31.065 12.14 31.37C12.906 31.666 13.776 31.869 15.053 31.928C16.333 31.988 16.74 32 20 32C23.26 32 23.667 31.985 24.947 31.928C26.224 31.868 27.095 31.666 27.86 31.37C28.648 31.064 29.319 30.652 29.986 29.986C30.652 29.319 31.065 28.651 31.37 27.86C31.666 27.095 31.869 26.224 31.928 24.947C31.988 23.667 32 23.26 32 20C32 16.74 31.985 16.333 31.928 15.053C31.868 13.776 31.666 12.904 31.37 12.14C31.064 11.351 30.652 10.681 29.986 10.014C29.319 9.347 28.651 8.935 27.86 8.63C27.095 8.333 26.224 8.131 24.947 8.072C23.667 8.012 23.26 8 20 8ZM20 10.16C23.203 10.16 23.585 10.176 24.85 10.231C26.02 10.286 26.655 10.48 27.077 10.646C27.639 10.863 28.037 11.123 28.459 11.542C28.878 11.962 29.138 12.361 29.355 12.923C29.519 13.345 29.715 13.98 29.768 15.15C29.825 16.416 29.838 16.796 29.838 20C29.838 23.204 29.823 23.585 29.764 24.85C29.703 26.02 29.508 26.655 29.343 27.077C29.119 27.639 28.864 28.037 28.444 28.459C28.025 28.878 27.62 29.138 27.064 29.355C26.644 29.519 25.999 29.715 24.829 29.768C23.555 29.825 23.18 29.838 19.97 29.838C16.759 29.838 16.384 29.823 15.111 29.764C13.94 29.703 13.295 29.508 12.875 29.343C12.306 29.119 11.915 28.864 11.496 28.444C11.075 28.025 10.806 27.62 10.596 27.064C10.431 26.644 10.237 25.999 10.176 24.829C10.131 23.569 10.115 23.18 10.115 19.985C10.115 16.789 10.131 16.399 10.176 15.124C10.237 13.954 10.431 13.31 10.596 12.89C10.806 12.32 11.075 11.93 11.496 11.509C11.915 11.09 12.306 10.82 12.875 10.611C13.295 10.445 13.926 10.25 15.096 10.19C16.371 10.145 16.746 10.13 19.955 10.13L20 10.16ZM20 13.838C16.595 13.838 13.838 16.598 13.838 20C13.838 23.405 16.598 26.162 20 26.162C23.405 26.162 26.162 23.402 26.162 20C26.162 16.595 23.402 13.838 20 13.838ZM20 24C17.79 24 16 22.21 16 20C16 17.79 17.79 16 20 16C22.21 16 24 17.79 24 20C24 22.21 22.21 24 20 24ZM27.846 13.595C27.846 14.39 27.2 15.035 26.406 15.035C25.611 15.035 24.966 14.389 24.966 13.595C24.966 12.801 25.612 12.156 26.406 12.156C27.199 12.155 27.846 12.801 27.846 13.595Z" fill="#C94D00"/>
</g>
<defs>
<clipPath id="clip0_4603_5292">
<rect width="40" height="40" fill="white"/>
</clipPath>
</defs>
</svg>
