<svg width="80" height="80" viewBox="0 0 80 80" fill="none" xmlns="http://www.w3.org/2000/svg">
<path d="M34.9121 17.6357L45.0882 19.6709V21.2133H47.4365V17.7459L32.5637 14.7714V21.2133H34.9121V17.6357Z" fill="#C94D00"/>
<path d="M64.8214 65.1272L61.0874 37.7448L47.4364 35.2628V31.5654C48.9459 29.8694 49.8181 27.7442 49.9291 25.4691L52.4462 22.952V13.6986C52.4462 10.2888 49.672 7.51465 46.2622 7.51465H33.7378C30.328 7.51465 27.5538 10.2888 27.5538 13.6986V22.9531L30.0958 25.4877C30.2852 27.7551 31.1868 29.8162 32.5636 31.4287V35.2626L18.9126 37.7446L15.1786 65.1272H0V72.4853H80V65.1272H64.8214ZM23.7965 65.1272H18.4332L23.7965 62.0624V65.1272ZM34.9119 33.4531C36.3214 34.3305 37.9541 34.8551 39.695 34.9074C39.7982 34.9105 39.9009 34.9121 40.0036 34.9121C41.8218 34.9121 43.5641 34.4266 45.0882 33.5145V35.5779L40.0002 38.6307L34.9121 35.5779V33.4531H34.9119ZM40 41.9569L42.3483 45.088H37.6517L40 41.9569ZM45.2205 45.088L50.8952 38.2785L54.8446 38.9966L51.7988 45.088H45.2205ZM28.2012 45.088L25.1554 38.9965L29.1048 38.2783L34.7795 45.088H28.2012ZM26.1448 47.4364H53.8552V65.1272H26.1448V47.4364ZM56.2035 62.0624L61.5668 65.1272H56.2035V62.0624ZM62.126 62.7421L56.2035 59.3576V45.088H54.4243L57.2512 39.434L58.9908 39.7504L62.126 62.7421ZM48.2406 37.7958L43.8059 43.1175L41.7205 40.337L46.4872 37.4769L48.2406 37.7958ZM32.3953 24.4643L29.9022 21.9784V13.6986C29.9022 11.5837 31.6229 9.86299 33.7378 9.86299H46.2622C48.3771 9.86299 50.0978 11.5837 50.0978 13.6986V21.9795L47.593 24.4844V24.9706C47.593 27.0419 46.7742 28.9772 45.2872 30.4202C43.801 31.8624 41.8386 32.6213 39.7653 32.5601C35.8067 32.4413 32.5772 29.0873 32.4133 24.9246L32.3953 24.4643ZM33.5128 37.4769L38.2794 40.337L36.1941 43.1175L31.7594 37.7958L33.5128 37.4769ZM21.0092 39.7504L22.7488 39.434L25.5757 45.088H23.7965V59.3576L17.874 62.7419L21.0092 39.7504ZM77.6517 70.137H2.34834V67.4755H14.8584H23.7965H24.9706H55.0294H56.2035H65.1416H77.6517V70.137Z" fill="#C94D00"/>
<path d="M45.0098 55.1077H34.9902V57.456H45.0098V55.1077Z" fill="#C94D00"/>
</svg>
