<svg width="60" height="60" viewBox="0 0 60 60" fill="none" xmlns="http://www.w3.org/2000/svg">
<path d="M60 30.3986L52.0345 12.6666L43.4 16.5512L43.9777 17.8461C42.1383 18.4402 40.1165 18.5773 38.0643 18.2421C36.7266 18.0289 35.3737 18.0289 34.0512 18.2421C33.0023 18.4097 31.9534 18.7296 30.9653 19.1714C30.5092 19.3694 30.0684 19.6132 29.6276 19.8874L25.7816 21.7764C25.1888 21.6697 24.5959 21.5936 24.003 21.5631C21.9052 21.4717 19.9291 20.9233 18.2265 19.9636L19.0474 18.8363L11.3403 13.276L0 29.0581L7.67672 34.6031L8.49759 33.4758C9.95693 34.7859 11.097 36.4921 11.8419 38.4572C11.9027 38.6248 11.9635 38.7771 12.0395 38.9447L11.0666 40.2853C10.0937 41.6411 10.3978 43.5453 11.7507 44.5202C12.1763 44.8249 12.678 45.0229 13.1796 45.0686C13.1796 45.221 13.1948 45.3733 13.21 45.5256C13.3468 46.3178 13.7725 47.0185 14.4261 47.506C14.943 47.8869 15.5663 48.0849 16.1895 48.0849C16.2807 48.0849 16.3567 48.0849 16.4479 48.0697C16.6152 48.74 17.0104 49.3645 17.6184 49.8063C18.1505 50.1871 18.7738 50.3852 19.3818 50.3852C19.701 50.3852 20.0203 50.3395 20.3243 50.2328C20.5371 50.7051 20.8715 51.1164 21.2972 51.4211C21.814 51.8019 22.4373 52 23.0606 52C23.2278 52 23.395 51.9847 23.547 51.9543C24.3527 51.8172 25.0519 51.3906 25.5232 50.7356L26.1312 49.8825L29.0347 51.5582C29.5516 51.8629 30.1292 52 30.6765 52C31.5733 52 32.4398 51.6343 33.0479 50.9336C33.3823 50.5375 33.6255 50.0805 33.7471 49.5778C34.34 49.7758 34.9633 49.8215 35.6017 49.7149C36.6354 49.5473 37.5323 48.9837 38.1404 48.1306C38.5356 47.567 38.794 46.9119 38.8548 46.2416C38.8852 45.937 38.8852 45.6323 38.8396 45.3428C39.9037 45.2819 40.9222 44.8097 41.6215 43.9566C42.2143 43.2406 42.5184 42.3723 42.5184 41.4583C42.7312 41.4735 42.9592 41.4583 43.1872 41.4126C44.0233 41.2755 44.753 40.8184 45.2394 40.1329C45.6499 39.554 45.9083 38.8838 45.9843 38.1678C45.9843 38.1373 45.9843 38.0916 45.9995 38.0611C46.2123 37.7869 46.4099 37.4975 46.5923 37.2081C47.7021 35.441 49.1462 34.0242 50.8031 33.034L51.3656 34.268L60 30.3986ZM57.1877 29.317L52.4449 31.4497L46.2275 17.6023L50.9704 15.4696L57.1877 29.317ZM11.8267 16.2618L16.0527 19.3085L7.5399 31.1298L7.19027 31.6173L2.96428 28.5706L11.8267 16.2618ZM12.7996 41.5344L14.1221 39.6912L14.1981 39.5845C14.3349 39.3865 14.5478 39.2646 14.7758 39.2189C14.8214 39.2189 14.867 39.2037 14.8974 39.2037C14.9126 39.2037 14.9126 39.2037 14.9278 39.2037C14.9734 39.2037 15.0038 39.2037 15.0494 39.2189C15.0646 39.2189 15.0646 39.2189 15.0798 39.2189C15.1102 39.2189 15.1406 39.2341 15.1862 39.2494C15.1862 39.2494 15.2014 39.2494 15.2166 39.2494C15.247 39.2646 15.2926 39.2798 15.323 39.2951C15.3382 39.2951 15.3382 39.3103 15.3534 39.3103C15.3838 39.3255 15.4294 39.356 15.4598 39.3712C15.5511 39.4474 15.6423 39.5236 15.7031 39.6302C15.7791 39.7673 15.8247 39.9197 15.8399 40.072C15.8399 40.1177 15.8399 40.1482 15.8399 40.1939C15.8399 40.2396 15.8247 40.2853 15.8095 40.3157C15.7943 40.3919 15.7639 40.4528 15.7335 40.5138C15.7183 40.5442 15.6879 40.5747 15.6727 40.6204L14.2741 42.5703C14.1373 42.7684 13.9245 42.8902 13.6965 42.9359C13.4533 42.9816 13.2252 42.9207 13.0276 42.7836C12.602 42.4941 12.5108 41.9305 12.7996 41.5344ZM15.6879 45.7846C15.4902 45.6475 15.3686 45.4342 15.323 45.2057C15.2774 44.962 15.3382 44.7335 15.475 44.5355L18.6065 40.1786C18.7433 39.9806 18.9562 39.8587 19.1842 39.813C19.2298 39.813 19.2754 39.7978 19.321 39.7978C19.3362 39.7978 19.3362 39.7978 19.3514 39.7978C19.397 39.7978 19.4274 39.7978 19.473 39.813C19.4882 39.813 19.4882 39.813 19.4882 39.813C19.5186 39.813 19.5642 39.8283 19.5946 39.8435H19.6098C19.6554 39.8587 19.6858 39.874 19.7162 39.8892C19.7314 39.8892 19.7314 39.9044 19.7466 39.9044C19.777 39.9197 19.8227 39.9501 19.8531 39.9654C20.1115 40.1482 20.2483 40.4681 20.2179 40.788C20.2179 40.8337 20.2027 40.8641 20.2027 40.9098C20.2027 40.9251 20.1875 40.9403 20.1875 40.9555C20.1875 40.9708 20.1723 41.0012 20.1723 41.0165C20.1723 41.0317 20.1571 41.0469 20.1571 41.0622C20.1419 41.0774 20.1419 41.1079 20.1267 41.1231C20.1115 41.1384 20.0963 41.1536 20.0963 41.1841C20.0811 41.1993 20.0811 41.2145 20.0659 41.2297L16.9344 45.5866C16.7976 45.7846 16.5847 45.9065 16.3567 45.9522C16.1135 45.9827 15.8703 45.9217 15.6879 45.7846ZM18.865 48.0849C18.4697 47.7955 18.3785 47.2318 18.6673 46.8357L21.7988 42.4789C21.8292 42.4332 21.8596 42.4027 21.9052 42.357C21.9204 42.3418 21.9204 42.3418 21.9356 42.3266C21.966 42.2961 22.0117 42.2656 22.0573 42.2352C22.0725 42.2352 22.0725 42.2199 22.0877 42.2199C22.1333 42.2047 22.1637 42.1742 22.2093 42.159C22.2245 42.159 22.2245 42.159 22.2245 42.1438C22.2701 42.1285 22.3157 42.1133 22.3765 42.0981C22.3917 42.0981 22.4069 42.0981 22.4221 42.0828C22.4373 42.0828 22.4373 42.0828 22.4525 42.0828C22.4829 42.0828 22.5133 42.0828 22.5285 42.0828H22.5437C22.5893 42.0828 22.6349 42.0828 22.6805 42.0981C22.7261 42.0981 22.7717 42.1133 22.8021 42.1285C22.8021 42.1285 22.8021 42.1285 22.8173 42.1285C22.8629 42.1438 22.8933 42.159 22.9389 42.1742C22.9389 42.1742 22.9541 42.1742 22.9541 42.1895C22.9845 42.2047 23.0302 42.2352 23.0606 42.2504C23.2278 42.3723 23.3342 42.5398 23.395 42.7227C23.4254 42.8293 23.4406 42.9512 23.4254 43.073C23.4102 43.2254 23.3494 43.3777 23.2582 43.5148L20.1267 47.8716C19.8226 48.2829 19.2754 48.3743 18.865 48.0849ZM23.2126 49.8368C22.9693 49.8825 22.7413 49.8215 22.5437 49.6844C22.3461 49.5473 22.2245 49.3341 22.1789 49.1056C22.1333 48.8618 22.1941 48.6333 22.3309 48.4353L23.7294 46.4854C23.7598 46.4549 23.775 46.4244 23.8054 46.394C23.8206 46.3787 23.8358 46.3635 23.851 46.3483C23.8814 46.3178 23.9118 46.3026 23.9422 46.2721C23.9574 46.2569 23.9726 46.2416 23.9878 46.2416C24.0182 46.2264 24.0638 46.2112 24.0942 46.1959C24.1094 46.1807 24.1246 46.1807 24.1399 46.1655C24.2007 46.1502 24.2463 46.135 24.3071 46.1198C24.3527 46.1198 24.3983 46.1045 24.4287 46.1045C24.4439 46.1045 24.4439 46.1045 24.4591 46.1045C24.5047 46.1045 24.5351 46.1045 24.5807 46.1198C24.5959 46.1198 24.5959 46.1198 24.6111 46.1198C24.6415 46.1198 24.6719 46.135 24.7175 46.1502H24.7327C24.7631 46.1655 24.8087 46.1807 24.8391 46.1959C24.8543 46.1959 24.8543 46.2112 24.8695 46.2112C24.8999 46.2264 24.9455 46.2569 24.9759 46.2721C25.2344 46.4549 25.3712 46.7748 25.3408 47.0947C25.3256 47.247 25.2648 47.3994 25.1735 47.5365L23.8054 49.4864C23.6534 49.6692 23.4558 49.8063 23.2126 49.8368ZM43.8713 37.9697C43.8409 38.3049 43.7193 38.6248 43.5217 38.899C43.3544 39.1275 43.1264 39.2646 42.8528 39.3103C42.5792 39.356 42.3055 39.2951 42.0927 39.1275L40.907 38.2744L38.5812 36.5987C38.11 36.2483 37.4411 36.3702 37.0915 36.8425C36.7418 37.3147 36.8634 37.985 37.3347 38.3354L39.6605 40.0111C40.0709 40.3005 40.3142 40.7423 40.3902 41.2297C40.451 41.7172 40.3142 42.2047 39.9949 42.6008C39.4173 43.3168 38.2924 43.4234 37.5019 42.8598L37.2739 42.6922L37.2587 42.6769L34.3856 40.6052C33.9144 40.2548 33.2455 40.3767 32.8959 40.8489C32.5462 41.3212 32.6678 41.9914 33.1391 42.3418L36.0122 44.4136C36.5138 44.7792 36.7874 45.4038 36.7266 46.0436C36.6962 46.3635 36.5898 46.6529 36.4074 46.8967C36.1338 47.2775 35.7233 47.5365 35.2521 47.6127C34.7808 47.6888 34.3096 47.5822 33.9296 47.2928L32.531 46.2873C32.531 46.2873 32.5158 46.2873 32.5158 46.2721L29.7948 44.307C29.3235 43.9566 28.6547 44.0784 28.305 44.5507C27.9554 45.0229 28.077 45.6932 28.5483 46.0436L31.2693 48.0087C31.4973 48.1763 31.6494 48.4353 31.6798 48.7247C31.7102 49.0142 31.619 49.3036 31.4365 49.5321C31.1173 49.8977 30.5396 49.9739 30.0836 49.6997L27.3017 48.0849C27.3169 48.0544 27.3321 48.0087 27.3321 47.9783C27.3473 47.9478 27.3474 47.9173 27.3626 47.9021C27.3778 47.8716 27.3778 47.8259 27.393 47.7955C27.393 47.765 27.4082 47.7498 27.4082 47.7193C27.4234 47.6736 27.4234 47.6279 27.4386 47.5974C27.4386 47.567 27.4538 47.5517 27.4538 47.5213C27.469 47.4603 27.469 47.3842 27.4842 47.3232C27.5906 46.2416 27.1193 45.1905 26.2376 44.5507C26.1616 44.4898 26.0856 44.4441 26.0096 44.3984C25.9792 44.3831 25.964 44.3679 25.9336 44.3527C25.8728 44.3222 25.8272 44.2917 25.7664 44.2613C25.736 44.246 25.7056 44.2308 25.6752 44.2155C25.6296 44.2003 25.5688 44.1698 25.508 44.1546C25.4776 44.1394 25.4472 44.1241 25.4016 44.1241C25.3864 44.1241 25.356 44.1089 25.3408 44.1089V44.0937C25.356 44.0632 25.3712 44.0175 25.3864 43.9718C25.4016 43.9413 25.4016 43.9261 25.4168 43.8956C25.432 43.8499 25.4472 43.8195 25.4472 43.7738C25.4472 43.7433 25.4624 43.7281 25.4624 43.6976C25.4776 43.6519 25.4776 43.6062 25.4928 43.5605C25.4928 43.5453 25.508 43.5148 25.508 43.4996C25.5232 43.4386 25.5232 43.3625 25.5384 43.3015C25.6448 42.2961 25.2344 41.3059 24.4591 40.6661C24.4135 40.6204 24.3527 40.5747 24.3071 40.5442C24.2311 40.4833 24.1399 40.4376 24.0638 40.3919C24.0334 40.3767 24.0182 40.3614 23.9878 40.3462C23.927 40.3157 23.8662 40.2853 23.8054 40.2548C23.775 40.2396 23.7446 40.2243 23.7294 40.2243C23.6686 40.1939 23.6078 40.1786 23.5318 40.1482C23.5014 40.1329 23.4862 40.1329 23.4558 40.1177C23.3798 40.1025 23.319 40.072 23.243 40.0568C23.2278 40.0568 23.1974 40.0415 23.1822 40.0415C23.1062 40.0263 23.0301 40.0111 22.9541 39.9958C22.9389 39.9958 22.9237 39.9958 22.9085 39.9958C22.8325 39.9806 22.7413 39.9806 22.6653 39.9806C22.6501 39.9806 22.6349 39.9806 22.6349 39.9806C22.5437 39.9806 22.4525 39.9806 22.3765 39.9806H22.3613C22.3461 39.9806 22.3309 39.9806 22.3157 39.9806C22.3157 39.9654 22.3005 39.9501 22.3005 39.9349C22.2853 39.874 22.2701 39.813 22.2549 39.7521C22.2549 39.7216 22.2397 39.7064 22.2245 39.6759C22.2093 39.615 22.1789 39.554 22.1485 39.4931C22.1485 39.4779 22.1333 39.4626 22.1333 39.4626C22.1029 39.3865 22.0725 39.3255 22.0269 39.2494C22.0117 39.2341 22.0117 39.2189 21.9965 39.1884C21.9661 39.1427 21.9356 39.0818 21.9052 39.0361C21.89 39.0209 21.8748 38.9904 21.8596 38.9752C21.814 38.9142 21.7836 38.8533 21.738 38.8076L21.7228 38.7924C21.6772 38.7314 21.6164 38.6705 21.5708 38.6096C21.5556 38.5943 21.5404 38.5791 21.5252 38.5639C21.4796 38.5182 21.434 38.4725 21.3884 38.442C21.3732 38.4268 21.358 38.4115 21.3276 38.3963C21.2668 38.3506 21.206 38.2897 21.13 38.244C20.4763 37.7717 19.6706 37.5737 18.8802 37.7108C18.789 37.726 18.6977 37.7412 18.6217 37.7717C18.6065 37.7717 18.5761 37.7869 18.5609 37.7869C18.4849 37.8022 18.4089 37.8326 18.3329 37.8631C18.3177 37.8631 18.3177 37.8631 18.3025 37.8783C18.2265 37.9088 18.1353 37.9393 18.0593 37.985C18.0441 38.0002 18.0137 38.0002 17.9985 38.0154C17.9377 38.0459 17.8617 38.0916 17.8009 38.1221C17.7857 38.1221 17.7705 38.1373 17.7705 38.1373C17.6945 38.183 17.6184 38.2287 17.5576 38.2897C17.5424 38.3049 17.5272 38.3201 17.512 38.3354C17.4816 38.3506 17.4664 38.3811 17.436 38.3963C17.3904 38.3354 17.3448 38.2744 17.2992 38.2135C17.284 38.1983 17.2688 38.183 17.2536 38.1678C17.2232 38.1221 17.1776 38.0764 17.1472 38.0459C17.132 38.0307 17.1168 38.0154 17.0864 37.985C17.0408 37.9393 17.0104 37.9088 16.9648 37.8783C16.9496 37.8631 16.9344 37.8479 16.904 37.8326C16.8432 37.7869 16.7824 37.7412 16.7216 37.6955C16.0679 37.2233 15.2622 37.0253 14.4718 37.1624C14.3805 37.1776 14.2893 37.1928 14.2133 37.2233C14.1981 37.2233 14.1677 37.2385 14.1525 37.2385C14.0613 37.269 13.9853 37.2842 13.8941 37.3147H13.8789C13.8181 37.3299 13.7725 37.3604 13.7117 37.3756C12.8148 35.1668 11.4619 33.2473 9.75931 31.7696L16.98 21.7307C18.4089 22.5837 20.0051 23.1779 21.7076 23.4825L20.7955 32.4856C20.6587 33.8414 21.6468 35.0449 22.9845 35.182C24.2463 35.3039 25.4624 34.9382 26.4353 34.1461C27.4082 33.3539 28.0162 32.2114 28.153 30.9623L28.3962 28.601C29.6276 28.5553 30.8285 28.1897 31.8926 27.5652L43.1568 36.2788C43.2328 36.3397 43.2784 36.3854 43.3088 36.4159L43.324 36.4311C43.3392 36.4464 43.3696 36.4768 43.3848 36.4921L43.4153 36.5225C43.4305 36.5378 43.4305 36.553 43.4457 36.553L43.4761 36.5835C43.4913 36.5987 43.5065 36.614 43.5217 36.6292L43.6129 36.7663C43.6585 36.8272 43.6889 36.8882 43.7041 36.9339L43.7193 36.9643C43.7345 36.9948 43.7345 37.01 43.7497 37.0405C43.7649 37.071 43.7801 37.1014 43.7801 37.1319C43.7953 37.1624 43.7953 37.1928 43.8105 37.2233L43.8409 37.3147C43.8561 37.3909 43.8713 37.467 43.8865 37.528V37.5584C43.8865 37.5889 43.8865 37.6194 43.9017 37.6498V37.6651V37.7412C43.8865 37.8022 43.8865 37.8936 43.8713 37.9697ZM45.2546 35.3953L45.2394 35.3648C45.2242 35.3496 45.2242 35.3496 45.209 35.3343C45.1786 35.2886 45.1482 35.2582 45.1178 35.2277C45.1178 35.2277 45.1178 35.2277 45.1026 35.2125C45.0874 35.1972 45.0722 35.182 45.057 35.1515C45.0418 35.1363 45.0418 35.1363 45.0266 35.1211C45.0114 35.0906 44.981 35.0754 44.9658 35.0449L44.9506 35.0296C44.9202 34.9992 44.905 34.9839 44.8746 34.9535C44.8442 34.923 44.829 34.8925 44.7986 34.8773C44.6922 34.7707 44.5858 34.6793 44.4337 34.5574L31.9078 24.8688L31.2541 25.3563C30.1748 26.1637 28.8523 26.5445 27.4994 26.4074L26.4353 26.3008L25.9944 30.7033C25.9184 31.3888 25.584 32.0134 25.0519 32.4552C24.5199 32.8969 23.8358 33.095 23.1518 33.0188C22.9693 33.0036 22.8477 32.836 22.8629 32.6684L23.623 25.1887L29.0651 22.5076L30.5701 21.7611L30.6613 21.7154C31.0565 21.4717 31.4365 21.2736 31.8166 21.1061C32.6374 20.7405 33.5039 20.4663 34.3704 20.3292C35.4649 20.1464 36.5898 20.1464 37.6995 20.3292C40.1621 20.7405 42.6096 20.5424 44.829 19.796L49.8911 31.0841C48.1125 32.12 46.5163 33.5825 45.2546 35.3953Z" fill="#C94D00"/>
<path d="M53.8644 29.9871C53.9157 29.9871 53.9541 29.9999 54.0054 29.9999C54.3132 29.9999 54.6081 29.8971 54.8389 29.7044C55.1081 29.4732 55.2876 29.1649 55.3261 28.8051C55.403 28.0729 54.8645 27.4177 54.1336 27.3406C53.4028 27.2635 52.7489 27.8031 52.6719 28.5354C52.6078 29.2676 53.1463 29.9228 53.8644 29.9871ZM53.5695 28.6253C53.5951 28.4069 53.7746 28.2399 53.9926 28.2399C54.0054 28.2399 54.0182 28.2399 54.0311 28.2399C54.1465 28.2527 54.249 28.3041 54.326 28.394C54.4029 28.484 54.4285 28.5996 54.4157 28.7152C54.4029 28.8308 54.3516 28.9336 54.2619 29.0107C54.1721 29.0878 54.0567 29.1135 53.9413 29.1006C53.7233 29.0749 53.5566 28.8565 53.5695 28.6253Z" fill="#C94D00"/>
<path d="M7.99261 28.7981C8.06946 28.0693 7.53148 27.4173 6.80137 27.3406C6.07126 27.2638 5.418 27.8008 5.34114 28.5296C5.30272 28.8876 5.40519 29.2328 5.63575 29.5013C5.86631 29.7698 6.17373 29.9488 6.53238 29.9871C6.58362 29.9871 6.62204 29.9999 6.67328 29.9999C7.35216 29.9871 7.92856 29.4885 7.99261 28.7981ZM6.34025 28.9387C6.26339 28.8492 6.23777 28.7342 6.25058 28.6191C6.2762 28.4017 6.45553 28.2355 6.67328 28.2355C6.68609 28.2355 6.6989 28.2355 6.71171 28.2355C6.94227 28.2611 7.1216 28.4657 7.09598 28.7086C7.07036 28.9387 6.86541 29.1177 6.62204 29.0922C6.51957 29.0794 6.4171 29.0282 6.34025 28.9387Z" fill="#C94D00"/>
</svg>
