<svg width="40" height="40" viewBox="0 0 40 40" fill="none" xmlns="http://www.w3.org/2000/svg">
<g clip-path="url(#clip0_4857_4688)">
<path d="M20 16.007C19.319 15.3651 18.4137 14.9976 17.4613 14.9976C15.4169 14.9976 13.7537 16.6648 13.7537 18.7141C13.7537 22.7601 19.4495 26.0314 19.692 26.1687C19.7876 26.2227 19.8937 26.2497 19.9999 26.2497C20.1061 26.2497 20.2123 26.2227 20.3078 26.1687C20.5503 26.0314 26.2462 22.7601 26.2462 18.7141C26.2462 16.6648 24.5829 14.9976 22.5385 14.9976C21.5862 14.9976 20.681 15.3651 20 16.007ZM24.9962 18.7141C24.9962 21.5608 21.1312 24.187 19.9994 24.8947C19.5229 24.5975 18.5626 23.9604 17.6069 23.1024C16.4193 22.0363 15.0037 20.4095 15.0037 18.7141C15.0037 17.354 16.1062 16.2476 17.4614 16.2476C18.2685 16.2476 19.025 16.647 19.485 17.3162C19.6016 17.4858 19.7942 17.5872 20 17.5872C20.2058 17.5872 20.3984 17.4858 20.515 17.3162C20.9751 16.6471 21.7316 16.2476 22.5386 16.2476C23.8937 16.2476 24.9962 17.354 24.9962 18.7141Z" fill="#C94D00"/>
<path d="M29.375 -0.000244141H10.625C8.90188 -0.000244141 7.5 1.40163 7.5 3.12476V36.8748C7.5 38.5979 8.90188 39.9998 10.625 39.9998H29.375C31.0981 39.9998 32.5 38.5979 32.5 36.8748V3.12476C32.5 1.40163 31.0981 -0.000244141 29.375 -0.000244141ZM31.25 36.8748C31.25 37.9087 30.4089 38.7498 29.375 38.7498H10.625C9.59109 38.7498 8.75 37.9087 8.75 36.8748V3.12476C8.75 2.09093 9.59109 1.24976 10.625 1.24976H29.375C30.4089 1.24976 31.25 2.09093 31.25 3.12476V36.8748Z" fill="#C94D00"/>
<path d="M11.2103 8.34425L11.527 7.4998H13.4732L13.7899 8.34425C13.884 8.59511 14.1221 8.74996 14.3752 8.74996C14.4481 8.74996 14.5222 8.73714 14.5946 8.71003C14.9178 8.58886 15.0815 8.22855 14.9603 7.90535L13.0853 2.90535C13.083 2.8991 13.08 2.89339 13.0775 2.8873C13.0732 2.87707 13.069 2.86683 13.0643 2.85683C13.0598 2.84738 13.055 2.83832 13.05 2.82917C13.0454 2.82058 13.0407 2.81199 13.0357 2.80363C13.03 2.7941 13.024 2.78488 13.0178 2.77574C13.0128 2.76808 13.0075 2.76058 13.0021 2.75316C12.9955 2.74425 12.9886 2.73566 12.9816 2.72714C12.9757 2.71988 12.9696 2.71277 12.9632 2.70582C12.9561 2.69792 12.9489 2.69042 12.9414 2.683C12.9343 2.67589 12.9271 2.66894 12.9196 2.66214C12.9123 2.6555 12.9048 2.6491 12.8972 2.64285C12.8891 2.63613 12.8808 2.62957 12.8722 2.62324C12.8644 2.61746 12.8565 2.61199 12.8486 2.60667C12.8397 2.60074 12.8309 2.59496 12.8218 2.58949C12.813 2.58425 12.804 2.57933 12.795 2.57449C12.7863 2.5698 12.7775 2.56511 12.7685 2.56089C12.7581 2.55597 12.7475 2.5516 12.737 2.54722C12.7311 2.5448 12.7256 2.54191 12.7196 2.53964C12.717 2.53871 12.7144 2.53808 12.7118 2.53714C12.7005 2.53308 12.689 2.52964 12.6775 2.52628C12.6691 2.52378 12.6607 2.52105 12.6521 2.51886C12.6412 2.51613 12.6302 2.51402 12.6191 2.51191C12.6099 2.51011 12.6007 2.50808 12.5915 2.50675C12.5813 2.50519 12.5708 2.50441 12.5605 2.50339C12.5505 2.50238 12.5405 2.50121 12.5305 2.50066C12.5207 2.50019 12.5108 2.50042 12.501 2.50042C12.4905 2.50042 12.48 2.50019 12.4696 2.50066C12.46 2.50113 12.4506 2.5023 12.4411 2.50324C12.4302 2.50425 12.4193 2.50511 12.4086 2.50667C12.3997 2.508 12.3908 2.51003 12.3818 2.51175C12.3705 2.51394 12.3592 2.51605 12.3481 2.51886C12.3396 2.52097 12.3313 2.52371 12.3229 2.52621C12.3114 2.52964 12.2999 2.53308 12.2886 2.53714C12.2861 2.53808 12.2834 2.53871 12.2808 2.53964C12.2747 2.54191 12.2692 2.5448 12.2632 2.5473C12.2527 2.5516 12.2423 2.55597 12.2321 2.56082C12.2228 2.56519 12.2139 2.56988 12.2051 2.57464C12.1963 2.57941 12.1875 2.58417 12.1789 2.58933C12.1696 2.59496 12.1606 2.60082 12.1516 2.60683C12.1437 2.61207 12.136 2.61746 12.1284 2.62308C12.1197 2.62957 12.1113 2.63621 12.103 2.64308C12.0956 2.64925 12.0882 2.6555 12.0811 2.66199C12.0735 2.66886 12.0661 2.67597 12.0589 2.68324C12.0515 2.6905 12.0444 2.69792 12.0375 2.70558C12.0311 2.71269 12.0248 2.72003 12.0187 2.72738C12.0118 2.73574 12.005 2.74425 11.9986 2.753C11.993 2.7605 11.9877 2.76816 11.9825 2.77589C11.9764 2.78496 11.9705 2.79402 11.9648 2.80347C11.9597 2.81191 11.955 2.82058 11.9503 2.82933C11.9455 2.83839 11.9407 2.84738 11.9363 2.85683C11.9315 2.86683 11.9272 2.87707 11.923 2.88738C11.9205 2.89347 11.9175 2.89917 11.9152 2.90542L10.0402 7.90543C9.91902 8.22863 10.0828 8.58894 10.406 8.71011C10.4782 8.73722 10.5525 8.75003 10.6253 8.75003C10.8781 8.74996 11.1162 8.59519 11.2103 8.34425ZM12.5001 4.9048L13.0045 6.2498H11.9957L12.5001 4.9048Z" fill="#C94D00"/>
<path d="M29.5944 31.2895C29.2712 31.1682 28.911 31.3321 28.7897 31.6553L28.4731 32.4997H26.5268L26.2102 31.6553C26.089 31.3321 25.7289 31.1682 25.4055 31.2895C25.0823 31.4107 24.9185 31.771 25.0397 32.0942L26.9147 37.0942C26.916 37.0975 26.9178 37.1003 26.9191 37.1035C26.9291 37.1289 26.9405 37.1537 26.9537 37.1776C26.9551 37.1801 26.9563 37.1829 26.9577 37.1854C26.9714 37.2093 26.9872 37.2321 27.0041 37.2542C27.0084 37.2597 27.0126 37.2653 27.017 37.2707C27.0344 37.2918 27.0528 37.3122 27.073 37.3311C27.0753 37.3332 27.0778 37.335 27.08 37.3372C27.0988 37.3542 27.1188 37.37 27.1398 37.3847C27.1445 37.3881 27.1492 37.3915 27.1541 37.3947C27.177 37.41 27.2009 37.424 27.2262 37.4364C27.2295 37.438 27.2331 37.4393 27.2364 37.4408C27.2509 37.4475 27.2653 37.4543 27.2804 37.4599C27.2888 37.463 27.2973 37.4654 27.3058 37.4681C27.3111 37.4698 27.3164 37.4717 27.3218 37.4733C27.3481 37.4811 27.3744 37.4872 27.4008 37.4915C27.4054 37.4923 27.4101 37.4928 27.4147 37.4934C27.4431 37.4973 27.4715 37.4999 27.4998 37.4999H27.4999H27.4999C27.5281 37.4999 27.5566 37.4974 27.5849 37.4934C27.5896 37.4928 27.5942 37.4923 27.5988 37.4915C27.6253 37.4872 27.6517 37.4811 27.6778 37.4733C27.6832 37.4717 27.6884 37.4699 27.6937 37.4682C27.7022 37.4654 27.7107 37.4631 27.7192 37.4599C27.7344 37.4542 27.7489 37.4474 27.7635 37.4407C27.7667 37.4392 27.7701 37.4379 27.7733 37.4364C27.7987 37.424 27.8227 37.4099 27.8456 37.3946C27.8504 37.3915 27.855 37.3882 27.8596 37.3849C27.8808 37.37 27.901 37.3541 27.9198 37.3369C27.922 37.335 27.9243 37.3332 27.9265 37.3312C27.9467 37.3123 27.9652 37.2919 27.9826 37.2707C27.987 37.2653 27.9913 37.2598 27.9955 37.2543C28.0124 37.2322 28.0282 37.2094 28.042 37.1854C28.0434 37.1829 28.0445 37.1802 28.0459 37.1778C28.0592 37.1539 28.0705 37.1289 28.0806 37.1036C28.0818 37.1003 28.0837 37.0975 28.0849 37.0943L29.9599 32.0943C30.0813 31.771 29.9176 31.4107 29.5944 31.2895ZM27.4999 35.0947L26.9956 33.7497H28.0043L27.4999 35.0947Z" fill="#C94D00"/>
<path d="M24.375 35.6248H11.875V10.6248C11.875 10.2796 11.5952 9.99976 11.25 9.99976C10.9048 9.99976 10.625 10.2796 10.625 10.6248V36.2498C10.625 36.5949 10.9048 36.8748 11.25 36.8748H24.375C24.7202 36.8748 25 36.5949 25 36.2498C25 35.9046 24.7202 35.6248 24.375 35.6248Z" fill="#C94D00"/>
<path d="M15.625 4.37476H28.125V29.3748C28.125 29.7199 28.4048 29.9998 28.75 29.9998C29.0952 29.9998 29.375 29.7199 29.375 29.3748V3.74976C29.375 3.4046 29.0952 3.12476 28.75 3.12476H15.625C15.2798 3.12476 15 3.4046 15 3.74976C15 4.09491 15.2798 4.37476 15.625 4.37476Z" fill="#C94D00"/>
</g>
<defs>
<clipPath id="clip0_4857_4688">
<rect width="40" height="40" fill="white" transform="translate(0 -0.000244141)"/>
</clipPath>
</defs>
</svg>
