<svg width="36" height="28" viewBox="0 0 36 28" fill="none" xmlns="http://www.w3.org/2000/svg">
<path d="M15.44 0.639997L10.16 19.84L8.4 12.64C10.6933 12.64 12.56 13.3067 14 14.64C15.44 15.9733 16.16 17.8133 16.16 20.16C16.16 22.4533 15.4133 24.32 13.92 25.76C12.48 27.1467 10.6667 27.84 8.48 27.84C6.24 27.84 4.37333 27.1467 2.88 25.76C1.44 24.32 0.72 22.4533 0.72 20.16C0.72 19.4667 0.773333 18.8 0.88 18.16C0.986667 17.4667 1.2 16.6667 1.52 15.76C1.84 14.8533 2.29333 13.6533 2.88 12.16L7.52 0.639997H15.44ZM34.32 0.639997L29.04 19.84L27.28 12.64C29.5733 12.64 31.44 13.3067 32.88 14.64C34.32 15.9733 35.04 17.8133 35.04 20.16C35.04 22.4533 34.2933 24.32 32.8 25.76C31.36 27.1467 29.5467 27.84 27.36 27.84C25.12 27.84 23.2533 27.1467 21.76 25.76C20.32 24.32 19.6 22.4533 19.6 20.16C19.6 19.4667 19.6533 18.8 19.76 18.16C19.8667 17.4667 20.08 16.6667 20.4 15.76C20.72 14.8533 21.1733 13.6533 21.76 12.16L26.4 0.639997H34.32Z" fill="#1A1A1A"/>
</svg>
