<svg width="60" height="60" viewBox="0 0 60 60" fill="none" xmlns="http://www.w3.org/2000/svg">
<g clip-path="url(#clip0_4806_6603)">
<path d="M46.5875 2.07343H34.1469C34.1353 2.07343 34.1241 2.07473 34.1127 2.07512C33.1792 0.817063 31.6834 0 30 0C28.3166 0 26.8208 0.817063 25.8873 2.07512C25.8759 2.07473 25.8647 2.07343 25.8531 2.07343H13.4125C10.0184 2.07343 7.25702 4.83486 7.25702 8.22894V53.8445C7.25702 57.2386 10.0184 60 13.4125 60H46.5875C49.9816 60 52.743 57.2386 52.743 53.8445V8.22894C52.743 4.83486 49.9816 2.07343 46.5875 2.07343ZM30 1.94384C31.7508 1.94384 33.1749 3.36816 33.1749 5.11879V6.15551C33.1749 6.69227 33.61 7.12743 34.1469 7.12743H38.2937C38.9011 7.12743 39.3952 7.62156 39.3952 8.22894C39.3952 8.83633 38.9011 9.33045 38.2937 9.33045H21.7063C21.0989 9.33045 20.6048 8.83633 20.6048 8.22894C20.6048 7.62156 21.0989 7.12743 21.7063 7.12743H25.8531C26.39 7.12743 26.8251 6.69227 26.8251 6.15551V5.11879C26.8251 3.36816 28.2492 1.94384 30 1.94384ZM21.7063 11.2743H38.2937C39.973 11.2743 41.3391 9.90816 41.3391 8.22894C41.3391 8.20717 41.3379 8.18579 41.3374 8.16415H46.5875C46.6231 8.16415 46.6523 8.19317 46.6523 8.22894V53.8445C46.6523 53.8803 46.6231 53.9093 46.5875 53.9093H13.4125C13.3769 53.9093 13.3477 53.8803 13.3477 53.8445V8.22894C13.3477 8.19317 13.3769 8.16415 13.4125 8.16415H18.6626C18.6621 8.18579 18.6609 8.20717 18.6609 8.22894C18.6609 9.90816 20.027 11.2743 21.7063 11.2743ZM50.7991 53.8445C50.7991 56.1667 48.9098 58.0562 46.5875 58.0562H13.4125C11.0902 58.0562 9.20086 56.1667 9.20086 53.8445V8.22894C9.20086 5.9067 11.0902 4.01728 13.4125 4.01728H25.0019C24.9236 4.37235 24.8812 4.74065 24.8812 5.11879V5.18359H21.7063C20.7962 5.18359 19.9786 5.58544 19.4202 6.2203H13.4125C12.3049 6.2203 11.4039 7.12134 11.4039 8.22894V53.8445C11.4039 54.9521 12.3049 55.8531 13.4125 55.8531H46.5875C47.6951 55.8531 48.5961 54.9521 48.5961 53.8445V8.22894C48.5961 7.12134 47.6951 6.2203 46.5875 6.2203H40.5798C40.0213 5.58544 39.2037 5.18359 38.2937 5.18359H35.1188V5.11879C35.1188 4.74065 35.0763 4.37235 34.9981 4.01728H46.5875C48.9098 4.01728 50.7991 5.9067 50.7991 8.22894V53.8445Z" fill="#C94D00"/>
<path d="M30 8.16425C30.5369 8.16425 30.9719 7.72909 30.9719 7.19233V5.11889C30.9719 4.58213 30.5369 4.14697 30 4.14697C29.4631 4.14697 29.0281 4.58213 29.0281 5.11889V7.19233C29.0281 7.72909 29.4631 8.16425 30 8.16425Z" fill="#C94D00"/>
<path d="M28.9633 22.6782H41.4039C41.9408 22.6782 42.3758 22.2431 42.3758 21.7063C42.3758 21.1695 41.9408 20.7344 41.4039 20.7344H28.9633C28.4264 20.7344 27.9914 21.1695 27.9914 21.7063C27.9914 22.2431 28.4264 22.6782 28.9633 22.6782Z" fill="#C94D00"/>
<path d="M17.9088 21.019C17.5292 21.3986 17.5292 22.014 17.9088 22.3934L19.9822 24.4669C20.172 24.6566 20.4209 24.7516 20.6695 24.7516C20.9182 24.7516 21.167 24.6567 21.3569 24.4669L25.5037 20.32C25.8833 19.9404 25.8833 19.325 25.5037 18.9456C25.1241 18.566 24.5088 18.566 24.1292 18.9456L20.6695 22.4052L19.2834 21.019C18.9037 20.6394 18.2885 20.6394 17.9088 21.019Z" fill="#C94D00"/>
<path d="M28.9633 33.0454H41.4039C41.9408 33.0454 42.3758 32.6102 42.3758 32.0735C42.3758 31.5367 41.9408 31.1016 41.4039 31.1016H28.9633C28.4264 31.1016 27.9914 31.5367 27.9914 32.0735C27.9914 32.6102 28.4264 33.0454 28.9633 33.0454Z" fill="#C94D00"/>
<path d="M24.1291 29.3128L20.6696 32.7724L19.2835 31.3862C18.9038 31.0066 18.2885 31.0066 17.9089 31.3862C17.5293 31.7658 17.5293 32.3812 17.9089 32.7606L19.9823 34.834C20.1722 35.0238 20.421 35.1188 20.6697 35.1188C20.9184 35.1188 21.1672 35.0239 21.357 34.834L25.5039 30.6872C25.8835 30.3076 25.8835 29.6922 25.5039 29.3128C25.1241 28.9332 24.5088 28.9332 24.1291 29.3128Z" fill="#C94D00"/>
<path d="M28.9633 43.4126H41.4039C41.9408 43.4126 42.3758 42.9774 42.3758 42.4407C42.3758 41.9039 41.9408 41.4688 41.4039 41.4688H28.9633C28.4264 41.4688 27.9914 41.9039 27.9914 42.4407C27.9914 42.9774 28.4264 43.4126 28.9633 43.4126Z" fill="#C94D00"/>
<path d="M24.1291 39.6799L20.6696 43.1396L19.2835 41.7534C18.9038 41.3738 18.2885 41.3738 17.9089 41.7534C17.5293 42.1329 17.5293 42.7484 17.9089 43.1278L19.9823 45.2012C20.1722 45.391 20.421 45.4859 20.6697 45.4859C20.9184 45.4859 21.1672 45.3911 21.357 45.2012L25.5039 41.0544C25.8835 40.6748 25.8835 40.0594 25.5039 39.6799C25.1241 39.3004 24.5088 39.3004 24.1291 39.6799Z" fill="#C94D00"/>
</g>
<defs>
<clipPath id="clip0_4806_6603">
<rect width="60" height="60" fill="white"/>
</clipPath>
</defs>
</svg>
