<svg width="70" height="70" viewBox="0 0 80 80" fill="none" xmlns="http://www.w3.org/2000/svg">
<path d="M73.403 6.68066H6.59703C2.95953 6.68066 0 9.64019 0 13.2777V61.3778C0 64.5872 2.30391 67.2671 5.34453 67.8541V70.7307C5.34453 72.1582 6.50578 73.3194 7.93328 73.3194H13.2778C14.7053 73.3194 15.8666 72.1582 15.8666 70.7307V67.975H64.1338V70.7308C64.1338 72.1583 65.295 73.3196 66.7225 73.3196H72.067C73.4945 73.3196 74.6558 72.1583 74.6558 70.7308V67.8543C77.6961 67.2672 80 64.5872 80 61.3778V13.2777C80 9.64019 77.0405 6.68066 73.403 6.68066ZM13.3611 70.7307C13.3611 70.7766 13.3237 70.8141 13.2777 70.8141H7.93313C7.88703 70.8141 7.84969 70.7764 7.84969 70.7307V67.975H13.3611V70.7307ZM72.1503 70.7307C72.1503 70.7766 72.113 70.8141 72.0669 70.8141H66.7223C66.6763 70.8141 66.6389 70.7764 66.6389 70.7307V67.975H72.1503V70.7307ZM77.4948 61.3778C77.4948 63.6341 75.6592 65.4697 73.403 65.4697H6.59703C4.34078 65.4697 2.50516 63.6341 2.50516 61.3778V13.2777C2.50516 11.0214 4.34078 9.18582 6.59703 9.18582H73.4028C75.6591 9.18582 77.4947 11.0214 77.4947 13.2777V61.3778H77.4948Z" fill="#C94D00"/>
<path d="M70.7306 14.6973H9.26933C8.57761 14.6973 8.01667 15.258 8.01667 15.9499V20.0418H7.93323C6.50573 20.0418 5.34448 21.203 5.34448 22.6305V27.9751C5.34448 29.4026 6.50573 30.5638 7.93323 30.5638H8.01667V44.0919H7.93323C6.50573 44.0919 5.34448 45.2532 5.34448 46.6807V52.0252C5.34448 53.4527 6.50573 54.614 7.93323 54.614H8.01667V58.7058C8.01667 59.3976 8.57745 59.9585 9.26933 59.9585H70.7307C71.4225 59.9585 71.9834 59.3977 71.9834 58.7058V15.9498C71.9832 15.258 71.4225 14.6973 70.7306 14.6973ZM7.93308 28.0584C7.88698 28.0584 7.84964 28.0209 7.84964 27.9749V22.6304C7.84964 22.5845 7.88698 22.547 7.93308 22.547H9.26354C9.26542 22.547 9.2673 22.5473 9.26917 22.5473C9.27105 22.5473 9.27276 22.547 9.2748 22.547H10.6053C10.6514 22.547 10.6887 22.5845 10.6887 22.6304V27.9749C10.6887 28.0209 10.6514 28.0584 10.6053 28.0584H7.93308ZM7.93308 52.1085C7.88698 52.1085 7.84964 52.0709 7.84964 52.0251V46.6805C7.84964 46.6346 7.88698 46.5971 7.93308 46.5971H10.6053C10.6514 46.5971 10.6887 46.6346 10.6887 46.6805V52.0251C10.6887 52.071 10.6514 52.1085 10.6053 52.1085H7.93308ZM69.4781 46.764H68.0584C67.2756 46.764 66.6387 46.1271 66.6387 45.3443V29.311C66.6387 28.5282 67.2756 27.8913 68.0584 27.8913H69.4781V46.764ZM69.4781 25.3862H68.0584C65.8942 25.3862 64.1335 27.1468 64.1335 29.311V45.3444C64.1335 47.5087 65.8942 49.2693 68.0584 49.2693H69.4781V57.453H10.5218V54.6138H10.6053C12.0328 54.6138 13.194 53.4526 13.194 52.0251V46.6805C13.194 45.253 12.0328 44.0918 10.6053 44.0918H10.5218V30.5637H10.6053C12.0328 30.5637 13.194 29.4024 13.194 27.9749V22.6304C13.194 21.2029 12.0328 20.0416 10.6053 20.0416H10.5218V17.2024H69.4781V25.3862Z" fill="#C94D00"/>
<path d="M49.3528 26.7224C43.505 26.7224 38.7473 31.4799 38.7473 37.3279C38.7473 43.1759 43.505 47.9334 49.3528 47.9334C55.2006 47.9334 59.9583 43.1759 59.9583 37.3279C59.9583 31.4799 55.2006 26.7224 49.3528 26.7224ZM49.3528 45.428C44.8864 45.428 41.2526 41.7943 41.2526 37.3279C41.2526 32.8615 44.8864 29.2277 49.3528 29.2277C53.8192 29.2277 57.4529 32.8615 57.4529 37.3279C57.4529 41.7943 53.8192 45.428 49.3528 45.428Z" fill="#C94D00"/>
<path d="M54.6974 36.0752H54.4621C53.8986 33.7772 51.8222 32.0669 49.3529 32.0669C46.4519 32.0669 44.0919 34.4271 44.0919 37.3278C44.0919 40.2286 46.4519 42.5888 49.3529 42.5888C51.8222 42.5888 53.8983 40.8783 54.4621 38.5805H54.6974C55.3891 38.5805 55.95 38.0197 55.95 37.3278C55.95 36.636 55.3891 36.0752 54.6974 36.0752ZM49.3529 40.0835C47.8333 40.0835 46.5971 38.8472 46.5971 37.3277C46.5971 35.8081 47.8333 34.5719 49.3529 34.5719C50.8724 34.5719 52.1086 35.8081 52.1086 37.3277C52.1086 38.8472 50.8724 40.0835 49.3529 40.0835Z" fill="#C94D00"/>
</svg>
