<svg width="60" height="60" viewBox="0 0 60 60" fill="none" xmlns="http://www.w3.org/2000/svg">
<path d="M58.7379 12.4949H31.2L27.5688 5.66766C27.3497 5.25562 26.9211 4.99805 26.4545 4.99805H1.26211C0.565195 4.99805 0 5.56324 0 6.26016V53.7398C0 54.4366 0.565195 55.002 1.26211 55.002H58.7379C59.4348 55.002 60 54.4366 60 53.7398V13.757C60 13.0601 59.4348 12.4949 58.7379 12.4949ZM2.52422 52.4779V7.52238H25.6962L29.3273 14.3497C29.5465 14.7616 29.975 15.0191 30.4417 15.0191H57.4757V52.4777H2.52422V52.4779Z" fill="#C94D00"/>
<path d="M19.1414 12.5206H19.1713C19.8683 12.5206 20.4334 11.9555 20.4334 11.2584C20.4334 10.5615 19.8683 9.99634 19.1713 9.99634H19.1414C18.4445 9.99634 17.8793 10.5615 17.8793 11.2584C17.8793 11.9556 18.4445 12.5206 19.1414 12.5206Z" fill="#C94D00"/>
<path d="M15.552 9.99609H6.25977C5.56286 9.99609 4.99767 10.5613 4.99767 11.2582C4.99767 11.9552 5.56286 12.5203 6.25977 12.5203H15.552C16.249 12.5203 16.8141 11.9552 16.8141 11.2582C16.8141 10.5613 16.249 9.99609 15.552 9.99609Z" fill="#C94D00"/>
<path d="M41.9734 23.7146C38.1344 22.6629 34.1099 20.956 30.6416 18.9084C30.2458 18.6747 29.7543 18.6747 29.3583 18.9084C25.7385 21.0454 22.0317 22.6175 18.0266 23.7146C17.4781 23.8649 17.0979 24.3634 17.0979 24.932V31.1038C17.0979 37.6878 20.1373 42.0479 22.6869 44.5461C25.6235 47.4233 28.7867 48.7636 30 48.7636C31.2134 48.7636 34.3766 47.4233 37.3131 44.5461C39.8626 42.0479 42.9021 37.6878 42.9021 31.1038V24.932C42.902 24.3634 42.5217 23.865 41.9734 23.7146ZM40.3779 31.1038C40.3779 36.7377 37.8126 40.4816 35.6605 42.6302C33.1122 45.1746 30.5203 46.1778 30 46.2381C29.4797 46.1778 26.8879 45.1746 24.3395 42.6302C22.1875 40.4816 19.6221 36.7377 19.6221 31.1038V25.8852C23.2595 24.8133 26.6699 23.3573 30.0005 21.4544C33.2582 23.3095 36.8145 24.8273 40.378 25.8843L40.3779 31.1038Z" fill="#C94D00"/>
<path d="M24.7091 32.8836C24.2161 32.3907 23.4172 32.3907 22.9241 32.8836C22.4312 33.3765 22.4312 34.1756 22.9241 34.6685L27.0281 38.7725C27.2746 39.0189 27.5976 39.1422 27.9205 39.1422C28.2435 39.1422 28.5665 39.019 28.8129 38.7725L37.0762 30.5094C37.569 30.0165 37.569 29.2174 37.0762 28.7244C36.5833 28.2315 35.7844 28.2316 35.2912 28.7244L27.9204 36.0951L24.7091 32.8836Z" fill="#C94D00"/>
<path d="M44.6071 47.4802H44.5771C43.8802 47.4802 43.315 48.0453 43.315 48.7423C43.315 49.4393 43.8802 50.0044 44.5771 50.0044H44.6071C45.304 50.0044 45.8692 49.4391 45.8692 48.7423C45.8692 48.0453 45.304 47.4802 44.6071 47.4802Z" fill="#C94D00"/>
<path d="M53.7397 47.48H48.1965C47.4995 47.48 46.9344 48.0451 46.9344 48.7421C46.9344 49.439 47.4996 50.0042 48.1965 50.0042H53.7397C54.4367 50.0042 55.0018 49.439 55.0018 48.7421C55.0018 48.0451 54.4367 47.48 53.7397 47.48Z" fill="#C94D00"/>
</svg>
