<svg width="60" height="60" viewBox="0 0 60 60" fill="none" xmlns="http://www.w3.org/2000/svg">
<g clip-path="url(#clip0_4735_7813)">
<path d="M54.6556 10.3607C46.4003 8.09872 38.0966 4.57666 30.6419 0.175341C30.246 -0.0584471 29.7546 -0.0584471 29.3587 0.175341C21.6891 4.70311 13.834 8.03462 5.34436 10.3607C4.79593 10.5108 4.41577 11.0093 4.41577 11.578V24.474C4.41577 37.754 10.5422 46.5445 15.6818 51.5801C21.2149 57.0018 27.6602 60 30.0003 60C32.3402 60 38.7855 57.0018 44.3186 51.5801C49.4581 46.5446 55.5842 37.7541 55.5842 24.474V11.5779C55.5842 11.0093 55.204 10.5108 54.6556 10.3607ZM53.06 24.4739C53.06 36.8773 47.3458 45.0799 42.5519 49.777C37.1108 55.1084 31.2933 57.4756 30.0003 57.4756C28.7074 57.4756 22.8895 55.1084 17.4483 49.777C12.6545 45.0797 6.9401 36.8773 6.9401 24.4739V12.536C15.0586 10.2309 22.6193 7.01404 30.0006 2.72463C37.1975 6.90025 45.1354 10.2771 53.06 12.5356V24.4739Z" fill="#C94D00"/>
<path d="M18.813 12.3948C18.5576 11.7461 17.8248 11.4275 17.176 11.6831C14.9214 12.5715 12.6072 13.3892 10.2977 14.1137C9.77145 14.2789 9.41333 14.7664 9.41333 15.3179V20.1918C9.41333 20.8888 9.97852 21.4539 10.6754 21.4539C11.3723 21.4539 11.9375 20.8888 11.9375 20.1918V16.2403C14.0093 15.5699 16.0788 14.8285 18.1014 14.0315C18.75 13.7762 19.0686 13.0434 18.813 12.3948Z" fill="#C94D00"/>
<path d="M21.2105 12.6343C21.3799 12.6343 21.5518 12.6002 21.7167 12.5282L21.7399 12.5181C22.3784 12.2383 22.666 11.495 22.3862 10.8566C22.1061 10.2181 21.3586 9.92922 20.7207 10.2088L20.7003 10.2176C20.0614 10.4966 19.7729 11.2394 20.0519 11.878C20.259 12.3522 20.7236 12.6343 21.2105 12.6343Z" fill="#C94D00"/>
<path d="M45.0378 40.6972C44.4545 40.316 43.6724 40.48 43.2907 41.0634C42.2507 42.6553 41.0306 44.1797 39.6637 45.5938C38.5396 46.7565 37.3216 47.8403 36.0434 48.8147C35.4892 49.2372 35.3826 50.0292 35.8051 50.5836C36.0536 50.9093 36.4294 51.0806 36.8096 51.0806C37.0765 51.0806 37.3455 50.9963 37.574 50.822C38.9527 49.7707 40.2664 48.602 41.4783 47.3483C42.9562 45.8197 44.2769 44.1697 45.404 42.4441C45.7854 41.8605 45.6212 41.0784 45.0378 40.6972Z" fill="#C94D00"/>
<path d="M33.1121 50.7941L33.0397 50.8367C32.4366 51.1861 32.2304 51.9581 32.5797 52.5612C32.8137 52.9655 33.2373 53.1912 33.6731 53.1912C33.8876 53.1912 34.1053 53.1365 34.3042 53.0211L34.3877 52.972C34.9893 52.6197 35.1913 51.8466 34.839 51.2451C34.4865 50.6438 33.7133 50.4421 33.1121 50.7941Z" fill="#C94D00"/>
<path d="M21.3971 27.4241C20.6221 26.649 19.5915 26.2224 18.4953 26.2224C17.3991 26.2224 16.3683 26.6491 15.593 27.4241C13.9931 29.0244 13.9931 31.6283 15.593 33.2285L23.0457 40.6809C23.8208 41.4557 24.8514 41.8824 25.9477 41.8824C27.044 41.8824 28.0746 41.4557 28.8498 40.6807L44.4077 25.1226C46.0076 23.522 46.0076 20.9184 44.4075 19.3187C43.6324 18.5436 42.6018 18.1171 41.5054 18.1171C40.4091 18.1171 39.3784 18.5437 38.6032 19.3187L25.9476 31.9743L21.3971 27.4241ZM40.3882 21.1037C40.6865 20.8055 41.0834 20.6413 41.5055 20.6413C41.9278 20.6413 42.3244 20.8055 42.6229 21.1037C43.2387 21.7195 43.2387 22.7219 42.6226 23.338L27.065 38.8958C26.7667 39.194 26.3698 39.3582 25.9477 39.3582C25.5256 39.3582 25.1287 39.194 24.8303 38.8958L17.3779 31.4436C16.7619 30.8275 16.7619 29.8251 17.3777 29.2093C17.676 28.9111 18.073 28.7467 18.4952 28.7467C18.9174 28.7467 19.3141 28.9108 19.6123 29.2091L25.0551 34.652C25.2919 34.8886 25.6128 35.0216 25.9476 35.0216C26.2824 35.0216 26.6032 34.8887 26.8398 34.652L40.3882 21.1037Z" fill="#C94D00"/>
</g>
<defs>
<clipPath id="clip0_4735_7813">
<rect width="60" height="60" fill="white"/>
</clipPath>
</defs>
</svg>
