<svg width="60" height="60" viewBox="0 0 60 60" fill="none" xmlns="http://www.w3.org/2000/svg">
<g clip-path="url(#clip0_4880_6345)">
<path d="M54.6556 10.3607C46.4003 8.09872 38.0966 4.57666 30.6419 0.175341C30.246 -0.0584471 29.7546 -0.0584471 29.3587 0.175341C21.6891 4.70311 13.834 8.03462 5.34436 10.3607C4.79593 10.5108 4.41577 11.0093 4.41577 11.578V24.474C4.41577 37.754 10.5422 46.5445 15.6818 51.5801C21.2149 57.0018 27.6602 60 30.0003 60C32.3402 60 38.7855 57.0018 44.3186 51.5801C49.4581 46.5446 55.5842 37.7541 55.5842 24.474V11.5779C55.5842 11.0093 55.204 10.5108 54.6556 10.3607ZM53.06 24.4739C53.06 36.8773 47.3458 45.0799 42.5519 49.777C37.1108 55.1084 31.2933 57.4756 30.0003 57.4756C28.7074 57.4756 22.8895 55.1084 17.4483 49.777C12.6545 45.0797 6.9401 36.8773 6.9401 24.4739V12.536C15.0586 10.2309 22.6193 7.01404 30.0006 2.72463C37.1975 6.90025 45.1354 10.2771 53.06 12.5356V24.4739Z" fill="#C94D00"/>
<path d="M18.813 12.3946C18.5576 11.746 17.8248 11.4274 17.176 11.683C14.9214 12.5713 12.6072 13.3891 10.2977 14.1135C9.77145 14.2788 9.41333 14.7663 9.41333 15.3177V20.1917C9.41333 20.8887 9.97852 21.4538 10.6754 21.4538C11.3723 21.4538 11.9375 20.8887 11.9375 20.1917V16.2401C14.0093 15.5698 16.0788 14.8284 18.1014 14.0314C18.75 13.776 19.0686 13.0433 18.813 12.3946Z" fill="#C94D00"/>
<path d="M21.2105 12.6346C21.3799 12.6346 21.5518 12.6005 21.7167 12.5286L21.7399 12.5185C22.3784 12.2386 22.666 11.4953 22.3862 10.857C22.1061 10.2185 21.3586 9.92959 20.7207 10.2092L20.7003 10.218C20.0614 10.497 19.7729 11.2397 20.0519 11.8784C20.259 12.3525 20.7236 12.6346 21.2105 12.6346Z" fill="#C94D00"/>
<path d="M45.0378 40.6969C44.4545 40.3156 43.6724 40.4796 43.2907 41.0631C42.2507 42.6549 41.0306 44.1793 39.6637 45.5934C38.5396 46.7561 37.3216 47.8399 36.0434 48.8143C35.4892 49.2369 35.3826 50.0288 35.8051 50.5832C36.0536 50.9089 36.4294 51.0802 36.8096 51.0802C37.0765 51.0802 37.3455 50.996 37.574 50.8216C38.9527 49.7703 40.2664 48.6016 41.4783 47.3479C42.9562 45.8194 44.2769 44.1694 45.404 42.4438C45.7854 41.8602 45.6213 41.0781 45.0378 40.6969Z" fill="#C94D00"/>
<path d="M33.1122 50.7942L33.0397 50.8368C32.4366 51.1862 32.2304 51.9582 32.5797 52.5614C32.8137 52.9657 33.2373 53.1914 33.6731 53.1914C33.8876 53.1914 34.1053 53.1366 34.3042 53.0212L34.3877 52.9721C34.9893 52.6198 35.1913 51.8468 34.839 51.2452C34.4865 50.6439 33.7133 50.4423 33.1122 50.7942Z" fill="#C94D00"/>
<path d="M21.3971 27.4242C20.6221 26.6491 19.5915 26.2226 18.4953 26.2226C17.3991 26.2226 16.3683 26.6492 15.593 27.4242C13.9931 29.0245 13.9931 31.6284 15.593 33.2286L23.0457 40.681C23.8208 41.4559 24.8514 41.8825 25.9477 41.8825C27.044 41.8825 28.0746 41.4559 28.8498 40.6808L44.4077 25.1228C46.0076 23.5221 46.0076 20.9185 44.4075 19.3188C43.6324 18.5437 42.6018 18.1172 41.5054 18.1172C40.4091 18.1172 39.3784 18.5439 38.6032 19.3188L25.9476 31.9745L21.3971 27.4242ZM40.3882 21.1038C40.6865 20.8056 41.0834 20.6414 41.5055 20.6414C41.9278 20.6414 42.3244 20.8056 42.6229 21.1038C43.2387 21.7196 43.2387 22.7221 42.6226 23.3381L27.065 38.8959C26.7667 39.1941 26.3698 39.3583 25.9477 39.3583C25.5256 39.3583 25.1287 39.1941 24.8303 38.8959L17.3779 31.4437C16.7619 30.8277 16.7619 29.8253 17.3777 29.2094C17.676 28.9112 18.073 28.7468 18.4952 28.7468C18.9174 28.7468 19.3141 28.911 19.6123 29.2092L25.0551 34.6521C25.2919 34.8887 25.6128 35.0217 25.9476 35.0217C26.2824 35.0217 26.6032 34.8888 26.8398 34.6521L40.3882 21.1038Z" fill="#C94D00"/>
</g>
<defs>
<clipPath id="clip0_4880_6345">
<rect width="60" height="60" fill="white"/>
</clipPath>
</defs>
</svg>
