<svg width="55" height="53" viewBox="0 0 55 53" fill="none" xmlns="http://www.w3.org/2000/svg"><mask id="path-1-inside-1_4603_771" fill="#fff"><path fill-rule="evenodd" clip-rule="evenodd" d="M55 0v48.06L48.042 53V4.94H0L6.449 0H55zM32 34.494V53h16V5H0v16h20.928l-1 1L.708 41.221 0 41.928l.707.707 9.617 9.617.707.707.707-.707L31 32.99l1-1V32L11 53l6.39-4.94 4.036-3.052L32 34.494zm-.707-3.21l-20.262 20.26-9.617-9.617 20.221-20.22L23.342 20H1V6h46v46H33V29.576l-1.707 1.707z"/></mask><path fill-rule="evenodd" clip-rule="evenodd" d="M55 0v48.06L48.042 53V4.94H0L6.449 0H55zM32 34.494V53h16V5H0v16h20.928l-1 1L.708 41.221 0 41.928l.707.707 9.617 9.617.707.707.707-.707L31 32.99l1-1V32L11 53l6.39-4.94 4.036-3.052L32 34.494zm-.707-3.21l-20.262 20.26-9.617-9.617 20.221-20.22L23.342 20H1V6h46v46H33V29.576l-1.707 1.707z" fill="#C94D00"/><path d="M55 48.06l.579.815.421-.3v-.516h-1zM55 0h1v-1h-1v1zm-6.958 53h-1v1.937l1.58-1.122-.58-.815zm0-48.06h1v-1h-1v1zM0 4.94l-.608-.793L-2.95 5.94H0v-1zM6.449 0v-1h-.34l-.268.206.608.794zM32 34.494h1V32.09l-1.705 1.695.705.71zM32 53h-1v1h1v-1zm1 0v1-1zm14 0v-1 1zm1 0v1h1v-1h-1zm0-47h-1 1zm0-1h1V4h-1v1zm-1 0v1-1zM1 5V4v1zM0 5V4h-1v1h1zm0 1h-1 1zm0 14h1-1zm0 1h-1v1h1v-1zm1 0v-1 1zm18.514 0v1-1zm1.414 0l.707.707L23.342 20h-2.414v1zm-1 1l.707.707-.707-.707zM.708 41.221L0 40.514l.707.707zM0 41.928l-.707-.707-.707.707.707.707.707-.707zm.707.707L0 43.342l.707-.707zm9.617 9.617l-.707.707.707-.707zm.707.707l-.707.707.707.708.707-.708-.707-.707zm.707-.707l.707.707-.707-.707zM31 32.99l.707.707L31 32.99zm1-1h1v-2.414l-1.707 1.707.707.707zm0 .01l.707.707.293-.293V32h-1zM11 53l-.707-.707 1.319 1.498L11 53zm6.39-4.94l-.603-.799-.009.007.612.791zm4.036-3.052l.603.798.055-.04.047-.049-.705-.709zm-10.395 6.537l-.707.707.707.707.707-.707-.707-.707zm-9.617-9.617l-.707-.707-.707.707.707.707.707-.707zm20.221-20.22l.707.706-.707-.707zM23.342 20l.707.707L25.757 19h-2.415v1zm-2.414 0v1-1zM1 20H0v1h1v-1zM1 6V5H0v1h1zm46 0h1V5h-1v1zm0 46v1h1v-1h-1zm-14 0h-1v1h1v-1zm0-22.424h1v-2.414l-1.707 1.707.707.707zM56 48.06V0h-2v48.06h2zm-7.379 5.756l6.958-4.94-1.158-1.631-6.958 4.94 1.158 1.631zM47.042 4.941V53h2V4.94h-2zM0 5.94h48.042v-2H0v2zM5.84-.794l-6.448 4.94L.608 5.735 7.057.794 5.84-.794zM55-1H6.449v2H55v-2zM31 34.494V52h2V34.494h-2zM31 52v1h2v-1h-2zm1 2h1v-2h-1v2zm1 0h14v-2H33v2zm14 0h1v-2h-1v2zm2-1v-1h-2v1h2zm0-1V6h-2v46h2zm0-46V5h-2v1h2zm-1-2h-1v2h1V4zm-1 0H1v2h46V4zM1 4H0v2h1V4zm-2 1v1h2V5h-2zm0 1v14h2V6h-2zm0 14v1h2v-1h-2zm1 2h1v-2H0v2zm1 0h18.514v-2H1v2zm18.514 0h1.414v-2h-1.414v2zm.707-1.707l-1 1 1.414 1.414 1-1-1.414-1.414zm-1 1L0 40.514l1.414 1.414 19.221-19.22-1.414-1.415zM0 40.514l-.707.707 1.414 1.414.707-.707L0 40.514zm-.707 2.121l.707.707 1.414-1.414-.707-.707-1.414 1.414zm.707.707l9.617 9.617 1.414-1.414-9.617-9.617L0 43.342zm9.617 9.617l.707.707 1.414-1.414-.707-.707-1.414 1.414zm2.121.707l.707-.707-1.414-1.414-.707.707 1.414 1.414zm.707-.707l19.262-19.262-1.414-1.414-19.262 19.262 1.414 1.414zm19.262-19.262l1-1-1.414-1.414-1 1 1.414 1.414zM31 31.99V32h2v-.01h-2zm.293-.697l-21 21 1.414 1.414 21-21-1.414-1.414zM11.612 53.79l6.39-4.94-1.224-1.583-6.39 4.94 1.224 1.583zm6.38-4.934l4.037-3.051-1.206-1.596-4.036 3.052 1.206 1.595zm4.14-3.14l10.573-10.514-1.41-1.418L20.721 44.3l1.41 1.418zm-10.394 6.535L32 31.99l-1.414-1.414-20.262 20.262 1.414 1.414zM.708 42.635l9.616 9.617 1.414-1.414-9.617-9.617-1.414 1.414zM20.927 21L.708 41.221l1.413 1.414 20.221-20.22L20.928 21zm1.707-1.707L20.928 21l1.414 1.414 1.707-1.707-1.414-1.414zM20.928 21h2.414v-2h-2.414v2zM1 21h19.928v-2H1v2zM0 6v14h2V6H0zm47-1H1v2h46V5zm1 47V6h-2v46h2zm-15 1h14v-2H33v2zm-1-21.01V52h2V31.99h-2zm0-2.414v2.414h2v-2.414h-2zm0 2.414l1.707-1.707-1.414-1.414-1.707 1.707L32 31.99z" fill="#C94D00" mask="url(#path-1-inside-1_4603_771)"/></svg>