<svg width="60" height="60" viewBox="0 0 60 60" fill="none" xmlns="http://www.w3.org/2000/svg">
<g clip-path="url(#clip0_4681_487)">
<path d="M33.7068 54.2928C33.3157 53.9017 32.6837 53.9017 32.2928 54.2928C31.9017 54.6837 31.9017 55.3159 32.2928 55.7068L36.2928 59.7069C36.4878 59.9019 36.7438 59.9998 36.9998 59.9998C37.2558 59.9998 37.5117 59.9019 37.7067 59.7069C38.0978 59.3159 38.0978 58.6838 37.7067 58.2929L33.7068 54.2928Z" fill="#C94D00"/>
<path d="M43 26.0001C45.757 26.0001 48.0001 23.7571 48.0001 21C48.0001 18.243 45.7571 16 43 16C40.243 16 38 18.243 38 21C38 23.7571 40.2431 26.0001 43 26.0001ZM43 18C44.654 18 46 19.3461 46 21C46 22.654 44.654 24 43 24C41.3461 24 40 22.654 40 21C40 19.3461 41.3461 18 43 18Z" fill="#C94D00"/>
<path d="M30.0002 48C29.4471 48 29.0002 48.448 29.0002 49V51.5859L22.2932 58.2929C21.9023 58.684 21.9023 59.316 22.2932 59.7069C22.4882 59.9019 22.7443 59.9999 23.0002 59.9999C23.2563 59.9999 23.5122 59.9019 23.7072 59.7069L30.7071 52.707C30.8951 52.5199 31.0001 52.2649 31.0001 52V49C31.0001 48.448 30.5532 48 30.0002 48Z" fill="#C94D00"/>
<path d="M59 2.00004H31V0.999961C31 0.448008 30.553 0 30 0C29.447 0 29 0.448008 29 0.999961V1.99992H0.999961C0.446953 2.00004 0 2.44805 0 3V6.99996C0 7.55192 0.446953 7.99992 0.999961 7.99992H52.9999C53.5529 7.99992 53.9999 7.55192 53.9999 6.99996C53.9999 6.44801 53.5529 6 52.9999 6H1.99992V3.99996H58V6H57C56.447 6 56 6.44801 56 6.99996V40.9999C56 42.6539 54.654 43.9999 53 43.9999H6.99996C5.34598 43.9999 3.99996 42.6539 3.99996 40.9999V10.9999C3.99996 10.448 3.55301 9.99996 3 9.99996C2.44699 9.99996 2.00004 10.448 2.00004 10.9999V40.9999C2.00004 43.7569 4.24301 46 7.00008 46H53C55.757 46 58.0001 43.757 58.0001 40.9999V7.99992H59C59.553 7.99992 60 7.55192 60 6.99996V3C60 2.44805 59.553 2.00004 59 2.00004Z" fill="#C94D00"/>
<path d="M35.7073 32.2929C35.3162 31.9019 34.6842 31.9019 34.2933 32.2929C33.9022 32.6839 33.9022 33.316 34.2933 33.7069L35.5863 35L34.2933 36.2929C33.9022 36.6839 33.9022 37.3159 34.2933 37.7069C34.4883 37.9019 34.7443 37.9998 35.0003 37.9998C35.2563 37.9998 35.5123 37.9019 35.7073 37.7069L37.0003 36.4138L38.2934 37.7069C38.4884 37.9019 38.7444 37.9998 39.0004 37.9998C39.2564 37.9998 39.5124 37.9019 39.7074 37.7069C40.0984 37.3158 40.0984 36.6838 39.7074 36.2929L38.4143 34.9998L39.7074 33.7068C40.0984 33.3157 40.0984 32.6837 39.7074 32.2928C39.3164 31.9017 38.6843 31.9017 38.2934 32.2928L37.0003 33.5858L35.7073 32.2929Z" fill="#C94D00"/>
<path d="M14.042 32.1708C12.859 32.5727 12 33.6827 12 34.9998C12 36.6538 13.346 37.9998 15 37.9998C16.654 37.9998 18 36.6538 18 34.9998C18 33.7128 17.182 32.6218 16.041 32.1968C16.455 26.5058 21.206 21.9998 27 21.9998H32.586L30.293 24.2927C29.902 24.6838 29.902 25.3158 30.293 25.7067C30.488 25.9017 30.744 25.9997 31 25.9997C31.256 25.9997 31.512 25.9017 31.707 25.7067L35.706 21.7077C35.799 21.6146 35.872 21.5047 35.923 21.3817C36.024 21.1377 36.024 20.8617 35.923 20.6177C35.872 20.4947 35.799 20.3848 35.706 20.2928L31.707 16.2928C31.3159 15.9017 30.6839 15.9017 30.293 16.2928C29.902 16.6837 29.902 17.3159 30.293 17.7068L32.586 19.9998H27C20.111 19.9998 14.473 25.3888 14.042 32.1708ZM15 35.9998C14.448 35.9998 14 35.5508 14 34.9998C14 34.4488 14.448 33.9998 15 33.9998C15.552 33.9998 16 34.4488 16 34.9998C16 35.5508 15.552 35.9998 15 35.9998Z" fill="#C94D00"/>
<path d="M10.2933 19.7068C10.4883 19.9018 10.7443 19.9997 11.0003 19.9997C11.2563 19.9997 11.5123 19.9018 11.7073 19.7068L13.0003 18.4137L14.2934 19.7068C14.4884 19.9018 14.7444 19.9997 15.0004 19.9997C15.2563 19.9997 15.5124 19.9018 15.7074 19.7068C16.0984 19.3157 16.0984 18.6837 15.7074 18.2928L14.4143 16.9997L15.7074 15.7067C16.0984 15.3156 16.0984 14.6837 15.7074 14.2927C15.3163 13.9018 14.6843 13.9018 14.2934 14.2927L13.0003 15.5858L11.7073 14.2928C11.3163 13.9019 10.6842 13.9019 10.2933 14.2928C9.90224 14.6839 9.90224 15.3159 10.2933 15.7068L11.5863 16.9999L10.2933 18.2928C9.90224 18.6838 9.90224 19.3158 10.2933 19.7068Z" fill="#C94D00"/>
</g>
<defs>
<clipPath id="clip0_4681_487">
<rect width="60" height="60" fill="white"/>
</clipPath>
</defs>
</svg>
