<svg width="60" height="60" viewBox="0 0 60 60" fill="none" xmlns="http://www.w3.org/2000/svg">
<g clip-path="url(#clip0_4681_430)">
<path d="M59.926 7.85704C59.7757 7.4938 59.4211 7.25704 59.0281 7.25704H52.743V0.97194C52.743 0.578765 52.5062 0.224467 52.143 0.0740134C51.7796 -0.0764401 51.3618 0.00675643 51.0837 0.284726L43.5752 7.79328C42.2168 9.15177 41.4687 10.9579 41.4687 12.879V17.1569L39.8844 18.7411C35.6453 14.8323 29.9869 12.4406 23.7797 12.4406C10.6676 12.4406 0 23.1082 0 36.2203C0 49.3325 10.6676 60 23.7797 60C36.8918 60 47.5594 49.3326 47.5594 36.2203C47.5594 30.0131 45.1678 24.3548 41.259 20.1156L42.8432 18.5313H47.1211C49.0422 18.5313 50.8483 17.7832 52.2067 16.4247L59.7153 8.91617C59.9933 8.63833 60.0765 8.22028 59.926 7.85704ZM43.4125 12.879C43.4125 11.4771 43.9585 10.1591 44.9497 9.16784L50.7991 3.31842V7.82645L43.4125 15.2131V12.879ZM45.6156 36.2203C45.6156 48.2606 35.82 58.0562 23.7797 58.0562C11.7394 58.0562 1.94384 48.2608 1.94384 36.2203C1.94384 24.1799 11.7394 14.3845 23.7797 14.3845C29.4509 14.3845 34.6236 16.5583 38.5098 20.1157L35.4833 23.1421C32.3747 20.3574 28.2719 18.6609 23.7797 18.6609C14.0974 18.6609 6.2203 26.5382 6.2203 36.2203C6.2203 45.9025 14.0974 53.7797 23.7797 53.7797C33.462 53.7797 41.3391 45.9026 41.3391 36.2203C41.3391 31.7281 39.6428 27.6253 36.8579 24.5167L39.8843 21.4903C43.4418 25.3764 45.6156 30.5491 45.6156 36.2203ZM26.9546 36.2203C26.9546 37.9709 25.5305 39.3953 23.7797 39.3953C22.0289 39.3953 20.6048 37.9711 20.6048 36.2203C20.6048 34.4696 22.0289 33.0454 23.7797 33.0454C24.3016 33.0454 24.794 33.1728 25.2288 33.3967L23.0925 35.533C22.7129 35.9125 22.7129 36.528 23.0925 36.9074C23.2823 37.0971 23.5311 37.1921 23.7798 37.1921C24.0285 37.1921 24.2773 37.0973 24.4672 36.9074L26.6035 34.7711C26.8274 35.2061 26.9546 35.6986 26.9546 36.2203ZM26.6449 31.9807C25.8268 31.426 24.8405 31.1015 23.7798 31.1015C20.9574 31.1015 18.661 33.3979 18.661 36.2203C18.661 39.0428 20.9574 41.3391 23.7798 41.3391C26.6023 41.3391 28.8986 39.0428 28.8986 36.2203C28.8986 35.1596 28.5743 34.1733 28.0195 33.3552L31.0711 30.3036C32.3852 31.9201 33.1749 33.9795 33.1749 36.2203C33.1749 41.4009 28.9603 45.6156 23.7797 45.6156C18.5991 45.6156 14.3844 41.4009 14.3844 36.2203C14.3844 31.0397 18.5991 26.8251 23.7797 26.8251C26.0206 26.8251 28.0799 27.6148 29.6964 28.9291L26.6449 31.9807ZM31.0769 27.5487C29.1032 25.8853 26.5568 24.8812 23.7797 24.8812C17.5273 24.8812 12.4406 29.9679 12.4406 36.2203C12.4406 42.4728 17.5273 47.5594 23.7797 47.5594C30.0321 47.5594 35.1188 42.4728 35.1188 36.2203C35.1188 33.4433 34.1147 30.8968 32.4513 28.9231L35.4816 25.8928C37.9156 28.6475 39.3952 32.2641 39.3952 36.2202C39.3952 44.8306 32.3902 51.8357 23.7797 51.8357C15.1692 51.8357 8.16415 44.8308 8.16415 36.2203C8.16415 27.6099 15.1692 20.6048 23.7797 20.6048C27.7359 20.6048 31.3525 22.0844 34.1071 24.5184L31.0769 27.5487ZM50.8322 15.0503C49.841 16.0417 48.523 16.5875 47.1211 16.5875H44.7871L52.1737 9.20088H56.6817L50.8322 15.0503Z" fill="#C94D00"/>
</g>
<defs>
<clipPath id="clip0_4681_430">
<rect width="60" height="60" fill="white"/>
</clipPath>
</defs>
</svg>
