<svg width="60" height="60" viewBox="0 0 60 60" fill="none" xmlns="http://www.w3.org/2000/svg">
<g clip-path="url(#clip0_4681_5945)">
<path d="M51.6927 43.2336L42.2105 40.868C42.1751 40.8146 42.1363 40.7632 42.0899 40.7168L39.2655 37.8912V35.1864C39.5005 34.9475 39.7307 34.6994 39.9546 34.4409C42.59 31.3975 44.1744 27.2974 44.4164 22.8959C44.4261 22.7193 44.4351 22.543 44.4439 22.3669C44.4733 21.7845 44.501 21.2346 44.5566 20.6795L45.4917 11.3274C45.7807 8.43667 44.8286 5.54359 42.8793 3.38955C40.93 1.23538 38.1457 0 35.2405 0H24.7591C21.8539 0 19.0697 1.23538 17.1203 3.38942C15.1709 5.54346 14.2188 8.4368 14.5078 11.3274L15.4422 20.6732C15.498 21.2303 15.5261 21.7849 15.5557 22.3722C15.5646 22.5468 15.5734 22.7213 15.583 22.8959C15.8249 27.2974 17.4094 31.3975 20.0447 34.4409C20.2685 34.6994 20.4988 34.9473 20.7339 35.1864V37.8912L17.9094 40.7167C17.8641 40.7619 17.826 40.8118 17.7913 40.8636L8.30637 43.2337C4.28689 44.2385 2.07324 46.7055 2.07324 50.1802V56.9546C2.07324 58.6339 3.43938 60 5.1186 60H54.881C56.5602 60 57.9264 58.6339 57.9264 56.9546V50.1801C57.9264 46.7055 55.7127 44.2385 51.6927 43.2336ZM28.9631 53.7797H31.0365C31.1088 53.7797 31.1802 53.7762 31.2514 53.7713L31.9807 58.0562H28.0189L28.7482 53.7713C28.8194 53.7762 28.8908 53.7797 28.9631 53.7797ZM32.138 50.7343C32.138 51.3417 31.6439 51.8359 31.0365 51.8359H28.9631C28.3557 51.8359 27.8616 51.3417 27.8616 50.7343V49.1811L29.9998 47.7556L32.138 49.1811V50.7343ZM22.678 36.853C24.8766 38.4246 27.3914 39.2657 29.9998 39.2657C32.6082 39.2657 35.123 38.4246 37.3216 36.853V37.8912L29.9998 45.213L22.678 37.8912V36.853ZM33.6546 47.8559C33.6536 47.8552 33.6525 47.8546 33.6515 47.8538L31.5253 46.4364L38.2934 39.6683L40.1986 41.5742C39.5557 42.7341 38.0459 45.4514 35.9142 49.2848C35.9101 49.292 35.9017 49.307 35.8779 49.3129C35.8504 49.3196 35.8307 49.3065 35.8242 49.3022L33.6546 47.8559ZM18.5616 4.69374C20.1431 2.94609 22.4021 1.94384 24.7591 1.94384H35.2405C37.5976 1.94384 39.8565 2.94609 41.4382 4.69374C43.0197 6.44125 43.7922 8.78864 43.5576 11.1338L42.9658 17.0519C41.6525 13.9223 40.1995 11.9177 40.114 11.801C39.8043 11.3784 39.2149 11.2775 38.7824 11.573C36.2281 13.3168 24.8524 13.5387 20.6837 13.4773C20.4025 13.472 20.1331 13.591 19.9455 13.8006C18.7544 15.1301 17.8173 16.6249 17.1222 17.9357L16.4421 11.134C16.2075 8.78877 16.9801 6.44138 18.5616 4.69374ZM17.5241 22.7892C17.5146 22.6174 17.5059 22.4457 17.4973 22.2739C17.4913 22.155 17.4851 22.0348 17.4787 21.9144C17.6881 21.3198 18.903 18.0429 21.1079 15.4262C23.7973 15.4498 34.7817 15.4322 39.0063 13.6405C39.8393 14.9545 41.5955 18.0306 42.5219 21.8921C42.5152 22.0183 42.5088 22.1443 42.5025 22.2688C42.4937 22.4421 42.485 22.6155 42.4754 22.7892C42.0275 30.9384 36.5476 37.3218 29.9998 37.3218C23.452 37.3218 17.9721 30.9384 17.5241 22.7892ZM21.7062 39.6683L28.4743 46.4364L26.3477 47.8541C26.3469 47.8546 26.346 47.8552 26.3453 47.8558L24.1754 49.3024C24.1691 49.3068 24.1494 49.3197 24.1218 49.313C24.0979 49.3073 24.0895 49.2921 24.0856 49.285C21.9538 45.4515 20.444 42.7343 19.8011 41.5743L21.7062 39.6683ZM4.01709 56.9546V50.1802C4.01709 47.6119 5.61881 45.9092 8.77769 45.1195L18.2342 42.7568C18.7946 43.7686 19.9565 45.8594 22.3868 50.2297C22.6576 50.7167 23.1234 51.0713 23.6643 51.2022C23.8193 51.2397 23.977 51.2581 24.1343 51.2581C24.5288 51.2581 24.92 51.142 25.2537 50.9197L25.9179 50.4768V50.7342C25.9179 51.6235 26.3011 52.4247 26.9109 52.9821L26.0472 58.0562H13.3475V52.8078C13.3475 52.271 12.9124 51.8359 12.3756 51.8359C11.8389 51.8359 11.4037 52.271 11.4037 52.8078V58.0562H5.1186C4.51121 58.0562 4.01709 57.562 4.01709 56.9546ZM55.9825 56.9546C55.9825 57.562 55.4884 58.0562 54.881 58.0562H48.5959V52.8078C48.5959 52.271 48.1608 51.8359 47.624 51.8359C47.0872 51.8359 46.6521 52.271 46.6521 52.8078V58.0562H33.9524L33.0887 52.9822C33.6986 52.425 34.0818 51.6236 34.0818 50.7343V50.477L34.7459 50.9198C35.0796 51.1423 35.4708 51.2583 35.8653 51.2583C36.0226 51.2583 36.1805 51.2397 36.3353 51.2023C36.8762 51.0713 37.342 50.7168 37.6128 50.2297C40.0405 45.864 41.2026 43.773 41.7636 42.7599L51.2217 45.1195C54.3808 45.9092 55.9825 47.6119 55.9825 50.1801V56.9546Z" fill="#C94D00"/>
</g>
<defs>
<clipPath id="clip0_4681_5945">
<rect width="60" height="60" fill="white"/>
</clipPath>
</defs>
</svg>
