<svg width="40" height="40" viewBox="0 0 40 40" fill="none" xmlns="http://www.w3.org/2000/svg">
<path d="M27.9943 26.38H26.4993V25.4963C26.4993 25.1225 26.8718 24.75 27.2443 24.75H27.373C27.7505 24.75 28.1268 25.1225 28.1268 25.4963V26.38H27.9943ZM22.243 24.5C21.8705 24.5 21.493 24.75 21.493 25.1225V29.3787C21.493 29.7513 21.7493 30.0037 22.243 30.0037C22.6193 30.0037 22.9955 29.7513 22.9955 29.3787V25.0037C22.993 24.75 22.6193 24.5 22.243 24.5ZM31.5005 22.125V30.2463C31.5005 32.2513 29.748 33.75 27.7468 33.75H12.2455C10.2455 33.75 8.49805 32.125 8.49805 30.2463V22.125C8.49805 20.1263 10.1243 18.6225 12.2455 18.6225H27.6243C29.748 18.6225 31.5005 20.1275 31.5005 22.125ZM13.373 31.13V22.6187H15.2493V21.3788H10.1243V22.6187H11.748V31.2425L13.373 31.13ZM18.9993 23.88H17.4955V29.495C17.4955 29.75 17.2493 29.8713 16.9993 29.8713C16.873 29.8713 16.6218 29.75 16.6218 29.3775V23.745H14.9968V29.75C14.9968 30.1225 14.9968 30.62 15.373 30.8737C16.1255 31.3713 17.4955 30.7538 17.7493 30.0025V30.9963H18.9993V23.88ZM24.1218 29.0025V25.25C24.1218 23.7463 22.9955 22.8763 21.6243 24.1225V21.2488H19.9968V30.9975H21.248L21.378 30.3787C23.128 31.9975 24.1218 30.875 24.1218 29.0025ZM29.118 28.5H27.8805V29.3787C27.8805 29.7513 27.6243 30.0037 27.2443 30.0037H26.9968C26.6193 30.0037 26.3793 29.7513 26.3793 29.3787V27.6275H29.118V24.6325C28.8768 23.2525 26.9968 22.9963 26.003 23.75C25.7493 24.0025 25.493 24.2562 25.378 24.6325C25.2493 25.0075 25.1193 25.4963 25.1193 26.25V28.5C25.1193 32.37 29.4943 31.8812 29.118 28.5ZM22.993 16.2487C23.1268 16.5025 23.2443 16.6237 23.3718 16.7475C23.5018 16.8775 23.748 16.8775 23.998 16.8775C24.253 16.8775 24.3705 16.7475 24.628 16.6237C24.7493 16.5025 25.003 16.2487 25.123 16.0012V16.6237H26.8743V9.12625H25.4943V14.9987C25.4943 15.375 25.2543 15.6263 24.8768 15.6263C24.5005 15.6263 24.2543 15.375 24.2543 14.9987V9.25H22.7568V15.6263C22.873 15.8725 22.873 16.0012 22.993 16.2487ZM17.6218 12.0025C17.6218 11.2525 17.6218 10.7525 17.7505 10.2513C17.8718 9.87625 18.1268 9.5025 18.3743 9.25375C18.7393 8.99738 19.1772 8.86544 19.623 8.8775C19.998 8.8775 20.3705 9 20.6268 9.1275C20.873 9.25375 21.1218 9.5025 21.2493 9.75C21.3793 10.0038 21.493 10.2512 21.6255 10.5037C21.6255 10.7525 21.753 11.1287 21.753 11.7513V13.75C21.753 14.5025 21.753 14.9987 21.6255 15.2525C21.6255 15.6262 21.4955 15.8725 21.2493 16.125C21.1065 16.3884 20.8902 16.6047 20.6268 16.7475C20.3153 16.9056 19.9723 16.9915 19.623 16.9987C19.2505 16.9987 18.8743 16.9987 18.623 16.875C18.3743 16.7463 18.1268 16.6213 17.998 16.3762C17.8517 16.0931 17.7268 15.7993 17.6243 15.4975C17.4968 15.1237 17.4968 14.6225 17.4968 14.0013L17.6218 12.0025ZM18.9993 14.9987C18.9993 15.375 19.3755 15.7525 19.7505 15.7525C20.1268 15.7525 20.4955 15.375 20.4955 14.9987V10.9975C20.4955 10.6213 20.1268 10.2488 19.7505 10.2488C19.3755 10.2488 18.9993 10.6213 18.9993 10.9975V14.9987ZM14.1243 17H15.7493V11.2513L17.7493 6.25H15.8705L14.8743 10.0013L13.748 6.25H11.9993L14.1243 11.2513V17Z" fill="#C94D00"/>
</svg>
