<svg width="40" height="40" viewBox="0 0 40 40" fill="none" xmlns="http://www.w3.org/2000/svg">
<path d="M27.9948 26.38H26.4998V25.4963C26.4998 25.1225 26.8723 24.75 27.2448 24.75H27.3735C27.751 24.75 28.1273 25.1225 28.1273 25.4963V26.38H27.9948ZM22.2435 24.5C21.871 24.5 21.4935 24.75 21.4935 25.1225V29.3787C21.4935 29.7513 21.7498 30.0037 22.2435 30.0037C22.6198 30.0037 22.996 29.7513 22.996 29.3787V25.0037C22.9935 24.75 22.6198 24.5 22.2435 24.5ZM31.501 22.125V30.2463C31.501 32.2513 29.7485 33.75 27.7473 33.75H12.246C10.246 33.75 8.49854 32.125 8.49854 30.2463V22.125C8.49854 20.1263 10.1248 18.6225 12.246 18.6225H27.6248C29.7485 18.6225 31.501 20.1275 31.501 22.125ZM13.3735 31.13V22.6187H15.2498V21.3788H10.1248V22.6187H11.7485V31.2425L13.3735 31.13ZM18.9998 23.88H17.496V29.495C17.496 29.75 17.2498 29.8713 16.9998 29.8713C16.8735 29.8713 16.6223 29.75 16.6223 29.3775V23.745H14.9973V29.75C14.9973 30.1225 14.9973 30.62 15.3735 30.8737C16.126 31.3713 17.496 30.7538 17.7498 30.0025V30.9963H18.9998V23.88ZM24.1223 29.0025V25.25C24.1223 23.7463 22.996 22.8763 21.6248 24.1225V21.2488H19.9973V30.9975H21.2485L21.3785 30.3787C23.1285 31.9975 24.1223 30.875 24.1223 29.0025ZM29.1185 28.5H27.881V29.3787C27.881 29.7513 27.6248 30.0037 27.2448 30.0037H26.9973C26.6198 30.0037 26.3798 29.7513 26.3798 29.3787V27.6275H29.1185V24.6325C28.8773 23.2525 26.9973 22.9963 26.0035 23.75C25.7498 24.0025 25.4935 24.2562 25.3785 24.6325C25.2498 25.0075 25.1198 25.4963 25.1198 26.25V28.5C25.1198 32.37 29.4948 31.8812 29.1185 28.5ZM22.9935 16.2487C23.1273 16.5025 23.2448 16.6237 23.3723 16.7475C23.5023 16.8775 23.7485 16.8775 23.9985 16.8775C24.2535 16.8775 24.371 16.7475 24.6285 16.6237C24.7498 16.5025 25.0035 16.2487 25.1235 16.0012V16.6237H26.8748V9.12625H25.4948V14.9987C25.4948 15.375 25.2548 15.6263 24.8773 15.6263C24.501 15.6263 24.2548 15.375 24.2548 14.9987V9.25H22.7573V15.6263C22.8735 15.8725 22.8735 16.0012 22.9935 16.2487ZM17.6223 12.0025C17.6223 11.2525 17.6223 10.7525 17.751 10.2513C17.8723 9.87625 18.1273 9.5025 18.3748 9.25375C18.7398 8.99738 19.1777 8.86544 19.6235 8.8775C19.9985 8.8775 20.371 9 20.6273 9.1275C20.8735 9.25375 21.1223 9.5025 21.2498 9.75C21.3798 10.0038 21.4935 10.2512 21.626 10.5037C21.626 10.7525 21.7535 11.1287 21.7535 11.7513V13.75C21.7535 14.5025 21.7535 14.9987 21.626 15.2525C21.626 15.6262 21.496 15.8725 21.2498 16.125C21.107 16.3884 20.8907 16.6047 20.6273 16.7475C20.3158 16.9056 19.9727 16.9915 19.6235 16.9987C19.251 16.9987 18.8748 16.9987 18.6235 16.875C18.3748 16.7463 18.1273 16.6213 17.9985 16.3762C17.8522 16.0931 17.7273 15.7993 17.6248 15.4975C17.4973 15.1237 17.4973 14.6225 17.4973 14.0013L17.6223 12.0025ZM18.9998 14.9987C18.9998 15.375 19.376 15.7525 19.751 15.7525C20.1273 15.7525 20.496 15.375 20.496 14.9987V10.9975C20.496 10.6213 20.1273 10.2488 19.751 10.2488C19.376 10.2488 18.9998 10.6213 18.9998 10.9975V14.9987ZM14.1248 17H15.7498V11.2513L17.7498 6.25H15.871L14.8748 10.0013L13.7485 6.25H11.9998L14.1248 11.2513V17Z" fill="white"/>
</svg>
