<svg width="80" height="80" viewBox="0 0 80 80" fill="none" xmlns="http://www.w3.org/2000/svg"><path d="M39.175 62.825l1.45-5.9c7.025 1.325 12.3.8 14.525-5.55 1.8-5.1-.075-8.05-3.775-9.975 2.7-.625 4.725-2.4 5.25-6.05.75-5-3.05-7.675-8.25-9.475l1.4-5.625m-18 40.725l1.425-5.85c1.125.3 2.225.575 3.275.85M36.825 23c-.9-.2-8.3-2.05-8.3-2.05l-1.1 4.4s3.05.7 3 .75c1.675.425 1.975 1.525 1.925 2.4l-4.625 18.525c-.2.5-.725 1.275-1.875.975.05.05-3-.75-3-.75l-2.05 4.725s7.325 1.85 8.3 2.1m15.175-29.4c-1.075-.275-2.2-.525-3.3-.775l1.35-5.5m-5.55 22.725c2.8.7 11.725 2.075 10.4 7.4-1.275 5.1-9.875 2.35-12.675 1.65l1.25-5.025m4.125-16.375c2.325.575 9.8 1.65 8.6 6.5-1.15 4.65-8.325 2.275-10.65 1.7l1.05-4.2M76.25 40c0 20.02-16.23 36.25-36.25 36.25S3.75 60.02 3.75 40 19.98 3.75 40 3.75 76.25 19.98 76.25 40z" stroke="#C94D00" stroke-width="3.3" stroke-miterlimit="10" stroke-linecap="round" stroke-linejoin="round"/></svg>