<svg width="163" height="68" viewBox="0 0 163 68" fill="none" xmlns="http://www.w3.org/2000/svg"><path fill-rule="evenodd" clip-rule="evenodd" d="M30.422 33.563l6.263 6.264 6.264-6.264-6.264-6.264-6.263 6.264zm6.263 10.44l10.44-10.44-10.44-10.44-10.439 10.44 10.44 10.44zM17.3 46.686l6.263 6.264 6.264-6.264-6.264-6.264-6.264 6.264zm6.263 10.44l10.44-10.44-10.44-10.44-10.44 10.44 10.44 10.44zM17.3 20.44l6.263 6.263 6.264-6.264-6.264-6.263-6.264 6.263zm6.263 10.439l10.44-10.44L23.562 10l-10.44 10.44 10.44 10.439zM4.176 33.563l6.264 6.264 6.264-6.264-6.264-6.264-6.264 6.264zm6.264 10.44l10.44-10.44-10.44-10.44L0 33.564l10.44 10.44z" fill="#C94D00"/><path d="M57.578 15.84h17.846v3.448h-.747c0-1.28-.237-2.027-.71-2.24h-5.83v18.13c.213.474.96.711 2.239.711v.747h-7.75v-.747c1.28 0 2.027-.237 2.24-.71v-18.13h-5.83c-.474.212-.711.959-.711 2.239h-.747v-3.449zM89.08 36.636v-.747c1.091 0 1.778-.142 2.063-.426l-1.991-5.44h-6.826l-1.848 5.226c.237.427.972.64 2.204.64v.747h-5.83v-.747c1.327 0 2.074-.248 2.24-.746l6.896-19.304h1.707l6.896 19.304c.166.498.924.746 2.275.746v.747h-7.785zm-3.376-16.069l-2.95 8.284h5.971l-3.021-8.284zm23.697-4.727v.746c-1.114 0-1.801.142-2.062.427l3.875 6.79 4.23-6.648c-.237-.38-.959-.57-2.168-.57v-.746h5.83v.747c-1.161 0-1.872.201-2.133.604l-5.048 7.857 5.795 10.096c.26.498 1.019.746 2.275.746v.747h-7.786v-.747c1.114 0 1.802-.142 2.062-.426l-4.23-7.43-4.693 7.288c.237.379.96.568 2.169.568v.747h-5.83v-.747c1.185 0 1.943-.26 2.275-.782l5.332-8.318-5.403-9.492c-.261-.474-1.019-.711-2.275-.711v-.747h7.785zm25.666 19.943c1.588 0 2.915-.664 3.982-1.991 1.09-1.327 1.635-3.081 1.635-5.261V17.297c-.213-.474-.96-.711-2.24-.711v-.747h5.688v.747c-1.279 0-2.026.237-2.239.71V27.82c0 3.08-.688 5.38-2.062 6.896-1.351 1.517-3.057 2.275-5.119 2.275-5.688 0-8.532-3.057-8.532-9.171V17.297c-.214-.474-.96-.711-2.24-.711v-.747h7.75v.747c-1.28 0-2.026.237-2.24.71v11.021c0 2.347.522 4.183 1.565 5.51 1.042 1.304 2.393 1.956 4.052 1.956zm20.93 1.208c-1.162 0-2.347-.177-3.555-.533-1.209-.355-1.837-.533-1.884-.533-.143 0-.309.071-.498.213-.19.142-.285.308-.285.498h-.817v-4.942h.782c.261 1.423.96 2.465 2.097 3.129 1.162.64 2.477.96 3.946.96 1.256 0 2.287-.285 3.093-.854.806-.568 1.209-1.422 1.209-2.559a2.88 2.88 0 00-.356-1.422c-.213-.427-.557-.818-1.031-1.173a8.353 8.353 0 00-1.315-.924 27.97 27.97 0 00-1.671-.925 88.902 88.902 0 01-1.528-.888 181.7 181.7 0 01-1.849-1.174 23.075 23.075 0 01-1.564-1.244c-.616-.545-1.067-1.114-1.351-1.706a4.384 4.384 0 01-.427-1.92c0-1.398.64-2.666 1.92-3.804 1.28-1.137 2.714-1.706 4.302-1.706.687 0 1.54.178 2.559.533 1.019.356 1.6.533 1.742.533.284 0 .427-.237.427-.71h.817l.356 4.514h-.782c-.143-1.043-.664-1.908-1.565-2.595-.9-.71-2.073-1.066-3.519-1.066-1.09 0-1.967.355-2.631 1.066-.64.687-.959 1.386-.959 2.098 0 .45.106.876.319 1.28.214.378.546.734.996 1.066.45.332.877.628 1.28.889.403.236.936.533 1.599.888.688.356 1.209.64 1.565.853a70.16 70.16 0 012.097 1.316c.427.284.972.723 1.635 1.315.688.593 1.162 1.209 1.422 1.849.285.616.427 1.303.427 2.062 0 1.753-.711 3.128-2.133 4.123-1.422.996-3.046 1.493-4.87 1.493z" fill="#C94D00"/><path d="M63.658 45.692h.968v4.56h2.31v.875h-3.278v-5.435zm8.58 0h.837l2.341 5.435h-1.105l-.507-1.244h-2.357l-.491 1.244h-1.083l2.365-5.435zm1.228 3.362l-.837-2.21-.852 2.21h1.689zm4.594-3.362h1.059l1.02 3.915h.016l1.22-3.915h.953l1.197 3.915h.016l1.067-3.915h.982l-1.581 5.435h-.921l-1.26-4.138h-.015l-1.259 4.138h-.89l-1.605-5.435zm19.893 4.153l1.175 1.282h-1.19l-.576-.622c-.22.261-.456.453-.706.576-.251.123-.55.184-.899.184-.24 0-.473-.036-.698-.107a1.75 1.75 0 01-.584-.3 1.603 1.603 0 01-.407-.499c-.102-.2-.153-.43-.153-.69 0-.185.03-.354.092-.507a1.616 1.616 0 01.622-.776c.143-.102.297-.184.46-.245a10.736 10.736 0 01-.245-.284 2.503 2.503 0 01-.192-.285 1.582 1.582 0 01-.138-.314 1.398 1.398 0 01-.046-.369c0-.22.04-.414.123-.583a1.19 1.19 0 01.345-.415c.143-.112.31-.197.499-.253a2.173 2.173 0 011.175-.008c.184.051.345.13.483.238.144.103.256.236.338.4.087.163.13.355.13.575 0 .17-.03.325-.092.468a1.532 1.532 0 01-.245.384c-.103.113-.22.218-.353.315a2.851 2.851 0 01-.392.238l.875.944.607-.92h1.082l-1.09 1.573zm-1.912-3.462a.715.715 0 00-.46.153.467.467 0 00-.192.392.54.54 0 00.046.215c.03.066.072.135.123.207.05.066.105.13.161.192.061.061.123.12.184.176.077-.04.159-.087.246-.138a1.69 1.69 0 00.238-.184.958.958 0 00.184-.23.553.553 0 00.07-.277.437.437 0 00-.177-.36.642.642 0 00-.423-.146zm-.368 2.303a4.88 4.88 0 00-.269.176c-.087.057-.166.12-.238.192a.938.938 0 00-.176.246.766.766 0 00-.062.315.796.796 0 00.254.59.955.955 0 00.276.17.88.88 0 00.33.061.93.93 0 00.553-.169c.159-.112.307-.235.445-.368l-1.113-1.213zm12.123-2.994h3.508v.875h-2.541v1.428h2.395v.875h-2.395v2.257h-.967v-5.435zm7.226 0h.967v5.435h-.967v-5.435zm5 0h1.282l2.633 4.038h.015v-4.038h.968v5.435h-1.229l-2.687-4.169h-.015v4.169h-.967v-5.435zm10.708 0h.837l2.342 5.435h-1.106l-.506-1.244h-2.357l-.492 1.244h-1.082l2.364-5.435zm1.229 3.362l-.837-2.21-.852 2.21h1.689zm5.394-3.362h1.282l2.634 4.038h.015v-4.038h.967v5.435h-1.228l-2.687-4.169h-.015v4.169h-.968v-5.435zm12.682 1.274c-.2-.215-.394-.358-.583-.43a1.54 1.54 0 00-.561-.107c-.281 0-.537.05-.768.153a1.689 1.689 0 00-.583.415 1.885 1.885 0 00-.384.614c-.087.235-.13.489-.13.76 0 .292.043.56.13.806.092.246.22.458.384.637a1.763 1.763 0 001.351.576c.22 0 .433-.051.637-.154.21-.107.405-.276.584-.506l.798.568a2.172 2.172 0 01-.898.737 2.8 2.8 0 01-1.129.23c-.419 0-.806-.066-1.159-.2a2.768 2.768 0 01-.906-.575 2.74 2.74 0 01-.591-.898 3.023 3.023 0 01-.215-1.16c0-.435.072-.829.215-1.182.144-.358.341-.663.591-.913.256-.251.558-.443.906-.576a3.16 3.16 0 011.159-.208c.369 0 .709.067 1.022.2.317.128.611.348.882.66l-.752.553zm4.365-1.274h3.6v.875h-2.633v1.336h2.495v.875h-2.495v1.474h2.772v.875H154.4v-5.435z" fill="#6A6A6A"/></svg>