<svg width="80" height="80" viewBox="0 0 80 80" fill="none" xmlns="http://www.w3.org/2000/svg"><path d="M60.042 21.378H55.95V2.143a1.252 1.252 0 00-1.948-1.042L52.026 2.42 48.711.21c-.42-.28-.968-.28-1.39 0l-3.313 2.21L40.695.21a1.252 1.252 0 00-1.39 0l-3.313 2.21L32.678.21c-.42-.28-.969-.28-1.39 0l-3.313 2.21-1.978-1.32a1.252 1.252 0 00-1.947 1.042v19.235h-4.092a3.93 3.93 0 00-3.925 3.925v50.772A3.93 3.93 0 0019.958 80h40.084a3.93 3.93 0 003.925-3.925V25.303a3.93 3.93 0 00-3.925-3.925zM26.555 4.484l.725.483c.421.28.97.28 1.39 0l3.313-2.209 3.314 2.209c.42.28.969.28 1.39 0L40 2.758l3.314 2.209c.42.28.968.28 1.39 0l3.313-2.209 3.313 2.209c.421.28.97.28 1.39 0l.725-.483v22.238h-26.89V4.484zm34.906 71.591c0 .783-.636 1.42-1.42 1.42H19.959c-.782 0-1.42-.637-1.42-1.42V25.303c0-.783.637-1.42 1.42-1.42h4.092v2.84h-1.42a1.253 1.253 0 000 2.505h34.74a1.253 1.253 0 100-2.506h-1.42v-2.839h4.092c.782 0 1.42.637 1.42 1.42v50.772z" fill="#C94D00"/><path d="M56.034 32.067H23.967a2.592 2.592 0 00-2.59 2.589v6.68a2.592 2.592 0 002.59 2.589h32.067a2.592 2.592 0 002.588-2.589v-6.68a2.592 2.592 0 00-2.588-2.59zm.083 9.27a.083.083 0 01-.083.082H23.967a.083.083 0 01-.084-.083v-6.68c0-.047.038-.084.084-.084h32.067c.046 0 .083.037.083.084v6.68zm-25.47 5.427h-5.344a2.592 2.592 0 00-2.59 2.589v2.672a2.592 2.592 0 002.59 2.589h5.344a2.592 2.592 0 002.589-2.589v-2.672a2.592 2.592 0 00-2.589-2.589zm.084 5.261a.083.083 0 01-.084.083h-5.344a.083.083 0 01-.084-.083v-2.672c0-.046.037-.084.084-.084h5.344c.046 0 .084.038.084.084v2.672zm23.966-5.261h-5.344a2.592 2.592 0 00-2.589 2.589v2.672a2.592 2.592 0 002.589 2.589h5.344a2.592 2.592 0 002.59-2.589v-2.672a2.592 2.592 0 00-2.59-2.589zm.084 5.261a.083.083 0 01-.084.083h-5.344a.083.083 0 01-.084-.083v-2.672c0-.046.038-.084.084-.084h5.344c.046 0 .084.038.084.084v2.672zm-12.109-5.261h-5.344a2.592 2.592 0 00-2.589 2.589v2.672a2.592 2.592 0 002.589 2.589h5.344a2.592 2.592 0 002.59-2.589v-2.672a2.592 2.592 0 00-2.59-2.589zm.084 5.261a.083.083 0 01-.084.083h-5.344a.083.083 0 01-.084-.083v-2.672c0-.046.038-.084.084-.084h5.344c.047 0 .084.038.084.084v2.672zm-12.109 4.092h-5.344a2.592 2.592 0 00-2.59 2.589v2.672a2.592 2.592 0 002.59 2.589h5.344a2.592 2.592 0 002.589-2.59v-2.671a2.592 2.592 0 00-2.589-2.59zm.084 5.26a.084.084 0 01-.084.084h-5.344a.083.083 0 01-.084-.083v-2.672c0-.047.037-.084.084-.084h5.344c.046 0 .084.038.084.084v2.672zm23.966-5.26h-5.344a2.592 2.592 0 00-2.589 2.589v2.672a2.592 2.592 0 002.589 2.589h5.344a2.592 2.592 0 002.59-2.59v-2.671a2.592 2.592 0 00-2.59-2.59zm.084 5.26a.084.084 0 01-.084.084h-5.344a.083.083 0 01-.084-.083v-2.672c0-.047.038-.084.084-.084h5.344c.046 0 .084.038.084.084v2.672zm-12.109-5.26h-5.344a2.592 2.592 0 00-2.589 2.589v2.672a2.592 2.592 0 002.589 2.589h5.344a2.592 2.592 0 002.59-2.59v-2.671a2.592 2.592 0 00-2.59-2.59zm.084 5.26a.083.083 0 01-.084.084h-5.344a.083.083 0 01-.084-.083v-2.672c0-.047.038-.084.084-.084h5.344c.047 0 .084.038.084.084v2.672zM30.647 65.47h-5.344a2.592 2.592 0 00-2.59 2.588v2.673a2.592 2.592 0 002.59 2.588h5.344a2.592 2.592 0 002.589-2.588v-2.673a2.592 2.592 0 00-2.589-2.588zm.084 5.26a.083.083 0 01-.084.084h-5.344a.083.083 0 01-.084-.083v-2.673c0-.046.037-.083.084-.083h5.344c.046 0 .084.037.084.083v2.673zm23.966-5.26h-5.344a2.592 2.592 0 00-2.589 2.588v2.673a2.592 2.592 0 002.589 2.588h5.344a2.592 2.592 0 002.59-2.588v-2.673a2.592 2.592 0 00-2.59-2.588zm.084 5.26a.083.083 0 01-.084.084h-5.344a.083.083 0 01-.084-.083v-2.673c0-.046.038-.083.084-.083h5.344c.046 0 .084.037.084.083v2.673zm-12.109-5.26h-5.344a2.592 2.592 0 00-2.589 2.588v2.673a2.592 2.592 0 002.589 2.588h5.344a2.592 2.592 0 002.59-2.588v-2.673a2.592 2.592 0 00-2.59-2.588zm.084 5.26a.083.083 0 01-.084.084h-5.344a.083.083 0 01-.084-.083v-2.673c0-.046.038-.083.084-.083h5.344c.047 0 .084.037.084.083v2.673zm1.252-61.377h-8.016a1.253 1.253 0 000 2.505h8.016a1.253 1.253 0 000-2.505zm5.345 5.344H30.647a1.253 1.253 0 000 2.506h18.706a1.253 1.253 0 100-2.506zM33.32 20.042h-2.673a1.253 1.253 0 000 2.505h2.672a1.253 1.253 0 000-2.505zm16.033 0H46.68a1.253 1.253 0 000 2.505h2.672a1.253 1.253 0 000-2.505zm-8.017 0h-2.672a1.253 1.253 0 000 2.505h2.672a1.253 1.253 0 000-2.505z" fill="#C94D00"/></svg>